<svg viewBox="0 0 79 108" fill="none" xmlns="http://www.w3.org/2000/svg">
<path fill-rule="evenodd" clip-rule="evenodd" d="M78.5455 38.3478L78.5449 38.5565C78.5444 38.6444 78.5436 38.7323 78.5425 38.8201C78.5445 38.9227 78.5455 39.0261 78.5455 39.1304C78.5455 55.5085 65.7854 70.0058 57.2467 79.7072C54.7691 82.5222 52.6469 84.9335 51.295 86.8696C46.4861 93.7566 43.9481 101.218 43.2801 104.087C43.2801 106.248 41.486 108 39.2727 108C37.0594 108 35.2653 106.248 35.2653 104.087C34.5974 101.218 32.0594 93.7566 27.2505 86.8696C25.8985 84.9335 23.7764 82.5222 21.2987 79.7072C12.7601 70.0058 0 55.5085 0 39.1304C0 39.0261 0.000978374 38.9227 0.00293512 38.8201C0.000978374 38.6629 0 38.5055 0 38.3478C0 17.1689 17.583 0 39.2727 0C60.9625 0 78.5455 17.1689 78.5455 38.3478ZM39.2727 52.4348C47.683 52.4348 54.5009 45.7775 54.5009 37.5652C54.5009 29.353 47.683 22.6957 39.2727 22.6957C30.8624 22.6957 24.0445 29.353 24.0445 37.5652C24.0445 45.7775 30.8624 52.4348 39.2727 52.4348Z" fill="#34A851"/>
<path d="M74.1529 20.7093C69.344 11.6614 60.951 4.72143 50.8101 1.68271L28.2551 27.3017C31.0282 24.4645 34.939 22.697 39.2726 22.697C47.6829 22.697 54.5008 29.3543 54.5008 37.5665C54.5008 40.9167 53.3662 44.0082 51.4517 46.4943L74.1529 20.7093Z" fill="#4285F5"/>
<path d="M21.7542 80.2254C21.6038 80.0544 21.452 79.882 21.2987 79.708C15.6703 73.3132 8.2078 64.8346 3.77459 55.107L27.2171 28.4802C25.2281 30.9929 24.0445 34.1443 24.0445 37.5659C24.0445 45.7782 30.8624 52.4355 39.2727 52.4355C43.5331 52.4355 47.3847 50.7272 50.1486 47.9739L21.7542 80.2254Z" fill="#F9BB0E"/>
<path d="M9.29231 13.5769C3.49563 20.2593 0 28.9052 0 38.3485C0 38.5061 0.000978374 38.6636 0.00293512 38.8208C0.000978374 38.9234 0 39.0268 0 39.1311C0 44.7133 1.48233 50.0771 3.77457 55.107L27.1776 28.525L9.29231 13.5769Z" fill="#E74335"/>
<path d="M50.8102 1.68158C47.1621 0.588485 43.2878 0 39.2728 0C27.254 0 16.4963 5.27172 9.29245 13.5762L27.1777 28.5241L27.2167 28.48C27.542 28.069 27.8888 27.675 28.2556 27.2998L50.8102 1.68158Z" fill="#1A73E6"/>
</svg>
