<?xml version="1.0" encoding="UTF-8" standalone="no"?>
<!-- Created with Inkscape (http://www.inkscape.org/) -->

<svg
   viewBox="0 0 18.489782 11.853069"
   version="1.1"
   id="svg19"
   inkscape:version="1.1 (c4e8f9e, 2021-05-24)"
   sodipodi:docname="logo_branca_dente.svg"
   inkscape:export-filename="/Users/victor/Documents/Ultra Oral/Logo/logo_branca_horizontal_200x45.png"
   inkscape:export-xdpi="96"
   inkscape:export-ydpi="96"
   xmlns:inkscape="http://www.inkscape.org/namespaces/inkscape"
   xmlns:sodipodi="http://sodipodi.sourceforge.net/DTD/sodipodi-0.dtd"
   xmlns:xlink="http://www.w3.org/1999/xlink"
   xmlns="http://www.w3.org/2000/svg"
   xmlns:svg="http://www.w3.org/2000/svg">
  <sodipodi:namedview
     id="namedview21"
     pagecolor="#ffffff"
     bordercolor="#666666"
     borderopacity="1.0"
     inkscape:pageshadow="2"
     inkscape:pageopacity="0.0"
     inkscape:pagecheckerboard="true"
     inkscape:document-units="mm"
     showgrid="false"
     units="px"
     inkscape:zoom="1.6174665"
     inkscape:cx="82.536485"
     inkscape:cy="47.296188"
     inkscape:window-width="1440"
     inkscape:window-height="773"
     inkscape:window-x="0"
     inkscape:window-y="25"
     inkscape:window-maximized="0"
     inkscape:current-layer="layer1"
     fit-margin-top="0"
     fit-margin-left="0"
     fit-margin-right="0"
     fit-margin-bottom="0" />
  <defs
     id="defs16">
    <color-profile
       name="ACES-CG-Linear--Academy-Color-Encoding-System-AP1-"
       xlink:href="file:///System/Library/ColorSync/Profiles/ACESCG%20Linear.icc"
       id="color-profile45" />
  </defs>
  <g
     inkscape:label="Camada 1"
     inkscape:groupmode="layer"
     id="layer1"
     style="display:inline">
    <path
       style="display:inline;fill:#be7e69;fill-opacity:1;stroke:none;stroke-width:0.0436939"
       d="M 5.3816193,8.4521263 C 4.8262252,8.6367776 4.7584576,9.7329279 4.5652428,10.243577 4.4844964,10.456891 4.3721597,10.777517 4.1268175,10.847251 3.5009901,11.025174 2.9900337,9.8689444 3.2616787,9.4133925 3.7229994,8.6397491 4.798263,8.4823194 5.5563937,8.1462716 V 8.1025773 C 4.7185217,8.1095307 3.5613751,8.8640743 2.7606416,8.4328138 2.1218808,8.0888129 2.5270537,7.4954069 2.9784549,7.2295306 3.8919201,6.6914826 5.0083426,6.5283746 6.0370281,6.3583173 7.8490559,6.0587525 9.6328596,6.0546881 11.455069,6.2311684 c 0.615036,0.059554 1.223867,0.1680458 1.835143,0.2547789 0.260329,0.036922 0.525156,0.1439273 0.786489,0.087343 V 6.5295977 C 13.508725,6.3165029 12.840427,6.257603 12.24156,6.1743665 11.066062,6.0109513 9.8886436,5.9178831 8.7023542,5.9178831 c -1.681865,0 -3.4249896,0.2327131 -5.0684904,0.593188 C 3.1800589,6.6105622 2.1977332,6.9511994 1.8800791,6.4402867 1.6845923,6.1259099 2.0068784,5.6898885 2.2363142,5.4902508 2.8141224,4.9873777 3.8270334,4.8611024 4.5514345,4.6893857 7.6324658,3.9591733 10.865945,3.9621448 13.94562,4.7001281 c 1.172219,0.2809518 2.314814,0.6295421 3.451816,1.0279863 0.248881,0.087213 0.968519,0.5189084 1.092347,0.1460691 C 14.203196,4.0918662 9.4818966,3.5149328 4.9009874,4.2831147 3.9511244,4.442423 3.0149393,4.7330308 2.060883,4.8565966 1.6688616,4.9073693 1.186395,4.7439541 1.3604702,4.2575096 1.7393401,3.1985884 3.4007134,2.9978154 4.3329657,2.7871668 7.4311251,2.0871914 10.866206,2.2555005 13.94562,2.9853193 14.980902,3.2307039 16.008931,3.55784 17.004191,3.933127 17.140078,3.9843795 17.86081,4.3568705 17.932599,4.155091 18.006225,3.9483326 17.271293,3.7437133 17.135274,3.6894894 16.229062,3.3281849 15.284575,3.057501 14.338864,2.821161 11.434445,2.095231 8.3942247,1.9569834 5.4253136,2.2549753 4.468767,2.3509712 3.5165893,2.5434427 2.5852091,2.7774667 2.2343054,2.8655971 1.6814893,3.1232612 1.323462,2.958579 0.96796882,2.7951199 1.4392954,2.272235 1.5841838,2.1165536 2.0520577,1.6138985 2.6679669,1.2696356 3.3716995,1.3939872 4.0337945,1.510956 4.6355897,1.8507198 5.294232,1.9845986 5.8676262,2.1012164 6.9168474,1.9873906 7.4789248,1.8290475 8.0886745,1.6571992 8.660714,1.3297573 9.3140688,1.3776462 9.8346364,1.4158351 10.113186,1.8093415 10.568738,1.9568956 11.04286,2.1104804 11.657066,2.0973276 12.15417,2.1602041 11.760053,0.4971715 9.8501491,-0.26336429 8.3091096,0.08146756 7.5497531,0.25139333 6.9260676,0.71804401 6.1244141,0.71830592 5.3044121,0.71857183 4.6729475,0.25279064 3.8960269,0.08142368 2.3601871,-0.2572911 0.47278556,0.50652194 0.079541,2.1602041 -0.1117074,2.9645205 0.07718778,3.8633478 0.27498401,4.6507556 0.71651098,6.4087348 1.5072824,8.2272732 2.3919092,9.8066331 c 0.3659351,0.6532679 0.7878,1.8034649 1.591505,2.0255599 0.4258414,0.11767 0.7142649,-0.28532 0.8540413,-0.627356 C 5.1664703,10.39982 5.3744093,9.321106 5.3816193,8.452121 m 5.5491227,-5.6802024 0.04369,1.0049593 1.136041,0.1310815 0.08739,-1.0049593 -1.267123,-0.1310815 m 0,1.6603669 L 10.624883,5.743102 11.629843,5.83049 11.979392,4.5633669 10.93074,4.4322854 M 10.406415,6.3985109 C 10.226747,7.5980822 9.5189925,8.9518498 8.9012047,9.9814076 8.7610785,10.214908 8.3046531,11.077774 7.963754,10.756014 7.7281984,10.533744 7.6150758,10.150896 7.5215715,9.8503274 7.3150736,9.186617 7.1535809,8.5108905 6.9703283,7.8404076 6.8508706,7.4032082 6.7430767,6.8496064 6.2554969,6.7043682 6.8681728,7.718634 6.8731531,8.9716435 7.1031594,10.112491 c 0.1049075,0.520567 0.1849997,1.188166 0.5961141,1.567167 0.5733518,0.528478 1.2198888,-0.30188 1.525834,-0.736983 C 9.8105616,10.109999 10.216609,9.1548071 10.638386,8.2336521 10.894739,7.673803 11.262641,7.0522154 11.36768,6.4422039 L 10.406415,6.3985109 M 5.2505377,7.8841019 5.5126995,7.8404076 C 5.5922239,7.4562077 5.6970011,7.0228519 5.9933338,6.7480612 5.5212216,6.6245831 5.3242935,7.5653125 5.2505377,7.8841019"
       id="path381"
       sodipodi:nodetypes="cccsccccccccccscccccsccsccccccccccccccccccsccccccccccccccccccccccccccccccccc" />
  </g>
</svg>
