<?xml version="1.0" encoding="UTF-8"?>
<!-- Created with Inkscape (http://www.inkscape.org/) -->
<svg version="1.1" viewBox="0 0 300 264.65" xmlns="http://www.w3.org/2000/svg">
 <g transform="translate(-204.9 43.088)">
  <path fill="#999" d="m204.9 217.74v-3.8165h10.244v-11.751h-10.244v-36.558h299.3v13.057h-4.7204v-5.8252h-34.148v41.078h11.349v-11.751h5.6213l0.0532 5.8755 5.6746 0.0534v5.8221h16.17v7.6331h-299.3zm61.466-6.7276v-2.9111l5.6746-0.0534 0.0532-5.8755h5.6213v-17.576h-5.6213l-0.0532-5.8755-5.6746-0.0534v-5.8221h-28.524v41.078h28.524zm-17.074-17.628v-14.613h11.349v5.8252h5.6244v17.576h-5.6244v5.8252h-11.349zm73.92 17.576v-2.9628h-28.423v-11.65h22.698v-5.9257h-22.698v-11.65h28.423v-5.9257h-39.873v41.078h39.873zm28.423 0.0518v-2.9111l5.6746-0.0534 0.0532-5.8755h5.6213v-5.8252h5.7248v-23.502h-11.45v17.573l-5.6746 0.0534-0.0266 2.8875-0.0267 2.8875h-5.6213v-5.8252h-5.6244v-17.576h-11.45v23.502h5.7248v5.8252h5.6213l0.0532 5.8755 5.6746 0.0534v5.8221h5.7248zm45.497-2.9644v-5.8755h-11.45v11.751h11.45zm56.846 2.9628v-2.9126h5.6244v-11.851h-5.6244v-5.8252h5.6244v-11.751h-5.6244v-5.8252h-34.148v41.078h34.148zm-22.799-8.8383v-5.8252h17.074v11.65h-17.074zm0-17.576v-5.8252h17.074v11.65h-17.074zm68.296 20.489v-2.9126h-5.7248v-5.8252h10.445v11.65h-4.7204zm-22.799-17.576v-8.7379h17.074v11.65h-5.7248v5.8252h-11.349zm-271.07-59.458v-26.816h15.266v7.6331h7.7335v7.6331h7.7335v-7.6331h7.6331v-7.6331h15.266v53.632h-15.266l-0.0508-30.683-7.6833-0.0526v15.369h-7.6331v-15.369l-7.6833 0.0526-0.0508 30.683h-15.266zm61.366 0v-26.816h53.735l-0.0526 7.5829-38.316 0.0508v15.366h30.633v7.6331h-30.633v15.367h38.366v7.6331h-53.733zm61.466 0v-26.816h38.266v7.6331h7.7335v7.6331h7.6331v23h-7.6331v7.7335h-7.7335v7.6331h-38.266zm30.633 15.368v-3.8153l7.6833-0.0526 0.0255-11.525 0.0255-11.525h-7.7344v-7.6331h-15.367v38.366h15.367zm38.366 7.6319v-3.8165h15.367v-38.365l-15.316-0.0514-0.0526-7.5829h46.002v7.6331h-15.266v38.366h15.266v7.6331h-45.999zm53.758-15.341 0.0254-19.158 7.6833-0.0526v-7.6307h7.6331v-7.6331h23v7.6331h7.6331v7.6331h7.7335v38.366h-15.367v-15.367h-23v15.367h-15.367zm38.341-11.525v-7.6833h-7.6331v-7.6331h-7.7335v7.6331h-7.6331v15.367h23zm-40.375-87.78v-5.775h11.55v11.55h-11.55zm36.86-37.663v-5.775h11.55v11.55h-11.55zm-45.296-36.056v-5.775h11.55v11.55h-11.55z" stroke-width=".10044"/>
 </g>
</svg>
