<?xml version="1.0" encoding="UTF-8" standalone="no"?>
<!-- Created with Inkscape (http://www.inkscape.org/) -->

<svg
   viewBox="0 0 26.059658 30.903284"
   version="1.1"
   id="svg19"
   inkscape:version="1.1 (c4e8f9e, 2021-05-24)"
   sodipodi:docname="marker.svg"
   inkscape:export-filename="/Users/victor/Documents/Ultra Oral/Logo/logo_branca_horizontal_200x45.png"
   inkscape:export-xdpi="96"
   inkscape:export-ydpi="96"
   xmlns:inkscape="http://www.inkscape.org/namespaces/inkscape"
   xmlns:sodipodi="http://sodipodi.sourceforge.net/DTD/sodipodi-0.dtd"
   xmlns:xlink="http://www.w3.org/1999/xlink"
   xmlns="http://www.w3.org/2000/svg"
   xmlns:svg="http://www.w3.org/2000/svg">
  <sodipodi:namedview
     id="namedview21"
     pagecolor="#ffffff"
     bordercolor="#666666"
     borderopacity="1.0"
     inkscape:pageshadow="2"
     inkscape:pageopacity="0.0"
     inkscape:pagecheckerboard="true"
     inkscape:document-units="mm"
     showgrid="false"
     units="px"
     inkscape:zoom="1.6174665"
     inkscape:cx="3.0912541"
     inkscape:cy="99.229258"
     inkscape:window-width="1440"
     inkscape:window-height="773"
     inkscape:window-x="0"
     inkscape:window-y="25"
     inkscape:window-maximized="0"
     inkscape:current-layer="layer1"
     fit-margin-top="0"
     fit-margin-left="0"
     fit-margin-right="0"
     fit-margin-bottom="0" />
  <defs
     id="defs16">
    <color-profile
       name="ACES-CG-Linear--Academy-Color-Encoding-System-AP1-"
       xlink:href="file:///System/Library/ColorSync/Profiles/ACESCG%20Linear.icc"
       id="color-profile3545" />
  </defs>
  <g
     inkscape:label="Camada 1"
     inkscape:groupmode="layer"
     id="layer1"
     style="display:inline"
     transform="translate(-20.912782,13.765934)">
    <circle
       style="fill:#333333;fill-opacity:1;stroke:none;stroke-width:0.213962;stroke-opacity:1"
       id="path3079"
       cx="33.942612"
       cy="-0.73610431"
       r="13.02983" />
    <path
       style="fill:#333333;stroke:none;stroke-width:0.264583px;stroke-linecap:butt;stroke-linejoin:miter;stroke-opacity:1"
       d="M 24.046093,7.6497761 34.351562,17.13735 44.002715,7.4861971 Z"
       id="path3283" />
    <path
       style="display:inline;fill:#be7e69;fill-opacity:1;stroke:none;stroke-width:0.0436939"
       d="m 30.736343,2.2361295 c -0.555394,0.1846513 -0.623162,1.2808016 -0.816376,1.7914507 -0.08075,0.213314 -0.193083,0.53394 -0.438426,0.603674 -0.625827,0.177923 -1.136783,-0.9783066 -0.865138,-1.4338585 0.46132,-0.7736434 1.536584,-0.9310731 2.294715,-1.2671209 v -0.043694 c -0.837872,0.00695 -1.995019,0.761497 -2.795753,0.3302365 -0.63876,-0.3440009 -0.233587,-0.9374069 0.217814,-1.2032832 0.913465,-0.53804802 2.029887,-0.70115602 3.058573,-0.87121332 1.812028,-0.2995648 3.595831,-0.3036292 5.418041,-0.1271489 0.615036,0.059554 1.223867,0.1680458 1.835143,0.2547789 0.260329,0.036922 0.525156,0.1439273 0.786489,0.087343 v -0.0436929 c -0.567976,-0.2130948 -1.236274,-0.2719947 -1.835141,-0.3552312 -1.175498,-0.1634152 -2.352917,-0.2564834 -3.539206,-0.2564834 -1.681865,0 -3.42499,0.2327131 -5.06849,0.593188 -0.453805,0.099491 -1.436131,0.4401283 -1.753785,-0.070784 -0.195487,-0.3143768 0.126799,-0.7503982 0.356235,-0.9500359 0.577808,-0.50287308 1.590719,-0.62914838 2.31512,-0.80086508 3.081032,-0.7302124 6.314511,-0.7272409 9.394186,0.010742 1.172219,0.2809518 2.314814,0.62954208 3.451816,1.02798628 0.248881,0.087213 0.968519,0.5189084 1.092347,0.1460691 C 39.55792,-2.1241306 34.83662,-2.701064 30.255711,-1.9328821 c -0.949863,0.1593083 -1.886048,0.4499161 -2.840104,0.5734819 -0.392022,0.050773 -0.874488,-0.1126425 -0.700413,-0.599087 0.37887,-1.0589212 2.040243,-1.2596942 2.972496,-1.4703428 3.098159,-0.6999754 6.53324,-0.5316663 9.612654,0.1981525 1.035282,0.2453846 2.063311,0.5725207 3.058571,0.9478077 0.135887,0.051253 0.856619,0.4237435 0.928408,0.221964 0.07363,-0.2067584 -0.661306,-0.4113777 -0.797325,-0.4656016 -0.906212,-0.3613045 -1.850699,-0.6319884 -2.79641,-0.8683284 -2.904419,-0.72593 -5.944639,-0.8641776 -8.913551,-0.5661857 -0.956546,0.095996 -1.908724,0.2884674 -2.840104,0.5224914 -0.350904,0.08813 -0.90372,0.3457945 -1.261747,0.1811123 -0.355493,-0.1634591 0.115833,-0.686344 0.260722,-0.8420254 0.467874,-0.5026551 1.083783,-0.846918 1.787515,-0.7225664 0.662095,0.1169688 1.263891,0.4567326 1.922533,0.5906114 0.573394,0.1166178 1.622615,0.00279 2.184693,-0.1555511 0.609749,-0.1718483 1.181789,-0.4992902 1.835144,-0.4514013 0.520567,0.038189 0.799117,0.4316953 1.254669,0.5792494 0.474122,0.1535848 1.088328,0.140432 1.585432,0.2033085 -0.394117,-1.6630326 -2.304021,-2.4235684 -3.845061,-2.0787366 -0.759356,0.1699258 -1.383042,0.6365765 -2.184695,0.6368384 -0.820002,2.659e-4 -1.451467,-0.4655153 -2.228387,-0.6368823 -1.53584,-0.3387147 -3.423242,0.4250983 -3.816486,2.0787805 -0.191249,0.8043164 -0.0024,1.7031437 0.195443,2.4905515 0.441527,1.75797918 1.232298,3.5765176 2.116925,5.1558775 0.365935,0.6532679 0.7878,1.8034649 1.591505,2.0255599 0.425841,0.11767 0.714265,-0.28532 0.854041,-0.627356 0.329015,-0.805017 0.536954,-1.883731 0.544164,-2.752716 m 5.549123,-5.6802024 0.04369,1.0049593 1.136041,0.1310815 0.08739,-1.0049593 -1.267123,-0.1310815 m 0,1.6603669 -0.305857,1.31081648 1.00496,0.087388 0.349549,-1.26712308 -1.048652,-0.1310815 M 35.761139,0.18251408 C 35.581471,1.3820854 34.873716,2.735853 34.255929,3.7654108 34.115802,3.9989112 33.659377,4.8617772 33.318478,4.5400172 33.082922,4.3177472 32.9698,3.9348992 32.876295,3.6343306 32.669797,2.9706202 32.508305,2.2948937 32.325052,1.6244108 32.205594,1.1872114 32.097801,0.63360958 31.610221,0.48837138 c 0.612676,1.01426582 0.617656,2.26727532 0.847662,3.40812282 0.104908,0.520567 0.185,1.188166 0.596114,1.567167 0.573352,0.528478 1.219889,-0.30188 1.525834,-0.736983 0.585454,-0.832676 0.991502,-1.7878679 1.413279,-2.7090229 0.256353,-0.5598491 0.624255,-1.18143672 0.729294,-1.79144822 l -0.961265,-0.043693 M 30.605262,1.6681051 30.867423,1.6244111 C 30.946943,1.2402112 31.051725,0.80685538 31.348058,0.53206468 30.875945,0.40858658 30.679017,1.349316 30.605262,1.6681054"
       id="path381"
       sodipodi:nodetypes="cccsccccccccccscccccsccsccccccccccccccccccsccccccccccccccccccccccccccccccccc" />
  </g>
</svg>
