<?xml version="1.0" encoding="UTF-8"?>
<svg version="1.1" viewBox="0 0 7.9375 6.7686" xmlns="http://www.w3.org/2000/svg" xmlns:cc="http://creativecommons.org/ns#" xmlns:dc="http://purl.org/dc/elements/1.1/" xmlns:rdf="http://www.w3.org/1999/02/22-rdf-syntax-ns#">
 <metadata>
  <rdf:RDF>
   <cc:Work rdf:about="">
    <dc:format>image/svg+xml</dc:format>
    <dc:type rdf:resource="http://purl.org/dc/dcmitype/StillImage"/>
    <dc:title/>
   </cc:Work>
  </rdf:RDF>
 </metadata>
 <g transform="translate(-42.643 -65.033)">
  <g transform="matrix(.058594 0 0 .058594 40.145 61.223)" fill="#be7e69">
   <path d="m45.014 179.96c-0.86242-0.43489-1.341-0.91343-1.7759-1.7758l-0.59531-1.1805 2e-3 -48.164c9.8e-4 -31.883 0.0926-48.492 0.27101-49.135 0.54069-1.9467 1.8644-2.641 11.708-6.1406 17.085-6.0742 33.439-9.2746 42.788-8.3735 5.2493 0.50594 9.1225 1.7992 11.854 3.958l1.2674 1.0018 1.0465-0.88398c2.5159-2.1251 6.7798-3.5701 12.027-4.0759 9.6591-0.93097 26.27 2.4128 44.317 8.9212 7.1108 2.5643 8.4742 3.1764 9.3837 4.2122l0.80278 0.91432-9.9e-4 49.269c-1e-3 48.941-5e-3 49.275-0.53463 50.145-0.51937 0.85187-2.2758 1.8849-3.2256 1.897-0.24968 3e-3 -3.4048-1.1156-7.0115-2.4863-22.477-8.5422-39.756-12.991-48.62-12.517-3.0604 0.16335-3.8242 0.40499-5.1952 1.6436-1.9974 1.8045-4.0344 1.799-6.0438-0.0164-1.3519-1.2214-2.1249-1.4643-5.1771-1.6272-8.8646-0.47315-26.143 3.9753-48.62 12.517-3.6066 1.3706-6.7663 2.4921-7.0215 2.4921s-0.99528-0.26789-1.6446-0.59532zm10.225-11.203c15.982-6.0022 31.932-10.278 41.908-11.235 3.0654-0.29408 7.8641-0.19929 8.8384 0.17458 0.37243 0.14291 0.42279-0.87007 0.48494-9.7535l0.0694-9.913 1.9279 0.76971c1.0604 0.42334 2.8761 0.95988 4.0349 1.1923l2.107 0.4226v8.7219c0 7.847 0.042 8.7058 0.4188 8.5612 0.97715-0.37497 5.7718-0.47031 8.8416-0.17581 9.9762 0.95704 25.926 5.2332 41.908 11.235 2.1673 0.81397 4.0426 1.4799 4.1672 1.4799 0.1248 0 0.22658-19.472 0.22658-43.347v-43.347l-0.85989-0.2849c-0.47294-0.1567-2.9435-1.0193-5.4901-1.9169-23.365-8.2356-41.508-10.414-47.071-5.652-1.9757 1.6911-1.9931 1.7682-2.1415 9.4817-0.12743 6.6231-0.15175 6.8787-0.66146 6.9518-1.5085 0.21629-4.2711 0.9628-5.677 1.5341-0.87372 0.35502-1.6505 0.64549-1.7261 0.64549-0.0757 0-0.13821-3.3635-0.13902-7.4745-8e-4 -4.5864-0.11335-7.8834-0.291-8.5328-0.43237-1.5804-2.392-3.3562-4.496-4.0741-7.7742-2.6526-24.139-0.0296-44.424 7.1204-2.5466 0.89762-5.0172 1.7602-5.4901 1.9169l-0.8599 0.2849v43.347c0 23.875 0.10179 43.347 0.22659 43.347 0.12462 0 1.9998-0.66597 4.1672-1.4799zm4.1787-19.528c-0.69441-0.69441-0.89958-1.1198-0.89958-1.8652 0-2.1788 0.99318-2.9198 7.4154-5.5328 6.6052-2.6874 12.554-4.1941 17.985-4.555l2.7781-0.18461-2.9766 3.0585c-1.6371 1.6822-2.9766 3.1784-2.9766 3.3248 0 0.14648-0.68461 0.40785-1.5214 0.58083-4.1777 0.86366-11.34 3.357-15.111 5.2609-2.2324 1.1269-3.5023 1.1032-4.693-0.0875zm97.435 0.0763c-2.299-1.1863-7.8015-3.2942-10.991-4.2105-4.0644-1.1676-7.1728-1.6582-10.481-1.6542-2.5049 3e-3 -3.1869 0.10424-4.8948 0.72664-1.0914 0.39774-2.5477 0.78198-3.2363 0.85387-1.12 0.11693-1.334 0.0486-2.0311-0.64844-2.2066-2.2066-0.84392-4.7415 3.287-6.1144 6.387-2.1228 15.637-0.87945 26.58 3.5726 6.4222 2.6129 7.4154 3.354 7.4154 5.5328 0 0.7454-0.20518 1.1708-0.89959 1.8652-1.1872 1.1872-2.5522 1.2092-4.7476 0.0763zm-71.177 0.2864c-1.0554-0.31599-1.7129-0.97906-1.9993-2.0164-0.49739-1.8014-0.22765-2.1458 8.5555-10.923l8.3224-8.3165-0.51591-0.72453c-0.85212-1.1967-2.317-4.4897-2.8127-6.3227-0.64447-2.3832-0.63796-7.938 0.0121-10.319 1.0939-4.0063 3.8707-8.2621 6.9947-10.72 5.5487-4.366 12.463-5.6079 19.246-3.4569 3.0871 0.97904 5.2304 2.3422 7.9351 5.0469 2.7047 2.7047 4.0678 4.848 5.0469 7.9351 1.74 5.4867 1.3215 10.82-1.2358 15.747-2.6786 5.1607-7.3833 8.9754-12.941 10.493-2.3773 0.64912-7.9338 0.65644-10.319 0.0136-1.7456-0.47049-5.5168-2.1705-6.4823-2.9221-0.50579-0.39375-0.90364-0.0385-9.0053 8.0403-4.6618 4.6488-8.6705 8.4523-8.908 8.4523s-0.59053 0.0492-0.78433 0.10934c-0.1938 0.0601-0.69258 7e-3 -1.1084-0.11701zm34.865-19.566c2.758-0.70537 4.4378-1.6596 6.5308-3.7099 2.8284-2.7707 4.2074-6.0637 4.2074-10.047 0-4.1078-1.319-7.3545-4.1298-10.165-2.8108-2.8108-6.0575-4.1298-10.165-4.1298-3.9829 0-7.2759 1.3791-10.047 4.2074-0.94588 0.96557-2.0498 2.3696-2.4532 3.12-0.91419 1.7008-1.7816 5.0248-1.7756 6.804 0.0266 7.8005 6.4852 14.311 14.307 14.423 0.81347 0.0116 2.3999-0.21449 3.5254-0.50236zm-60.382 3.785c-1.6821-0.82898-2.1766-3.1123-0.98165-4.5324 1.3593-1.6154 12.353-5.8813 18.656-7.2391 2.2996-0.49538 3.5984-0.59903 7.5406-0.60182 4.4027-3e-3 4.9009 0.0461 6.5937 0.65161 1.0071 0.36024 1.9232 0.83358 2.0358 1.0519 0.11255 0.21828 0.61501 1.3795 1.1166 2.5804l0.91194 2.1836-0.78522 0.66072c-0.95028 0.79961-1.7516 0.83264-3.1308 0.12906-5.4402-2.7754-16.388-0.9427-28.306 4.7385-1.9558 0.93232-2.4273 0.98108-3.6518 0.37764zm95.991-0.84958c-5.1674-2.3869-10.252-4.0935-14.785-4.9625l-2.3441-0.44936 0.5936-1.3444c0.32648-0.73939 0.80903-2.029 1.0723-2.8657 0.567-1.8019 0.48725-1.7854 4.2185-0.87546 6.1621 1.5027 15.694 5.3379 16.937 6.8145 0.75782 0.90061 0.86491 2.2204 0.27304 3.365-0.39457 0.76301-1.8235 1.6136-2.6975 1.6056-0.26905-2e-3 -1.7393-0.58192-3.2673-1.2877zm-96.732-15.747c-0.69441-0.69441-0.89958-1.1198-0.89958-1.8652 0-2.1447 0.73499-2.7316 6.4823-5.1761 9.1626-3.8972 18.517-5.6883 24.365-4.6653 3.1504 0.55106 5.4881 1.4332 5.3024 2.0009-0.51266 1.5674-1.2246 4.4538-1.2246 4.9651 0 0.75838 8e-3 0.75857-2.0077-0.0479-0.90881-0.36358-2.5722-0.78899-3.6964-0.94536-5.1102-0.71076-14.291 1.4626-22.579 5.3448-3.442 1.6123-4.4505 1.6807-5.7421 0.38907zm96.599-0.30569c-3.1998-1.56-8.0864-3.3368-11.678-4.2464l-2.947-0.74629-0.32029-1.4651c-0.17616-0.8058-0.65413-2.2688-1.0622-3.251-0.40803-0.98226-0.61956-1.7859-0.47007-1.7859s1.749 0.2991 3.5544 0.66465c7.2608 1.4701 18.089 5.7579 19.002 7.5248 0.69664 1.3472 0.52603 2.5888-0.49618 3.611-1.2754 1.2754-2.4742 1.2098-5.5827-0.30569zm-95.859-15.112c-1.6078-0.79238-2.162-3.0556-1.0839-4.4263 1.426-1.8129 11.919-5.8746 19.288-7.4658 1.6905-0.36507 3.3987-0.48715 6.8792-0.49164 4.1156-5e-3 4.8508 0.0626 6.6146 0.61072 1.0914 0.33918 2.5012 0.91609 3.1329 1.282 2.0528 1.1892 2.4262 3.4568 0.82216 4.9936-1.0599 1.0155-2.4398 1.008-4.7488-0.0259-1.6408-0.73465-1.896-0.77028-5.5562-0.7755-2.6995-4e-3 -4.4816 0.13378-6.0133 0.46439-4.7849 1.0328-9.7622 2.7263-14.646 4.9831-3.0757 1.4213-3.4089 1.4818-4.6884 0.85126zm95.991-0.85521c-4.7968-2.2293-9.8622-3.9565-14.46-4.931-2.7681-0.58664-7.5365-0.79984-9.3224-0.41682-1.3577 0.29117-1.4628 0.27147-2.882-0.54052-0.81009-0.46349-2.31-1.1684-3.3331-1.5664l-1.8602-0.72373 0.86049-0.80382c0.94264-0.88056 2.902-1.6987 5.5843-2.3319 2.5904-0.61144 9.273-0.33997 12.978 0.52721 3.9824 0.93214 7.0519 1.9058 10.98 3.483 4.5251 1.8168 6.5703 2.8699 7.2492 3.733 0.65104 0.82767 0.72256 2.1919 0.17083 3.2588-0.39422 0.76234-1.8219 1.6127-2.6975 1.6067-0.26905-2e-3 -1.7393-0.58434-3.2673-1.2944z" stroke-width=".26458"/>
   <path d="m113.32 127.69c-0.33134-0.12288-0.49017-0.27612-0.6797-0.65577-0.31924-0.63942-0.62202-1.5217-0.85568-2.4934-0.40234-1.6731-0.51128-2.8068-0.70229-7.3095-0.10329-2.4346-0.0949-2.3234-0.19849-2.635-0.0492-0.14814-0.18945-0.50649-0.31154-0.79634-1.3259-3.1476-1.4786-5.0607-0.54982-6.886 0.16564-0.32552 0.42535-0.72005 0.63612-0.96633 0.27964-0.32677 0.66223-0.60643 1.1463-0.83794 0.85625-0.40947 1.2499-0.42104 3.0696-0.0902 1.2751 0.23181 1.6557 0.27846 2.271 0.27835 0.65603-1.2e-4 1.0779-0.0524 2.3681-0.29296 1.0134-0.18903 1.1589-0.20508 1.7592-0.19396l0.48928 9e-3 0.2685 0.0895c0.34972 0.11659 0.85048 0.37177 1.1041 0.56262 0.83956 0.63183 1.5021 1.8314 1.6954 3.0697 0.0534 0.34238 0.0702 0.94943 0.0368 1.335-0.0996 1.1502-0.43934 2.3308-1.1559 4.0168-0.29795 0.70103-0.34527 0.84786-0.36987 1.1477-0.0111 0.13526-0.0417 0.74657-0.0681 1.3585-0.169 3.929-0.28065 5.6717-0.42464 6.6284-0.23892 1.5873-0.89138 3.6658-1.3621 4.339-0.20473 0.2928-0.62646 0.42874-0.97076 0.3129-0.16029-0.054-0.33709-0.21371-0.40109-0.36247-0.0632-0.14674-0.1106-0.45352-0.14369-0.92843-0.1789-2.5678-0.59854-4.846-1.1615-6.3054-0.25657-0.66517-0.5757-1.1842-0.96879-1.5755-0.4254-0.42352-0.64589-0.50516-0.94193-0.34879-0.21767 0.11497-0.62109 0.52447-0.83734 0.84994-0.57864 0.87088-0.99973 2.1618-1.3128 4.0248-0.15455 0.91958-0.24001 1.6125-0.36426 2.9532-0.13254 1.4303-0.15275 1.4929-0.53887 1.6697-0.17892 0.0819-0.3621 0.0934-0.52533 0.0328z" stroke-width=".023422"/>
  </g>
 </g>
</svg>
