<?xml version="1.0" encoding="UTF-8"?>

<svg viewBox="0 0 39 39" fill="none" xmlns="http://www.w3.org/2000/svg">
<path d="M25.3384 18.3591C25.3211 18.3506 25.3038 18.3422 25.2864 18.3337C25.2604 18.3253 25.243 18.3337 25.217 18.3337C24.9828 18.283 24.7485 18.2323 24.4969 18.19C26.3448 16.6941 27.5333 14.4038 27.5333 11.8262V9.13865C27.5333 4.65098 23.9244 1 19.4913 1C15.9604 1 12.95 3.32412 11.883 6.54409C11.8743 6.56099 11.8656 6.57789 11.8656 6.59479C11.6053 7.39767 11.4579 8.25126 11.4579 9.13865V11.8262C11.4579 14.4038 12.6464 16.6941 14.4942 18.19C14.2513 18.2323 14.0171 18.283 13.7829 18.3337C13.7568 18.3337 13.7395 18.3337 13.7135 18.3337C13.6961 18.3422 13.6788 18.3506 13.6614 18.3591C0.509566 21.1987 0.995374 33.5968 1.00405 33.6983V37.5183C1.00405 37.7887 1.22961 38 1.49854 38C1.77615 38 1.99305 37.7803 1.99305 37.5183V33.6729C1.96703 33.1743 1.55061 22.1875 13.4619 19.3817L16.9754 33.8081C17.0275 34.0279 17.2356 34.18 17.4612 34.18C17.4959 34.18 17.5393 34.1715 17.574 34.1631C17.6174 34.1546 17.6607 34.1293 17.7041 34.1039C17.7822 34.1462 17.8776 34.18 17.9817 34.1715C18.2507 34.1462 18.4589 33.918 18.4329 33.6476L17.6868 24.63L19.5086 21.8917L21.3304 24.5708L20.567 33.6391C20.541 33.9011 20.7492 34.1377 21.0181 34.1631C21.0355 34.1631 21.0441 34.1631 21.0615 34.1631C21.1482 34.1631 21.2263 34.1377 21.3044 34.0955C21.3478 34.1208 21.3825 34.1377 21.4259 34.1546C21.4606 34.1631 21.5039 34.1715 21.5386 34.1715C21.7642 34.1715 21.9637 34.0194 22.0245 33.7997L25.538 19.3732C37.4493 22.1791 37.0328 33.1658 37.0068 33.6898V37.5098C37.0068 37.7803 37.2324 37.9916 37.5013 37.9916C37.7789 37.9916 37.9958 37.7718 37.9958 37.5098V33.7152C38.0045 33.5969 38.499 21.2072 25.3384 18.3591ZM19.4999 1.9719C23.1522 1.9719 26.1713 4.82001 26.5096 8.45409C24.0458 7.45683 23.3084 5.20031 23.2737 5.0989C23.2043 4.87071 22.9701 4.72704 22.7272 4.76084C22.4843 4.79465 22.3021 4.99749 22.3021 5.23413C22.3021 5.25103 22.2153 6.83143 18.9707 7.5836C15.7261 8.33577 13.6094 7.09342 12.924 6.59479C13.9477 3.89036 16.5069 1.9719 19.4999 1.9719ZM12.4555 11.8346V9.1471C12.4555 8.59776 12.5249 8.07378 12.6377 7.55825C13.6701 8.21745 15.943 9.26542 19.205 8.51325C21.3218 8.02307 22.3454 7.17794 22.8399 6.46802C23.4125 7.44838 24.5403 8.81749 26.553 9.4936V11.8431C26.553 15.7983 23.3952 19.0183 19.5086 19.0183C15.622 19.0014 12.4555 15.7899 12.4555 11.8346ZM17.1749 30.4107L14.4335 19.1873C14.8326 19.1112 15.249 19.0436 15.6741 18.9929C16.3768 19.3817 17.1402 19.6606 17.947 19.8212C17.6521 19.9733 17.4439 20.2691 17.4439 20.624C17.4439 21.1227 17.8603 21.5283 18.3721 21.5283H18.589L16.7585 24.275C16.6978 24.368 16.6718 24.4694 16.6804 24.5793L17.1749 30.4107ZM21.8423 30.3938L22.3368 24.5117C22.3455 24.4018 22.3194 24.2919 22.2587 24.2074L20.4282 21.5199H20.6364C21.1482 21.5199 21.5647 21.1142 21.5647 20.6156C21.5647 20.2691 21.3564 19.9648 21.0615 19.8127C21.8683 19.6521 22.6317 19.3732 23.3344 18.9845C23.7595 19.0436 24.1759 19.1028 24.575 19.1789L21.8423 30.3938Z" fill="#be7e69" stroke="#be7e69"/>
<path d="M11.5451 28.6302H3.83151C3.47222 28.6302 3.19153 28.9074 3.19153 29.2378C3.19153 29.5683 3.48345 29.8454 3.83151 29.8454H11.5451C11.9044 29.8454 12.185 29.5683 12.185 29.2378C12.185 28.9074 11.9044 28.6302 11.5451 28.6302Z" fill="#be7e69" stroke="#be7e69"/>
</svg>
