<?xml version="1.0" encoding="UTF-8"?>
<!-- Created with Inkscape (http://www.inkscape.org/) -->
<svg version="1.1" viewBox="0 0 26.458 26.932" xmlns="http://www.w3.org/2000/svg">
 <g transform="translate(-60.879 -53.356)">
  <path d="m71.321 79.36 0.02634-0.92713h5.5407l0.02634 0.92713 0.02634 0.92713h-5.646zm2.3753-3.7923v-1.8539h0.84269v3.7078h-0.84269zm11.831 1.3452c-0.15529-0.04724-1.1946-0.91845-2.5589-2.1449l-2.2974-2.0654h-13.016l-0.34326-0.1896c-0.38271-0.21139-6.1444-6.4037-6.3156-6.7877-0.4021-0.90163 0.2746-1.9552 1.2558-1.9552 0.22719 0 0.51673 0.05361 0.64343 0.11913 0.1267 0.06552 0.66378 0.58693 1.1935 1.1587 0.52973 0.57176 1.0214 1.1018 1.0927 1.1778 0.07125 0.07604 0.30019 0.32386 0.50876 0.55072 0.20856 0.22686 0.7798 0.84722 1.2694 1.3786 0.48961 0.53137 1.0538 1.1462 1.2537 1.3664l0.36349 0.40028h6.4807c5.4106 0 6.5254 0.01975 6.7518 0.1195 0.3616 0.15936 5.201 4.5344 5.3956 4.878 0.21104 0.37245 0.16094 1.1101-0.10031 1.4769-0.32874 0.46168-1.0174 0.68724-1.5778 0.51677zm-1.4902-6.2844-0.40342-0.38486-0.03586-14.787c-0.0049-0.64801-1.0036-1.1971-1.702-1.2087-0.65651 0-0.9986 0.21496-1.839 1.1556-1.1719 1.3116-1.0012 1.2015-1.3455 0.86793-0.16283-0.15782-0.29606-0.31774-0.29606-0.35538s0.38869-0.50611 0.86375-1.0411c0.70855-0.79786 0.95826-1.0193 1.3897-1.2324 1.1128-0.54965 2.1761-0.26378 3.0976 0.46856 0.72228 0.57401 0.71243 0.18944 0.73692 9.0903 0.01182 4.2988 0.0025 7.8151-0.02064 7.814-0.02319-9.56e-4 -0.22367-0.17515-0.44555-0.38682zm-14.639-2.761c0-0.85494 0.0244-1.0633 0.13534-1.1554 0.1066-0.08847 0.73198-0.11302 2.9458-0.11565 2.7141-0.0032 2.8148 0.0025 2.937 0.1652 0.12627 0.16806 0.1041 0.41121-0.0557 0.61095-0.06398 0.07997-0.68052 0.10534-2.5599 0.10534h-2.4756v1.4326h-0.92696zm5.448-7.7925-3.1044-3.1053 0.31692-0.26123c0.75569-0.6229 1.8737-1.0233 2.8667-1.0267 0.57373-0.0019 1.6568 0.28284 2.134 0.56117 0.58277 0.33987 1.3894 1.1562 1.6757 1.6958 0.73227 1.3803 0.74871 2.8479 0.04758 4.2482-0.1943 0.38804-0.66783 0.99327-0.77715 0.99327-0.03019 0-1.4519-1.3974-3.1593-3.1053z" fill="#be7e69" stroke-width=".084269"/>
 </g>
</svg>
