<?xml version="1.0" encoding="UTF-8"?>
<svg version="1.1" viewBox="0 0 39 39" xmlns="http://www.w3.org/2000/svg">
 <path d="m24.338 17.359c-0.0173-0.0085-0.0346-0.0169-0.052-0.0254-0.026-0.0084-0.0434 0-0.0694 0-0.2342-0.0507-0.4685-0.1014-0.7201-0.1437 1.8479-1.4959 3.0364-3.7862 3.0364-6.3638v-2.6876c0-4.4877-3.6089-8.1386-8.042-8.1386-3.5309 0-6.5413 2.3241-7.6083 5.5441-0.0087 0.0169-0.0174 0.0338-0.0174 0.0507-0.2603 0.80288-0.4077 1.6565-0.4077 2.5439v2.6876c0 2.5776 1.1885 4.8679 3.0363 6.3638-0.2429 0.0423-0.4771 0.093-0.7113 0.1437h-0.0694c-0.0174 0.0085-0.0347 0.0169-0.0521 0.0254-13.152 2.8396-12.666 15.238-12.657 15.339v3.82c0 0.2704 0.22556 0.4817 0.49449 0.4817 0.27761 0 0.49451-0.2197 0.49451-0.4817v-3.8454c-0.02602-0.4986-0.44244-11.485 11.469-14.291l3.5135 14.426c0.0521 0.2198 0.2602 0.3719 0.4858 0.3719 0.0347 0 0.0781-0.0085 0.1128-0.0169 0.0434-0.0085 0.0867-0.0338 0.1301-0.0592 0.0781 0.0423 0.1735 0.0761 0.2776 0.0676 0.269-0.0253 0.4772-0.2535 0.4512-0.5239l-0.7461-9.0176 1.8218-2.7383 1.8218 2.6791-0.7634 9.0683c-0.026 0.262 0.1822 0.4986 0.4511 0.524h0.0434c0.0867 0 0.1648-0.0254 0.2429-0.0676 0.0434 0.0253 0.0781 0.0422 0.1215 0.0591 0.0347 0.0085 0.078 0.0169 0.1127 0.0169 0.2256 0 0.4251-0.1521 0.4859-0.3718l3.5135-14.426c11.911 2.8059 11.495 13.793 11.469 14.317v3.82c0 0.2705 0.2256 0.4818 0.4945 0.4818 0.2776 0 0.4945-0.2198 0.4945-0.4818v-3.7946c0.0087-0.1183 0.5032-12.508-12.657-15.356zm-5.8385-16.387c3.6523 0 6.6714 2.8481 7.0097 6.4822-2.4638-0.99726-3.2012-3.2538-3.2359-3.3552-0.0694-0.22819-0.3036-0.37186-0.5465-0.33806-0.2429 0.03381-0.4251 0.23665-0.4251 0.47329 0 0.0169-0.0868 1.5973-3.3314 2.3495s-5.3613-0.49018-6.0467-0.98881c1.0237-2.7044 3.5829-4.6229 6.5759-4.6229zm-7.0444 9.8627v-2.6875c0-0.54934 0.0694-1.0733 0.1822-1.5888 1.0324 0.6592 3.3053 1.7072 6.5673 0.955 2.1168-0.49018 3.1404-1.3353 3.6349-2.0452 0.5726 0.98036 1.7004 2.3495 3.7131 3.0256v2.3495c0 3.9552-3.1578 7.1752-7.0444 7.1752-3.8866-0.0169-7.0531-3.2284-7.0531-7.1837zm4.7194 18.576-2.7414-11.223c0.3991-0.0761 0.8155-0.1437 1.2406-0.1944 0.7027 0.3888 1.4661 0.6677 2.2729 0.8283-0.2949 0.1521-0.5031 0.4479-0.5031 0.8028 0 0.4987 0.4164 0.9043 0.9282 0.9043h0.2169l-1.8305 2.7467c-0.0607 0.093-0.0867 0.1944-0.0781 0.3043zm4.6674-0.0169 0.4945-5.8821c0.0087-0.1099-0.0174-0.2198-0.0781-0.3043l-1.8305-2.6875h0.2082c0.5118 0 0.9283-0.4057 0.9283-0.9043 0-0.3465-0.2083-0.6508-0.5032-0.8029 0.8068-0.1606 1.5702-0.4395 2.2729-0.8282 0.4251 0.0591 0.8415 0.1183 1.2406 0.1944z" fill="#d4af37" stroke="#D4AF37"/>
 <path d="m10.545 27.63h-7.7136c-0.35929 0-0.63998 0.2772-0.63998 0.6076 0 0.3305 0.29192 0.6076 0.63998 0.6076h7.7136c0.3593 0 0.6399-0.2771 0.6399-0.6076 0-0.3304-0.2806-0.6076-0.6399-0.6076z" fill="#d4af37" stroke="#D4AF37"/>
</svg>
