<?xml version="1.0" encoding="UTF-8"?>
<!-- Created with Inkscape (http://www.inkscape.org/) -->
<svg version="1.1" viewBox="0 0 26.458 24.857" xmlns="http://www.w3.org/2000/svg">
 <g transform="translate(-20.609 -66.104)">
  <path d="m32.746 90.817c-1.4616-0.39631-3.1492-1.5323-4.8044-3.2341-2.1829-2.2443-3.8451-4.5815-5.3195-7.4794-2.176-4.2771-2.6001-7.5728-1.2122-9.4219 0.80351-1.0706 3.1753-2.5918 4.0488-2.5968 0.63921-0.0036 0.75304 0.14658 1.9865 2.6217 0.66775 1.34 1.14 2.3881 1.14 2.5302 0 0.67802-0.29185 0.98628-1.521 1.6065-1.3825 0.69758-1.5092 0.85126-1.4078 1.7075 0.06896 0.58224 0.43757 1.2836 1.589 3.0235 0.53822 0.8133 1.3686 2.1061 1.8452 2.8729 1.0597 1.7049 1.1964 1.8898 1.6284 2.2027 0.62576 0.45331 0.9372 0.35976 2.2102-0.66383 0.32111-0.25821 0.72317-0.51747 0.89348-0.57615 0.35818-0.1234 0.80706-0.0505 1.1116 0.18052 0.19409 0.14722 2.7977 3.2351 3.1781 3.7692 0.42656 0.59894 0.13958 1.2719-0.89271 2.0933-1.6994 1.3522-3.0258 1.7567-4.4735 1.3642zm10.08-9.5251c-1.0287-0.52211-0.77813-0.49374-2.5375-0.2873-1.3206 0.15495-3.1032-0.20255-4.2672-0.85579-2.6246-1.4729-4.1543-4.3945-3.8289-7.3126 0.60466-5.4221 6.42-8.4091 11.18-5.7426 0.80311 0.44985 2.1862 1.8078 2.6422 2.5942 1.4918 2.5728 1.3928 5.6594-0.25942 8.0857-0.18384 0.26996-0.41615 0.56439-0.51625 0.65428-0.43114 0.38716-0.51817 0.65871-0.59941 1.8701-0.11411 1.7015-0.26104 1.782-1.8138 0.99396zm1.7031-4.2675 0.19556-0.18373v-6.6536l-0.41481-0.41481h-9.2931l-0.47417 0.40786v6.7049l0.19948 0.16153c0.19106 0.15471 0.39773 0.16153 4.8955 0.16153h4.696zm-8.7613-3.2897c0-1.9082 0.0168-2.1995 0.12446-2.1582 0.06846 0.02627 0.83844 0.54996 1.7111 1.1638 0.87265 0.6138 1.6912 1.1561 1.819 1.205 0.3399 0.13023 0.51957 0.03737 2.1336-1.1028 0.79006-0.5581 1.541-1.0823 1.6688-1.1649l0.23237-0.15021v4.4133h-7.6893zm2.8053-1.8406c-0.52516-0.36296-0.99856-0.70365-1.052-0.75709-0.07322-0.07322 0.43795-0.09717 2.0744-0.09717 1.1944 0 2.1704 0.02852 2.1689 0.06337-0.0039 0.09259-2.0041 1.4582-2.1299 1.4542-0.05865-0.0019-0.53631-0.30036-1.0615-0.66332z" fill="#be7e69" stroke-width=".084498"/>
 </g>
</svg>
