<?xml version="1.0" encoding="UTF-8"?>
<!-- Created with Inkscape (http://www.inkscape.org/) -->
<svg version="1.1" viewBox="0 0 26.458 46.351" xmlns="http://www.w3.org/2000/svg">
 <g transform="translate(-84.395 -85.725)">
  <path d="m97.006 131.77c-0.09159-0.17275-0.4947-1.5766-0.8958-3.1197-0.95075-3.6577-1.8024-6.2835-3.0845-9.5102-1.2897-3.2458-1.8123-4.2875-4.2335-8.4385-3.5977-6.1681-4.404-8.365-4.3975-11.981 0.0041-2.3069 0.29114-3.5055 1.3624-5.6898 2.783-5.6744 9.7372-8.6665 15.573-6.7004 6.2422 2.1028 10.035 7.6382 9.4665 13.815-0.28277 3.0716-1.0592 5.0324-3.9449 9.9623-0.91038 1.5553-2.0866 3.6431-2.6138 4.6397-1.8241 3.4478-3.918 9.2059-5.1942 14.283-0.35937 1.4298-0.73827 2.7019-0.84199 2.8269-0.2746 0.33087-1.0025 0.278-1.1959-0.0869zm1.3952-5.9816c0.87373-2.9848 1.8412-5.7082 3.024-8.512 0.96054-2.277 1.5592-3.4098 4.3097-8.1552 2.1343-3.6822 2.8154-5.1494 3.2695-7.0436 0.99816-4.1636-0.073-8.3008-2.8768-11.111-3.7516-3.7607-9.218-4.8105-13.588-2.6096-2.7127 1.3661-4.3959 3.0421-5.6097 5.5857-0.83505 1.7499-1.0782 2.8593-1.0741 4.9013 0.0061 3.0096 0.68832 5.0149 3.1716 9.3209 3.2272 5.596 3.8917 6.8587 4.9374 9.3815 1.075 2.5936 2.6777 7.2536 3.2878 9.5601 0.17665 0.66776 0.34874 1.1865 0.38242 1.1529 0.03365-0.0337 0.3786-1.1454 0.76648-2.4705zm-3.0573-22.564c-2.225-1.1623-3.1989-3.9112-2.2191-6.2634 0.4169-1.0009 1.6479-2.1636 2.7124-2.5619 1.8008-0.67378 3.5423-0.35668 4.9771 0.90629 1.96 1.7253 2.2152 4.5376 0.60348 6.6507-1.3451 1.7635-4.0463 2.3275-6.0739 1.2683z" fill="#d4af37" stroke-width=".17948"/>
 </g>
</svg>
