<?xml version="1.0" encoding="UTF-8"?>
<!-- Created with Inkscape (http://www.inkscape.org/) -->
<svg version="1.1" viewBox="0 0 26.458 26.697" xmlns="http://www.w3.org/2000/svg">
 <g transform="translate(-33.288 -16.407)">
  <path d="m33.806 41.515c0.29542-0.88041 0.82308-2.4499 1.1726-3.4877l0.63542-1.887-0.17916-0.31566c-1.3471-2.3734-1.923-5.2153-1.5996-7.8932 0.23326-1.9317 0.83428-3.6864 1.8079-5.278 0.55385-0.90541 1.1378-1.6459 1.9025-2.4126 1.0677-1.0705 2.0983-1.8133 3.455-2.4901 1.5249-0.76066 3.139-1.1895 4.9547-1.3164 1.5801-0.11041 3.3726 0.12483 4.9178 0.64536 2.7327 0.92057 5.0464 2.6849 6.6697 5.0857 1.7076 2.5256 2.4565 5.5792 2.1278 8.6751-0.40514 3.8152-2.5316 7.3004-5.7515 9.4265-2.3741 1.5677-5.1543 2.3062-8.0058 2.1267-1.7984-0.11321-3.4629-0.57384-5.1267-1.4187l-0.33406-0.16964-1.5361 0.49307c-3.3359 1.0708-4.114 1.3201-4.8469 1.5531-0.41905 0.13318-0.77061 0.24712-0.78123 0.2532-0.01062 0.0061 0.2224-0.7093 0.51782-1.5897zm13.687-1.2837c1.5993-0.11996 3.1402-0.57755 4.5021-1.3369 4.0689-2.2688 6.2469-6.8575 5.4138-11.406-0.35569-1.942-1.1969-3.6947-2.4801-5.1672-0.46881-0.53797-1.1329-1.1603-1.6592-1.5549-1.5205-1.1399-3.2521-1.8495-5.1316-2.1029-0.72793-0.09817-2.0342-0.09804-2.7784 2.72e-4 -0.67234 0.08882-1.4155 0.26176-2.0641 0.48036-3.4811 1.1732-6.1751 4.091-7.0519 7.6378-0.22374 0.90509-0.3179 1.6847-0.3179 2.6321 0 0.94737 0.09416 1.727 0.3179 2.6321 0.2971 1.2019 0.79064 2.3123 1.5085 3.3941l0.22261 0.33546-0.15074 0.44865c-0.08291 0.24676-0.38678 1.1499-0.67528 2.0069-0.5156 1.5317-0.52329 1.558-0.45127 1.5408 0.0403-0.0096 0.68418-0.21368 1.4309-0.45352 2.3496-0.75468 2.6033-0.83501 2.6459-0.8375 0.02286-0.0013 0.16624 0.07693 0.31862 0.17392 0.39224 0.24966 1.2071 0.65601 1.7074 0.85149 0.68232 0.26656 1.2655 0.43326 1.9636 0.56133 0.94521 0.17339 1.8652 0.22862 2.729 0.16383zm2.5212-4.3099c-0.60561-0.0876-1.5513-0.40779-2.8122-0.95212-1.4084-0.60806-2.4273-1.3379-3.6504-2.6149-0.6529-0.68169-1.1591-1.3278-1.7938-2.2895-0.51925-0.78679-0.67722-1.0509-0.88656-1.4823-0.4269-0.87968-0.60585-1.5546-0.60604-2.2857-1.68e-4 -0.65074 0.10326-1.1203 0.36919-1.6762 0.196-0.40969 0.42186-0.71952 0.78772-1.0805 0.44417-0.43828 0.65853-0.51595 1.2738-0.46155 0.20022 0.0177 0.42637 0.03222 0.50256 0.03225 0.0888 2.7e-5 0.17055 0.01959 0.22774 0.05446 0.19143 0.11672 0.2638 0.26838 0.7011 1.4692 0.32922 0.90405 0.46893 1.2789 0.55639 1.4926 0.13708 0.33507 0.1354 0.4162-0.01483 0.71502-0.13224 0.26305-0.35994 0.54762-0.79402 0.99237-0.32324 0.33118-0.34323 0.43348-0.15548 0.79541 0.39545 0.76232 1.0461 1.6301 1.7007 2.2682 0.72586 0.70758 1.4038 1.1768 2.3991 1.6605 0.48959 0.23794 0.62437 0.26843 0.7954 0.17999 0.09394-0.04858 0.59264-0.58682 1.0532-1.1368 0.17896-0.21367 0.34568-0.40534 0.37049-0.42592 0.075-0.06224 0.2738-0.06957 0.43678-0.0161 0.22627 0.07423 0.87606 0.4081 2.4478 1.2577 0.53144 0.28727 0.54943 0.30514 0.56384 0.56027 0.0213 0.37699-0.08743 0.91854-0.2748 1.3686-0.21674 0.52064-0.94914 1.0835-1.8054 1.3874-0.29601 0.10507-1.1589 0.22127-1.3924 0.1875z" fill="#be7e69" stroke-width=".027706"/>
 </g>
</svg>
