<?xml version="1.0" encoding="UTF-8"?>
<!-- Created with Inkscape (http://www.inkscape.org/) -->
<svg version="1.1" viewBox="0 0 26.458 29.446" xmlns="http://www.w3.org/2000/svg">
 <g transform="translate(-46.032 -73.995)">
  <path fill="#333" d="m51.815 103.33c-1.193-0.41022-2.1884-1.7869-2.6682-3.6902-0.16152-0.64068-0.22233-1.1896-0.28799-2.6-0.1675-3.5978-0.63168-5.8798-1.6215-7.9712-0.89998-1.9016-1.2101-3.3148-1.2053-5.4933 2e-3 -0.91253 0.02986-1.3593 0.12271-1.9677 0.31527-2.0655 0.98912-3.7901 2.0287-5.1922 1.3027-1.757 2.9612-2.5006 5.3715-2.4083 1.1455 0.04384 1.7126 0.1449 4.1602 0.7414 0.93294 0.22736 1.6839 0.29886 2.1644 0.20606 0.17006-0.03285 0.88345-0.19835 1.5853-0.36779 1.6791-0.40536 2.4865-0.53983 3.4744-0.57866 2.5755-0.10122 4.2986 0.74201 5.6507 2.7652 0.67923 1.0164 1.1754 2.1685 1.513 3.5132 0.2826 1.1256 0.38826 2.0307 0.38722 3.3169-0.0017 2.1523-0.3682 3.7944-1.2317 5.5192-0.70624 1.4107-1.2049 3.3714-1.4561 5.7246-0.04785 0.44835-0.12379 1.5362-0.16875 2.4174-0.04836 0.94785-0.11879 1.774-0.17244 2.0228-0.51627 2.3942-1.8418 4.0546-3.3123 4.149-0.35313 0.0227-0.45183 7e-3 -0.71143-0.11422-0.78201-0.3646-1.4142-1.232-2.7758-3.8088-1.2564-2.3776-1.9682-3.5072-2.5802-4.0949-0.65666-0.63056-0.9529-0.64289-1.5703-0.06539-0.64412 0.60255-1.2723 1.578-2.4861 3.8606-1.5318 2.8805-2.136 3.729-2.9199 4.1006-0.3569 0.1692-0.82698 0.17487-1.2903 0.0156zm1.0305-1.2591c0.39604-0.3578 1.0714-1.4403 2.0865-3.3445 1.3728-2.5751 2.0128-3.5542 2.7869-4.2635 1.0366-0.94982 2.0651-0.94296 3.106 0.02072 0.72121 0.66773 1.3664 1.6459 2.5946 3.9336 1.5911 2.9635 2.2049 3.851 2.6634 3.851 0.6359 0 1.4441-0.87162 1.8985-2.0474 0.33712-0.87241 0.4435-1.4278 0.50159-2.6188 0.21493-4.4068 0.74557-7.0088 1.8993-9.3134 0.59239-1.1833 0.89864-2.578 0.94991-4.3258 0.06126-2.0888-0.27699-3.826-1.0562-5.4242-1.1836-2.4279-2.6378-3.4234-4.9992-3.4225-1.127 4.25e-4 -1.8043 0.11227-4.2445 0.70093-1.1958 0.28846-1.8387 0.35707-2.4208 0.25835-0.21458-0.03639-0.95937-0.20321-1.6551-0.37071-2.1124-0.50859-2.4501-0.55925-3.7386-0.56084-1.3285-0.0016-1.6005 0.0518-2.4983 0.49076-0.50231 0.24562-0.65627 0.35632-1.0693 0.76879-1.1082 1.1068-1.9545 2.8398-2.3069 4.7241-0.30832 1.6485-0.29764 3.2544 0.03255 4.8934 0.18712 0.92883 0.39737 1.541 0.87487 2.5471 1.0796 2.2749 1.5716 4.6984 1.7362 8.5517 0.03252 0.76146 0.09546 1.5289 0.1451 1.7693 0.31983 1.5484 1.084 2.8904 1.8489 3.2471 0.4034 0.18809 0.60075 0.17322 0.86458-0.0651zm6.0449-11.665c-1.4862-0.21466-2.6748-1.5267-2.7642-3.0514-0.02681-0.45701-0.01945-0.50406 0.09844-0.62955 0.25598-0.27248 0.71208-0.22632 0.8749 0.08855 0.04492 0.08687 0.08168 0.25773 0.08168 0.37969 0 0.8266 0.69742 1.8069 1.4675 2.0626 0.41921 0.13924 1.0517 0.09309 1.4398-0.10505 0.74806-0.38197 1.1519-1.0195 1.251-1.9748 0.03987-0.38432 0.06758-0.4658 0.19598-0.57625 0.23008-0.1979 0.61351-0.15423 0.80207 0.09137 0.09779 0.12737 0.08844 0.85304-0.01619 1.2568-0.28091 1.0841-1.181 2.0615-2.1582 2.3437-0.44868 0.12958-0.89167 0.16937-1.2728 0.11433zm-7.1435-7.6771c-0.34293-0.17349-0.36856-0.4998-0.08511-1.0838 0.19375-0.39922 0.51376-0.71911 0.89314-0.8928 0.56189-0.25724 1.2628-0.11451 1.7295 0.35221 0.23886 0.23886 0.46335 0.66496 0.5126 0.97294 0.04883 0.30538-0.14476 0.51461-0.47613 0.51461-0.239 0-0.56906-0.21647-0.56906-0.37321 0-0.15341-0.15967-0.39171-0.30763-0.45913-0.3947-0.17984-0.72486 0.02072-0.89945 0.54636-0.04983 0.15002-0.13548 0.31338-0.19035 0.36304-0.151 0.13666-0.40601 0.16177-0.6075 0.05983zm14.468-0.03849c-0.07483-0.06957-0.17896-0.2452-0.23142-0.39029-0.13184-0.36465-0.28524-0.541-0.50672-0.58255-0.29166-0.05472-0.64567 0.18777-0.64875 0.44437-6.37e-4 0.0572-0.08726 0.19002-0.19239 0.29515-0.22865 0.22865-0.49802 0.25623-0.72889 0.07462-0.44624-0.35101 0.13864-1.5074 0.90894-1.7971 0.82585-0.31061 1.6337 0.0602 2.081 0.95515 0.24222 0.48473 0.24402 0.78125 0.0059 0.98158-0.22069 0.18569-0.5001 0.19344-0.68765 0.01906z" stroke-width=".056219"/>
 </g>
</svg>
