<svg viewBox="0 0 33 41" fill="none" xmlns="http://www.w3.org/2000/svg">
<path d="M11.3676 7.07872C11.1538 7.82058 10.7641 8.52588 10.508 9.25793C10.0559 10.5503 9.75093 11.8934 9.4901 13.235C8.47338 18.4654 8.5666 23.9158 8.95678 29.1978C9.11303 31.3131 9.40879 33.4191 9.72787 35.5175C9.8329 36.2081 10.4019 37.357 11.2285 36.5238C11.7128 36.0356 11.286 34.8515 11.1893 34.2644C10.8546 32.232 10.6357 30.1604 10.4941 28.1082C10.0187 21.2205 10.2572 14.1193 12.9597 7.678C13.4384 7.83257 14.0741 8.19006 14.5494 7.85762C14.9367 7.58679 15.0499 6.8998 15.2079 6.47943C15.623 5.37467 16.0079 4.25864 16.429 3.15612C16.5956 2.71997 16.9407 2.10188 16.7837 1.63067C16.6546 1.2435 16.2715 1.1183 15.9243 0.987377C15.0681 0.664488 14.1759 0.262799 13.2891 0.0377123C12.2877 -0.216455 12.0774 0.871693 11.8237 1.5762C11.4171 2.70478 10.9796 3.82264 10.5801 4.95398C10.4357 5.36286 10.1152 5.87138 10.2503 6.31594C10.3945 6.79057 10.9333 6.96088 11.3675 7.07872H11.3676ZM13.6185 6.15255L12.0813 5.60775L13.4538 1.8486C13.7761 1.92258 14.6901 2.09822 14.8773 2.37717C15.0185 2.58761 14.6891 3.16223 14.6095 3.37405C14.2696 4.2787 13.8379 5.21184 13.6185 6.15255ZM7.79897 8.30044C6.40799 8.48835 5.15234 8.85385 3.95588 9.6022C3.02459 10.1846 2.24121 10.9391 1.58876 11.8185C-0.466248 14.5886 -0.443739 18.6113 1.17288 21.5705C2.47404 23.9523 4.37626 25.7899 5.17908 28.435C5.99914 31.137 6.32613 33.9517 7.10117 36.6616C7.45776 37.9083 7.81851 39.3184 8.78933 40.2524C9.96015 41.3787 11.7095 41.0895 12.685 39.8759C14.134 38.0734 14.5646 35.5586 15.1875 33.3928C15.3904 32.6873 15.6187 31.9717 15.9673 31.3225C16.0646 31.1412 16.2711 30.7235 16.5281 30.7576C16.7762 30.7906 16.9575 31.1843 17.0597 31.377C17.4195 32.0554 17.6213 32.827 17.8473 33.5562C18.4395 35.4677 18.7997 37.549 19.8669 39.2766C20.5053 40.3103 21.5011 41.116 22.787 40.9498C24.1616 40.7721 24.8904 39.5172 25.3562 38.3505C26.4133 35.7024 26.6715 32.7654 27.3644 30.015C27.7275 28.5738 28.1566 27.1166 28.9045 25.82C29.6868 24.4639 30.8145 23.3191 31.6027 21.9519C32.9683 19.5828 33.4727 16.4977 32.4812 13.8888C32.1733 13.0787 31.7703 12.2911 31.2397 11.6006C30.5641 10.7215 29.7266 9.99805 28.7712 9.43233C27.5807 8.72724 26.1506 8.31183 24.7634 8.2781C22.4572 8.22204 20.4933 9.14587 18.9533 10.8379C18.4218 11.4217 17.9776 12.0764 17.4835 12.6902C17.2494 12.981 16.9976 13.3628 16.643 13.5193C16.2174 13.7071 15.7126 12.9673 15.498 12.6902C14.9589 11.9936 14.4573 11.2504 13.8373 10.6199C13.5207 10.298 13.2286 9.98051 12.7401 10.0264C12.0309 10.093 11.8845 10.8922 12.2676 11.3827C12.6229 11.8375 13.0594 12.2328 13.4173 12.6902C14.1351 13.6078 14.845 14.9047 16.0891 15.1681C18.1036 15.5946 19.175 12.9651 20.3167 11.8185C20.8813 11.2514 21.4465 10.7176 22.1831 10.3742C24.4367 9.32358 27.1788 10.0834 28.9908 11.6239C31.5206 13.7747 31.9975 17.6087 30.5139 20.4809C29.6051 22.2401 28.1544 23.6421 27.2482 25.3841C26.2506 27.302 25.7988 29.4485 25.3357 31.5404C24.8931 33.5402 24.5967 35.5978 23.9019 37.5333C23.6883 38.1284 23.2956 39.2054 22.5674 39.3187C21.4754 39.4886 20.894 37.6881 20.591 36.934C19.8447 35.0768 19.5413 33.0709 18.7902 31.2135C18.4458 30.362 17.9379 29.3785 16.9675 29.1303C15.7982 28.8311 14.9041 29.6871 14.4359 30.6687C13.4626 32.7094 13.1362 34.9897 12.3433 37.0974C12.0506 37.8754 11.1159 40.0646 9.99584 39.1015C9.39692 38.5866 9.1743 37.7602 8.93361 37.0429C8.36912 35.3609 8.10252 33.5946 7.72079 31.8673C7.23963 29.6904 6.82546 27.369 5.75066 25.3841C4.96321 23.93 3.78536 22.7137 2.92396 21.2981C1.6004 19.1231 1.20269 16.4911 2.1997 14.1067C2.94982 12.3127 4.48216 10.9242 6.31663 10.2763C6.86186 10.0838 7.44057 9.95583 8.01857 9.91655C8.4356 9.88821 8.90067 9.95642 9.19055 9.5791C9.9483 8.59273 8.50703 8.20477 7.79897 8.30044ZM21.9086 12.8347C21.29 13.0273 21.1256 13.8476 21.6365 14.2467C21.9536 14.4944 22.3629 14.4003 22.7321 14.4575C23.2954 14.5448 23.8839 14.7193 24.3791 15.0037C26.2952 16.1041 27.1514 18.3192 26.6491 20.4264C26.4783 21.1427 26.0214 21.7086 25.7983 22.3877C25.5847 23.0383 26.0676 23.579 26.7398 23.4651C27.1785 23.3908 27.3896 22.9007 27.5754 22.5512C28.0576 21.6443 28.3606 20.6932 28.3878 19.6637C28.4634 16.7872 27.069 14.0799 24.1595 13.1261C23.5368 12.922 22.5604 12.6319 21.9086 12.8347V12.8347ZM24.9831 23.8333C23.9333 24.0814 24.337 25.6531 25.3674 25.4095C26.3678 25.173 25.9958 23.5939 24.9831 23.8333Z" fill="#333"/>
</svg>
