<?xml version="1.0" encoding="UTF-8" standalone="no"?>
<!-- Created with Inkscape (http://www.inkscape.org/) -->

<svg
   viewBox="0 0 68.317108 27.516623"
   version="1.1"
   xmlns="http://www.w3.org/2000/svg"
>
  <g
     transform="translate(-33.666912,-119.80952)">
    <path
      style="fill:none;fill-opacity:1;stroke:#333;stroke-width:1.05833;stroke-miterlimit:4;stroke-dasharray:none;stroke-opacity:1"
      d="m 39.810345,146.54997 c -0.6097,-0.30032 -1.245094,-1.27553 -1.618674,-2.48431 -0.300368,-0.9719 -1.017888,-4.42938 -1.321161,-6.36619 -0.151727,-0.96893 -0.275393,-1.28847 -0.735174,-1.8995 -0.304026,-0.40406 -0.659306,-0.98959 -0.789511,-1.30123 -0.31631,-0.75703 -0.440266,-2.50902 -0.223891,-3.1646 0.147126,-0.44583 0.130959,-0.58276 -0.118987,-1.00685 -0.206302,-0.35005 -0.377736,-1.18608 -0.597659,-2.91456 -0.363761,-2.85896 -0.301118,-3.2965 0.614131,-4.28945 0.771744,-0.83723 1.315388,-0.98519 4.994223,-1.35931 18.688811,-1.90049 36.934841,-1.90049 55.623649,0 3.678838,0.37412 4.222476,0.52208 4.994219,1.35931 0.91525,0.99295 0.9779,1.43049 0.61414,4.28945 -0.21993,1.72848 -0.39136,2.56451 -0.59766,2.91456 -0.24992,0.42409 -0.26612,0.56102 -0.11899,1.00685 0.21637,0.65558 0.0924,2.40757 -0.22392,3.1646 -0.13019,0.31164 -0.483777,0.89717 -0.785718,1.30123 -0.504129,0.67458 -0.575911,0.89521 -0.87854,2.70035 -0.524554,3.12889 -1.147735,5.67884 -1.626781,6.65648 -0.916717,1.87085 -2.263618,2.11685 -3.703931,0.67656 l -0.653241,-0.65325 -0.518095,0.39517 c -0.626421,0.4778 -1.725579,0.63001 -2.433491,0.337 -0.26121,-0.10803 -0.987871,-0.61059 -1.614811,-1.11663 l -1.139882,-0.92007 -0.825872,0.31796 c -0.603605,0.23233 -1.260071,0.33671 -2.439249,0.38759 -1.7449,0.0752 -2.80806,-0.0821 -3.805778,-0.56369 l -0.613961,-0.29634 -0.448304,0.51057 c -1.474403,1.67927 -8.198867,1.8984 -10.497389,0.34209 l -0.494587,-0.33487 -0.496771,0.33551 c -2.3035,1.55583 -9.020855,1.33648 -10.495205,-0.34273 l -0.448302,-0.51057 -0.613968,0.29634 c -0.997715,0.48154 -2.060875,0.63901 -3.805778,0.56369 -1.179172,-0.0508 -1.835636,-0.15531 -2.439244,-0.38759 l -0.825872,-0.31796 -1.139885,0.92007 c -0.626939,0.50604 -1.353603,1.00853 -1.614813,1.11663 -0.709658,0.29375 -1.807017,0.14082 -2.436829,-0.33955 L 42.987346,145.175 42.3987,145.78158 c -0.586221,0.60406 -1.340617,1.02159 -1.834355,1.01529 -0.142729,-0.002 -0.482028,-0.11286 -0.75401,-0.24682 z m 2.022353,-1.19093 0.713108,-0.71311 -0.489954,-0.99783 c -0.484514,-0.98674 -0.950131,-2.8337 -0.950131,-3.76887 0,-0.5005 -0.257183,-0.89157 -1.372724,-2.08744 -0.673329,-0.7218 -1.936148,-1.76686 -2.13503,-1.76686 -0.331694,0 0.0061,2.53439 0.8344,6.26129 0.588265,2.64671 1.26924,3.78592 2.263092,3.78592 0.313624,0 0.609932,-0.18581 1.137239,-0.7131 z m 53.83305,0.49478 c 0.795026,-0.55686 1.184157,-1.65489 1.948002,-5.49681 0.558686,-2.81006 0.711059,-4.33208 0.433685,-4.33208 -0.259486,0 -1.867979,1.43926 -2.685674,2.40313 -0.65137,0.76778 -0.816567,1.06518 -0.816567,1.47001 0,0.93181 -0.452399,2.74117 -0.939877,3.75903 l -0.482205,1.00682 0.704109,0.70411 c 0.760756,0.76075 1.25828,0.89221 1.838527,0.48579 z m -49.837216,-0.65444 c 0.325606,-0.15963 0.940924,-0.60198 1.367368,-0.98288 l 0.775352,-0.69257 0.02034,-2.7731 0.02033,-2.77312 -1.144061,-1.56986 c -0.629232,-0.86344 -1.472361,-1.92909 -1.873617,-2.36813 -1.266882,-1.38618 -2.446169,-1.72369 -3.073139,-0.87957 -0.289053,0.38914 -0.304831,0.57859 -0.291054,3.49467 0.01551,3.2691 0.191889,4.69125 0.772429,6.22542 0.485985,1.2843 1.780492,2.60742 2.552504,2.60892 0.154904,2.8e-4 0.548059,-0.13015 0.87367,-0.28978 z m 45.676595,-0.0285 c 0.31189,-0.17539 0.794502,-0.65037 1.072475,-1.05571 1.084154,-1.58089 1.457952,-3.5497 1.457952,-7.67909 0,-2.6823 -0.01957,-2.89124 -0.305617,-3.27627 -0.6271,-0.84384 -1.806386,-0.50622 -3.073143,0.87981 -0.401256,0.43904 -1.244383,1.50468 -1.873618,2.36809 l -1.144058,1.56989 0.02034,2.77312 0.02034,2.7731 0.775352,0.69145 c 0.821162,0.73233 1.761367,1.27401 2.211644,1.27419 0.149261,7e-5 0.526577,-0.14337 0.838462,-0.31858 z m -25.640701,-0.6764 c 1.468249,-0.47471 1.597005,-0.65261 1.597005,-2.20656 0,-1.62944 -0.340268,-4.25369 -0.736565,-5.68067 -0.714537,-2.57287 -1.888096,-4.14962 -3.419969,-4.59493 -3.416136,-0.9931 -5.683367,2.36057 -6.18166,9.14384 -0.17984,2.44824 -0.148143,2.57602 0.752896,3.0357 1.091144,0.55665 2.202597,0.71235 4.707308,0.6594 1.877725,-0.0397 2.514352,-0.10905 3.280985,-0.35678 z m 10.354668,0.20259 c 1.143266,-0.24225 2.091876,-0.69501 2.309863,-1.10233 0.1683,-0.31451 -0.03485,-3.87799 -0.301908,-5.29605 -0.889267,-4.72155 -2.925636,-7.00911 -5.656302,-6.35404 -2.546617,0.61092 -4.082193,4.00318 -4.336906,9.5807 -0.08564,1.87506 -0.07827,1.94364 0.245829,2.28863 0.3442,0.36639 1.213963,0.71362 2.341784,0.93489 1.048981,0.2059 4.330871,0.17438 5.397645,-0.0519 z m -22.318363,-0.81629 c 1.105828,-0.17946 1.963467,-0.58787 2.294131,-1.09251 0.200837,-0.30653 0.224349,-0.58848 0.141076,-1.69175 -0.308845,-4.0912 -1.669525,-7.69281 -3.201095,-8.47303 -0.500282,-0.25485 -0.642562,-0.26809 -1.220575,-0.11362 -0.359856,0.0963 -0.825801,0.30915 -1.035435,0.47313 -1.32439,1.03588 -2.097655,3.59596 -2.294015,7.59487 -0.09725,1.98071 -0.0942,2.00946 0.251955,2.3789 0.824868,0.88037 2.946619,1.26745 5.063966,0.92389 z M 85.59008,143.6665 c 0.40043,-0.13421 0.908253,-0.4136 1.12849,-0.62096 0.372809,-0.35099 0.400348,-0.45798 0.399235,-1.55105 -0.0028,-2.51253 -0.484972,-5.36992 -1.158344,-6.86093 -0.870249,-1.92697 -2.456888,-2.6958 -3.779137,-1.83129 -1.291952,0.84473 -2.585673,4.58965 -2.865334,8.29428 -0.0833,1.10327 -0.05979,1.38521 0.141076,1.69174 0.310955,0.47458 1.18949,0.91878 2.161291,1.09275 1.058569,0.18962 3.095006,0.0796 3.972731,-0.21454 z m -28.01314,-8.44405 c 0.721641,-1.99436 1.893475,-3.34872 3.317291,-3.83402 0.856963,-0.29209 2.325316,-0.2092 3.145326,0.17743 1.685796,0.79503 2.710611,2.42526 3.489565,5.55105 l 0.326579,1.31051 0.110599,-0.65526 c 0.161437,-0.9566 0.784576,-2.87615 1.201452,-3.70105 0.520528,-1.03001 1.665146,-2.18014 2.547357,-2.55968 0.606879,-0.26105 0.949666,-0.31008 1.849528,-0.26451 1.222031,0.0618 1.858452,0.30872 2.727395,1.05767 1.038681,0.89523 1.943929,2.80012 2.425352,5.10354 0.117182,0.56062 0.246133,0.92099 0.286618,0.80086 0.04044,-0.12023 0.21164,-0.76247 0.380372,-1.42744 0.599345,-2.36207 1.781626,-4.31998 2.888377,-4.78332 2.020982,-0.84605 4.040933,0.78548 4.832751,3.90344 0.140949,0.55503 0.316265,0.98997 0.389589,0.96659 0.07333,-0.0229 0.7231,-0.82653 1.443945,-1.78473 1.442065,-1.91685 2.388673,-2.74234 3.431721,-2.99254 0.873751,-0.20971 1.612116,0.0653 1.954715,0.72782 0.31297,0.60521 0.56102,2.86324 0.462788,4.21272 l -0.0786,1.07947 1.191869,-1.17256 c 0.655529,-0.64493 1.334994,-1.24536 1.509921,-1.33433 0.404006,-0.20538 0.960954,-0.20767 1.163845,-0.005 0.184466,0.18454 0.620493,-0.36695 1.06549,-1.34754 0.383315,-0.84463 0.404675,-2.57407 0.03721,-3.0127 -0.356155,-0.42514 -1.568296,-0.7002 -4.543782,-1.03108 -6.370406,-0.70838 -13.124212,-0.94114 -27.308768,-0.94114 -14.184556,0 -20.938365,0.23284 -27.308769,0.94114 -2.975486,0.33088 -4.187624,0.60594 -4.543779,1.03108 -0.367456,0.43863 -0.346092,2.16807 0.03721,3.0127 0.444999,0.98059 0.881021,1.53203 1.065495,1.34754 0.202896,-0.20284 0.759839,-0.20056 1.163842,0.005 0.174935,0.089 0.859103,0.6941 1.520384,1.34473 l 1.202332,1.18298 -0.08907,-1.0899 c -0.109455,-1.33938 0.133374,-3.60628 0.452333,-4.22311 0.339119,-0.65578 1.091726,-0.9421 1.924868,-0.73232 1.285109,0.32359 2.05435,1.03047 3.939152,3.61971 0.484557,0.66567 0.930215,1.20901 0.990349,1.20746 0.06014,-0.002 0.224654,-0.45696 0.365604,-1.01199 0.791818,-3.11796 2.811771,-4.74949 4.832751,-3.90344 0.682391,0.28569 1.531654,1.30144 2.076485,2.48358 0.439829,0.95433 0.632956,1.53313 1.097902,3.29035 l 0.173384,0.65526 0.205132,-0.99354 c 0.112836,-0.54643 0.403463,-1.54161 0.645864,-2.21151 z M 36.676348,130.1307 c 1.879381,-0.4895 6.36569,-0.92081 13.238879,-1.27276 5.006841,-0.25638 30.813623,-0.25638 35.820464,0 6.873192,0.35195 11.359496,0.78326 13.238881,1.27276 0.454771,0.11845 0.846467,0.2153 0.87044,0.2153 0.292338,0 0.961488,-3.6312 0.961488,-5.21761 0,-0.7398 -0.50401,-1.56818 -1.201053,-1.97407 -0.54888,-0.3196 -1.031956,-0.40231 -4.259388,-0.72928 -18.672453,-1.89158 -36.368744,-1.89158 -55.0412,0 -3.227432,0.32697 -3.710507,0.40968 -4.259388,0.72928 -0.697048,0.40589 -1.20105,1.23427 -1.20105,1.97407 0,1.58641 0.669145,5.21761 0.961485,5.21761 0.02389,0 0.415672,-0.0969 0.870442,-0.2153 z"
    />
  </g>
</svg>
