<?xml version="1.0" encoding="UTF-8" standalone="no"?>
<!-- Created with Inkscape (http://www.inkscape.org/) -->

<svg
   viewBox="0 0 26.45833 29.42617"
   version="1.1"
   id="svg5218"
   sodipodi:docname="speciality_impl.svg"
   inkscape:version="1.1 (c4e8f9e, 2021-05-24)"
   xmlns:inkscape="http://www.inkscape.org/namespaces/inkscape"
   xmlns:sodipodi="http://sodipodi.sourceforge.net/DTD/sodipodi-0.dtd"
   xmlns="http://www.w3.org/2000/svg"
   xmlns:svg="http://www.w3.org/2000/svg">
  <sodipodi:namedview
     id="namedview5220"
     pagecolor="#ffffff"
     bordercolor="#666666"
     borderopacity="1.0"
     inkscape:pageshadow="2"
     inkscape:pageopacity="0.0"
     inkscape:pagecheckerboard="0"
     inkscape:document-units="mm"
     showgrid="false"
     inkscape:zoom="0.49353255"
     inkscape:cx="336.35066"
     inkscape:cy="417.39902"
     inkscape:window-width="1440"
     inkscape:window-height="776"
     inkscape:window-x="0"
     inkscape:window-y="25"
     inkscape:window-maximized="0"
     inkscape:current-layer="layer1"
     fit-margin-top="0"
     fit-margin-left="0"
     fit-margin-right="0"
     fit-margin-bottom="0" />
  <defs
     id="defs5215" />
  <g
     inkscape:label="Camada 1"
     inkscape:groupmode="layer"
     id="layer1"
     transform="translate(-28.2765,-19.644556)">
    <path
       style="fill:#333;stroke-width:0.0438823"
       d="m 40.985202,49.030174 c -0.468368,-0.0782 -1.085303,-0.380842 -1.456169,-0.714339 -0.156618,-0.140837 -0.464189,-0.551946 -0.573096,-0.766018 -0.06609,-0.129914 -0.117226,-0.182276 -0.161434,-0.165312 -0.503628,0.19326 -1.076815,0.206836 -1.430351,0.03387 -0.278286,-0.136145 -0.551617,-0.417498 -0.689428,-0.709657 -0.09485,-0.201089 -0.113774,-0.303582 -0.113416,-0.614354 5.14e-4,-0.443537 0.08882,-0.674433 0.377869,-0.988019 0.216867,-0.235272 0.454759,-0.366892 0.905261,-0.500856 0.246006,-0.07315 0.318147,-0.112992 0.318147,-0.175683 0,-0.08515 -0.167947,-0.931546 -0.189025,-0.952626 -0.0067,-0.0067 -0.169339,0.03817 -0.361386,0.09975 -0.283176,0.09079 -0.411597,0.108529 -0.679407,0.09382 -0.780983,-0.0429 -1.358738,-0.64123 -1.364663,-1.413267 -0.0027,-0.353939 0.06117,-0.581578 0.2364,-0.842291 0.218855,-0.325626 0.492325,-0.504543 1.031156,-0.674632 0.259171,-0.08181 0.486347,-0.160977 0.504837,-0.175929 0.02401,-0.01941 -0.647938,-3.46695 -0.690163,-3.541019 -0.0028,-0.005 -0.280836,-0.05061 -0.617777,-0.101406 -2.671675,-0.402777 -5.042967,-1.333021 -6.200235,-2.432312 -0.904109,-0.858816 -1.240425,-1.780748 -1.481624,-4.061532 -0.08836,-0.835503 -0.100208,-2.577034 -0.02255,-3.313119 0.197745,-1.874238 0.67151,-3.385284 1.417142,-4.519885 0.286818,-0.43644 1.038661,-1.195845 1.510573,-1.525766 2.067912,-1.445707 5.012935,-1.824372 7.591902,-0.97615 0.907334,0.298422 1.795819,0.764937 2.591568,1.36075 0.03867,0.02896 0.07794,0.02896 0.116617,0 0.41197,-0.30846 1.122407,-0.743563 1.543399,-0.945247 3.111993,-1.490857 7.046638,-1.014292 9.32376,1.129296 0.522489,0.491849 0.908265,1.013244 1.227656,1.659235 1.10513,2.2352 1.386621,5.557203 0.746089,8.804882 -0.229465,1.163452 -0.567982,1.799553 -1.319874,2.480145 -1.157089,1.047366 -3.474826,1.932011 -6.13422,2.341339 -0.299655,0.04612 -0.558521,0.09935 -0.575257,0.118279 -0.03063,0.03464 -0.130564,0.503248 -0.130564,0.612209 0,0.04192 0.07153,0.05863 0.252323,0.05894 0.476178,8.29e-4 0.993761,0.349643 1.22716,0.827067 0.103175,0.211047 0.121079,0.302717 0.121211,0.620622 1.66e-4,0.424244 -0.08154,0.655683 -0.332742,0.942424 -0.233746,0.266812 -0.482453,0.397618 -1.219103,0.641176 -0.376828,0.12459 -0.701482,0.24139 -0.721451,0.259556 -0.01997,0.01816 -0.08407,0.257602 -0.142443,0.532083 -0.05837,0.274481 -0.115791,0.540807 -0.127593,0.591837 -0.01974,0.08536 9.95e-4,0.09458 0.258408,0.115244 0.357889,0.02873 0.629501,0.164452 0.898676,0.449065 0.528599,0.558915 0.533079,1.408232 0.01038,1.967043 -0.251232,0.268585 -0.445484,0.367054 -1.190238,0.603341 -0.325826,0.103375 -0.614068,0.209366 -0.640538,0.235535 -0.02647,0.02617 -0.102716,0.32404 -0.169434,0.661934 -0.14497,0.734192 -0.278381,1.157596 -0.463867,1.472184 -0.615036,1.043101 -1.811584,1.598303 -3.012488,1.397799 z m 0.839241,-0.964383 c 0.140331,-0.02594 0.366113,-0.09912 0.501735,-0.162621 0.321151,-0.150363 0.764167,-0.589303 0.903545,-0.895226 0.09126,-0.200316 0.286512,-0.959722 0.286512,-1.114363 0,-0.0499 -3.578062,1.091932 -3.658772,1.16759 -0.05573,0.05224 0.114251,0.305989 0.356309,0.531903 0.244177,0.227887 0.550973,0.386682 0.888933,0.460097 0.312588,0.06791 0.413154,0.06966 0.721738,0.01262 z M 41.223736,45.56532 c 1.779783,-0.580599 3.507296,-1.144962 3.838916,-1.25414 0.62094,-0.20443 0.746359,-0.286149 0.806415,-0.525435 0.03635,-0.14483 -0.05935,-0.396594 -0.189749,-0.499163 -0.210322,-0.16544 0.236165,-0.295208 -5.906271,1.716614 -2.054351,0.672857 -2.144954,0.707093 -2.226866,0.84143 -0.04696,0.07702 -0.08546,0.196946 -0.08555,0.266503 -3.15e-4,0.244648 0.229416,0.491146 0.471925,0.506363 0.03036,0.0019 1.511394,-0.471571 3.29118,-1.052172 z m 0.47138,-2.218158 c 1.375713,-0.449363 2.506261,-0.82144 2.51233,-0.826837 0.02708,-0.02408 0.243567,-1.122749 0.224909,-1.141408 -0.01981,-0.01981 -5.462068,1.742885 -5.500861,1.78168 -0.01012,0.01012 0.01974,0.195495 0.06636,0.41194 0.12267,0.569531 0.128614,0.590975 0.163893,0.591328 0.01764,1.66e-4 1.157659,-0.367338 2.533371,-0.816703 z m 0.263295,-2.218253 c 3.478456,-1.137277 4.722249,-1.561475 4.798957,-1.636686 0.06798,-0.06666 0.111343,-0.17072 0.12625,-0.302979 0.02093,-0.185654 0.01056,-0.213586 -0.132066,-0.356224 -0.120114,-0.120114 -0.190355,-0.154774 -0.313658,-0.154774 -0.150959,0 -9.480207,3.02875 -9.643647,3.13082 -0.135085,0.08436 -0.226548,0.307348 -0.195014,0.475442 0.04692,0.250101 0.344865,0.457537 0.575999,0.401022 0.04827,-0.01181 2.200701,-0.712281 4.783179,-1.556621 z M 41.739,39.139926 c 1.834282,-0.597953 3.357078,-1.10936 3.383992,-1.136463 0.05317,-0.05354 0.212061,-0.812203 0.177373,-0.846892 -0.01168,-0.01168 -0.264837,-1.1e-5 -0.562587,0.02591 -0.297752,0.02592 -1.148588,0.06972 -1.89075,0.09732 -1.386873,0.05158 -3.359888,0.0097 -4.589513,-0.09732 -0.297751,-0.02592 -0.549693,-0.03881 -0.55987,-0.02863 -0.04039,0.04039 0.613959,3.10691 0.659429,3.090338 0.02578,-0.0094 1.547641,-0.506315 3.381926,-1.104265 z m 2.040529,-2.87648 c 1.760891,-0.108821 3.099755,-0.27993 4.3219,-0.552344 2.431895,-0.542068 4.147746,-1.411516 4.846052,-2.455571 0.331517,-0.49566 0.496667,-1.119189 0.713944,-2.695523 0.0784,-0.568808 0.07827,-3.118762 -1.65e-4,-3.686119 -0.229809,-1.66165 -0.629061,-2.878311 -1.239799,-3.778056 -0.709116,-1.044677 -2.030495,-1.87488 -3.581823,-2.250406 -1.375651,-0.333001 -3.06954,-0.25123 -4.489628,0.216732 -0.731716,0.241122 -1.989898,0.916913 -2.050418,1.101315 -0.02358,0.07184 0.756806,0.692695 1.469848,1.169382 1.139022,0.761464 2.267457,1.21484 3.025162,1.215431 0.462267,3.48e-4 0.724377,0.383751 0.510216,0.746297 -0.100027,0.169332 -0.231225,0.219051 -0.576254,0.218374 -1.397062,-0.0027 -3.347753,-1.030589 -5.404105,-2.847511 -1.129309,-0.99781 -2.307393,-1.593728 -3.754286,-1.899053 -0.433876,-0.09156 -0.593682,-0.101589 -1.579765,-0.09917 -1.185765,0.0029 -1.507162,0.04563 -2.325766,0.309145 -0.982552,0.316296 -2.237717,1.094555 -2.778344,1.722699 -0.745376,0.866038 -1.232886,2.11821 -1.507393,3.871748 -0.08781,0.560939 -0.09903,0.795409 -0.09951,2.080311 -4.81e-4,1.258193 0.01236,1.542906 0.09785,2.170842 0.277389,2.037347 0.594581,2.668266 1.718882,3.418989 1.676513,1.119445 4.38003,1.798375 8.042122,2.019603 0.865932,0.05231 3.811859,0.05414 4.641279,0.0029 z M 30.833023,29.826992 c -0.17663,-0.121737 -0.208552,-0.187986 -0.323428,-0.67122 -0.154009,-0.647852 -0.201954,-1.05875 -0.201954,-1.730781 0,-1.518429 0.455171,-2.674503 1.445765,-3.672044 0.487275,-0.490692 0.855902,-0.743826 1.127839,-0.774477 0.170475,-0.01922 0.2035,-0.0064 0.343388,0.133514 0.123889,0.123889 0.154774,0.188727 0.154774,0.324927 0,0.21766 -0.08561,0.33685 -0.37482,0.521857 -0.55884,0.357486 -1.02762,0.906799 -1.336676,1.566307 -0.442913,0.945152 -0.512229,2.190488 -0.193295,3.47274 0.0903,0.363053 0.09991,0.459169 0.05843,0.584837 -0.09092,0.275483 -0.465261,0.406145 -0.700025,0.24434 z m 3.464538,-6.899141 c -0.173862,-0.173863 -0.180817,-0.460784 -0.01592,-0.656752 0.346402,-0.411676 0.999569,-0.0016 0.791321,0.496781 -0.08215,0.196609 -0.227127,0.288242 -0.456047,0.288242 -0.152686,0 -0.216857,-0.02577 -0.319354,-0.128271 z"
       id="path5700" />
  </g>
</svg>
