<svg viewBox="0 0 433 434" fill="none" xmlns="http://www.w3.org/2000/svg" xmlns:xlink="http://www.w3.org/1999/xlink">
<rect y="0.154785" width="432.924" height="432.924" fill="url(#pattern0)"/>
<path d="M99.9902 431.783C90.1748 429.14 81.9676 422.496 78.1107 414.072C74.4971 406.179 74.1473 400.821 74.6864 361.637C75.541 299.527 79.6116 268.794 91.3374 235.925C99.7128 212.445 111.792 193.63 131.489 173.38C142.378 162.186 143.19 161.976 150.158 168.567L154.777 172.935L157.381 170.469C164.478 163.751 177.719 145.854 184.426 133.918L188.375 126.89L186.208 121.987C184.043 117.089 184.036 117.083 178.058 115.185C153.014 107.236 138.601 92.8906 136.164 73.4912C135.404 67.4382 136.254 50.1129 137.778 40.6105C140.295 24.9134 147.062 6.01358 151.504 2.27656C154.995 -0.661428 162.881 -0.778895 166.114 2.05898C168.218 3.90625 168.367 4.74758 171.237 31.0198C172.863 45.9017 174.389 59.256 174.627 60.696C175.042 63.1998 175.727 63.5982 190.378 69.8533L205.695 76.3931L211.08 75.4553C215.024 74.7685 217.908 74.7685 221.852 75.4553L227.237 76.3931L242.554 69.8533C257.205 63.5981 257.89 63.1998 258.305 60.696C258.543 59.2562 260.069 45.9021 261.695 31.0198C264.565 4.74761 264.714 3.90633 266.818 2.05898C268.539 0.548412 270.008 0.15646 273.947 0.15646C280.725 0.15646 283.028 2.20245 287.045 11.7893C293.371 26.8889 296.808 45.1583 296.946 64.4205C297.055 79.6131 294.92 86.312 286.914 95.8953C280.319 103.788 268.657 110.81 254.875 115.185C248.897 117.082 248.89 117.088 246.725 121.987L244.558 126.89L248.507 133.917C255.214 145.854 268.455 163.75 275.552 170.469L278.156 172.935L282.774 168.567C289.743 161.976 290.555 162.185 301.444 173.38C316.818 189.186 325.401 200.993 333.967 218.116C339.724 229.626 346.503 249.197 349.559 263.128C353.111 279.326 353.126 279.594 350.627 282.094C345.856 286.864 340.856 283.745 339.158 274.94C331.821 236.889 318.591 209.731 295.59 185.498L289.724 179.318L260.558 208.449L266.935 215.706C282.491 233.41 290.184 248.327 295.845 271.765C302.083 297.588 304.361 326.671 304.393 380.901C304.408 406.819 304.626 408.147 309.734 413.532C313.232 417.219 319.97 420.386 324.339 420.396C333.382 420.418 342.066 414.202 344.516 405.955C345.587 402.348 345.837 396.796 345.826 376.916C345.811 352.907 344.746 319.515 343.661 309.054C343.155 304.179 343.269 303.672 345.339 301.602C348.173 298.768 352.167 298.954 354.394 302.023C356.614 305.084 357.618 320.979 358.237 362.905C358.796 400.778 358.436 406.178 354.824 414.07C349.039 426.704 333.801 434.705 319.907 432.403C308.797 430.562 299.615 423.705 294.784 413.639L292.146 408.143L291.621 369.669C290.953 320.787 289.799 304.853 285.312 282.574C279.83 255.351 271.393 238.889 252.482 218.518C247.276 212.91 245.217 210.076 245.217 208.52C245.217 207.04 246.708 204.785 249.891 201.448L254.564 196.548L249.679 191.146C238.192 178.444 226.717 162.869 220.322 151.3C218.587 148.161 216.852 145.593 216.467 145.593C216.082 145.593 214.347 148.161 212.612 151.3C206.217 162.87 194.742 178.444 183.255 191.146L178.37 196.548L183.044 201.448C186.227 204.785 187.718 207.04 187.718 208.52C187.718 210.076 185.658 212.91 180.453 218.518C161.541 238.891 153.104 255.352 147.622 282.574C143.135 304.854 141.981 320.787 141.314 369.669L140.788 408.143L138.15 413.639C133.536 423.252 124.471 430.303 114.249 432.229C108.362 433.338 105.432 433.246 99.9898 431.781L99.9902 431.783ZM116.273 418.418C120.885 416.27 125.534 411.558 127.365 407.177C128.256 405.046 128.531 398.896 128.542 380.902C128.574 326.672 130.851 297.59 137.089 271.766C142.75 248.328 150.443 233.409 165.999 215.707L172.376 208.45L143.21 179.319L137.344 185.499C113.329 210.799 100.252 238.523 93.1487 279.196C88.9669 303.144 87.9162 318.108 87.3587 361.658C86.9114 396.613 87.0059 401.069 88.2881 405.479C91.7539 417.401 105.153 423.597 116.272 418.419L116.273 418.418ZM183.292 171.577C189.294 164.194 197.9 151.693 202.461 143.737L204.737 139.765L197.911 136.282L196.751 138.19C188.98 150.973 186.48 154.768 181.286 161.66C177.958 166.079 172.702 172.515 169.607 175.963L163.98 182.233L169.36 187.784L173.254 183.46C175.396 181.082 179.913 175.735 183.292 171.577L183.292 171.577ZM267.833 181.172C267.27 180.44 264.851 177.68 262.456 175.039C260.061 172.398 255.288 166.5 251.849 161.933C246.482 154.805 243.96 150.982 236.184 138.19L235.024 136.282L228.197 139.765L230.474 143.737C237.367 155.763 248.336 170.713 259.592 183.42L263.397 187.716L266.126 185.11C268.387 182.951 268.68 182.275 267.833 181.172L267.833 181.172ZM225.345 126.674C232.77 123.173 236.93 116.672 236.93 108.568C236.93 94.4057 224.274 84.6161 210.967 88.4846C196.038 92.8245 191.012 111.044 201.536 122.666C204.534 125.977 211.229 128.668 216.467 128.668C219.594 128.668 222.503 128.015 225.345 126.674V126.674ZM212.239 112.618C209.998 110.378 210.004 105.762 212.25 103.73C216.15 100.2 222.386 102.888 222.386 108.099C222.386 111.655 219.856 114.31 216.467 114.31C215.057 114.31 213.178 113.558 212.239 112.619V112.618ZM183.821 101.98C184.104 101.244 184.335 100.063 184.335 99.3543C184.335 97.5848 188.327 89.7532 190.317 87.6194C191.212 86.6593 191.945 85.5093 191.945 85.064C191.945 84.6186 185.825 81.6413 178.346 78.4479C166.324 73.3144 164.614 72.3367 163.597 70.0108C162.965 68.564 161.43 57.6773 160.188 45.8181C158.946 33.9589 157.655 22.9243 157.32 21.2965C156.726 18.4131 156.651 18.5212 154.409 25.5071C150.92 36.3788 148.734 50.588 148.617 63.1521C148.528 72.7044 148.764 74.7811 150.418 79.0038C153.967 88.058 163.012 96.0135 175.248 100.841C182.41 103.667 183.137 103.763 183.822 101.979L183.821 101.98ZM257.685 100.841C269.921 96.0137 278.967 88.0585 282.515 79.004C284.17 74.7813 284.406 72.7045 284.317 63.1522C284.199 50.5878 282.013 36.3789 278.524 25.5073C276.283 18.5211 276.208 18.4131 275.614 21.2967C275.278 22.9244 273.988 33.959 272.745 45.8182C271.503 57.6775 269.972 68.5582 269.343 69.9978C268.163 72.696 268.838 72.3506 243.604 83.1703L239.878 84.768L242.063 87.0666C244.487 89.6149 248.598 97.346 248.598 99.3544C248.598 101.438 249.551 103.319 250.591 103.288C251.123 103.272 254.315 102.171 257.685 100.841L257.685 100.841Z" fill="#333"/>
</svg>
