<?xml version="1.0" encoding="UTF-8"?>
<!-- Created with Inkscape (http://www.inkscape.org/) -->
<svg version="1.1" viewBox="0 0 26.458 26.492" xmlns="http://www.w3.org/2000/svg">
 <g transform="translate(-50.248 -51.816)">
  <path d="m50.729 78.235c-0.20827-0.09071-0.42581-0.35508-0.46294-0.56258-0.0164-0.09165-0.02315-3.6866-0.01499-7.9888 0.0148-7.8082 0.01502-7.8224 0.12151-7.965 0.259-0.34689 0.28944-0.35465 1.4621-0.37284 0.65012-0.01009 1.1423 0.0048 1.2542 0.03793 0.24468 0.07245 0.36755 0.21252 0.69187 0.78875 0.14966 0.2659 0.39257 0.67999 0.5398 0.9202 0.50459 0.82326 0.49499 0.75533 0.50157 3.5474 0.0056 2.3826 0.0375 3.055 0.20852 4.398 0.42539 3.3406 1.5539 5.8711 3.1776 7.125l0.1811 0.13986-3.7513 3.91e-4c-3.006 3.91e-4 -3.7826-0.01326-3.9091-0.06833zm5.4709-1.0526c-0.97137-1.4364-1.6855-3.6135-1.9986-6.0926-0.16283-1.2896-0.19918-2.0758-0.20457-4.4239-0.0063-2.7418 0.03018-2.4968-0.49672-3.3373-0.16055-0.25612-0.37879-0.62284-0.48498-0.81493l-0.19308-0.34926h-1.7542v15.316h5.3333zm-4.1772-0.45039c-0.25665-0.25665-0.07479-0.70087 0.28693-0.70087 0.21272 0 0.41393 0.20122 0.41393 0.41394s-0.20122 0.41393-0.41393 0.41393c-0.10081 0-0.20688-0.04695-0.28693-0.127zm2.0179 0c-0.08006-0.08006-0.127-0.18612-0.127-0.28693 0-0.18476 0.19788-0.41394 0.35741-0.41394 0.18021 0 0.35791 0.1119 0.4215 0.26542 0.16596 0.40066-0.34523 0.74212-0.6519 0.43544zm-1.2418-1.604c-0.25231-0.25231-0.07502-0.70086 0.27702-0.70086 0.1802 0 0.42384 0.20826 0.42384 0.36229 0 0.39868-0.43205 0.60739-0.70087 0.33857zm-1.1901-1.2935c-0.25665-0.25665-0.07479-0.70087 0.28693-0.70087 0.21272 0 0.41393 0.20122 0.41393 0.41394s-0.20122 0.41394-0.41393 0.41394c-0.10081 0-0.20688-0.04695-0.28693-0.127zm1.6557-1.0348c-0.25665-0.25665-0.07479-0.70087 0.28693-0.70087 0.21272 0 0.41393 0.20122 0.41393 0.41393s-0.20122 0.41394-0.41393 0.41394c-0.10081 0-0.20688-0.04695-0.28693-0.127zm-1.4488-0.82787c-0.2567-0.2567-0.07479-0.70087 0.28705-0.70087 0.19866 0 0.41382 0.21522 0.41382 0.41394 0 0.07706-0.0571 0.20172-0.12688 0.27702-0.16568 0.17878-0.40105 0.18284-0.57398 0.0099zm1.0348-1.4488c-0.25665-0.25665-0.07479-0.70087 0.28693-0.70087 0.21272 0 0.41393 0.20122 0.41393 0.41394 0 0.21271-0.20122 0.41393-0.41393 0.41393-0.10081 0-0.20688-0.04695-0.28693-0.127zm-1.2418-0.6209c-0.25665-0.25665-0.07479-0.70087 0.28693-0.70087 0.21272 0 0.41393 0.20122 0.41393 0.41394 0 0.21271-0.20122 0.41393-0.41393 0.41393-0.10081 0-0.20688-0.04695-0.28693-0.127zm7.3121 8.2491c-0.13005-0.08614-0.39703-0.32566-0.59328-0.53226-1.1811-1.2434-2.0692-3.4434-2.4701-6.1192-0.22377-1.4933-0.25465-2.0543-0.2604-4.7303l-0.0056-2.613-0.14268-0.40898c-0.07847-0.22494-0.31325-0.69061-0.52174-1.0348-0.86709-1.4316-1.4013-2.7776-1.6654-4.196-0.13357-0.71733-0.13415-2.0519-0.0012-2.6647 0.38414-1.77 1.388-3.0463 2.8693-3.6483 0.64218-0.26094 1.1609-0.35455 1.9491-0.35171 1.0037 0.0036 1.5811 0.14406 2.8007 0.68125 1.1913 0.52475 2.4737 0.73125 3.5633 0.57379 0.55592-0.08033 1.0222-0.23539 1.7853-0.59375 1.3509-0.63431 2.431-0.8213 3.5834-0.62034 0.96007 0.16742 1.7191 0.54215 2.4048 1.1872 0.76116 0.71604 1.2411 1.606 1.4948 2.7718 0.13326 0.61242 0.1328 1.9466-9.78e-4 2.6647-0.26412 1.4184-0.79835 2.7644-1.6654 4.196-0.20848 0.34422-0.44327 0.8099-0.52174 1.0348l-0.14267 0.40898-0.0056 2.613c-0.0057 2.6761-0.03664 3.2371-0.2604 4.7303-0.40097 2.6758-1.2891 4.8758-2.4701 6.1192-0.41116 0.43285-0.77035 0.68889-0.96641 0.68889-0.08173 0-0.19176-0.0575-0.2737-0.14302-0.2436-0.25427-0.30046-0.52208-0.37609-1.7714-0.10423-1.7217-0.13593-1.9927-0.41771-3.5702-0.4723-2.644-1.0086-4.1798-1.7458-4.9998-0.74419-0.82772-2.0129-0.82772-2.7571 0-0.73729 0.82004-1.2735 2.3558-1.7458 4.9998-0.28178 1.5774-0.31349 1.8484-0.41771 3.5702-0.07563 1.2493-0.13249 1.5172-0.37609 1.7714-0.1783 0.18611-0.3508 0.18248-0.64683-0.01359zm0.16748-1.124c0.0014-0.41615 0.11331-1.9922 0.18452-2.6 0.04501-0.38418 0.17337-1.1991 0.28525-1.811 0.55373-3.0282 1.1551-4.5842 2.1357-5.5258 0.37719-0.36219 0.72874-0.54624 1.2573-0.65823 0.44346-0.09396 0.62602-0.09396 1.0695 0 0.52856 0.11199 0.88011 0.29604 1.2573 0.65823 0.95558 0.91759 1.5512 2.42 2.088 5.2671 0.2725 1.4453 0.39497 2.4196 0.46823 3.7254 0.03273 0.58339 0.06753 1.069 0.07733 1.0791 0.02318 0.0239 0.3023-0.29256 0.58158-0.65936 0.29155-0.38292 0.8926-1.6017 1.1242-2.2797 0.71925-2.1051 0.9984-4.4529 0.93546-7.8674-0.04579-2.4842 0.0089-2.7806 0.73316-3.9726 1.2076-1.9875 1.7893-3.879 1.7043-5.5421-0.03969-0.77657-0.18424-1.3552-0.49908-1.9979-0.6631-1.3535-1.7872-2.0985-3.295-2.1837-0.87687-0.04955-1.6512 0.12773-2.5799 0.59062-0.9348 0.46596-1.7133 0.67687-2.6647 0.7219-1.0938 0.05177-2.3081-0.19626-3.4782-0.71046-0.72675-0.31936-1.1549-0.45737-1.696-0.54666-1.4521-0.23962-2.8662 0.25315-3.7949 1.3223-0.31866 0.36688-0.72408 1.1954-0.86279 1.7632-0.44377 1.8165 0.12688 4.251 1.527 6.5145 0.36401 0.58847 0.57243 1.0443 0.68294 1.4936 0.07344 0.29858 0.08653 0.71701 0.09185 2.9353 0.0061 2.561 0.03205 3.0932 0.21293 4.3722 0.30628 2.1656 0.90005 3.978 1.6952 5.1742 0.24201 0.36407 0.65866 0.87961 0.71088 0.87961 0.02601 0 0.04751-0.06403 0.04779-0.14229zm1.707 1.1117c0-0.49852 0.11592-2.7226 0.18357-3.5223 0.11598-1.3708 0.43374-3.0078 0.80509-4.1477 0.31365-0.96277 0.72024-1.7388 1.1319-2.1602 0.30925-0.31662 0.36054-0.34926 0.549-0.34926 0.6556 0 1.471 1.3772 1.9618 3.3134 0.4485 1.7693 0.61176 3.1463 0.72828 6.1424l0.03471 0.89255h-5.3944zm4.5146-0.69779c0.02712-0.0548-0.04545-1.6545-0.1156-2.5483-0.13697-1.7451-0.58624-3.8172-1.0719-4.9435-0.20007-0.464-0.55786-1.0586-0.63699-1.0586-0.05656 0-0.44729 0.62343-0.57882 0.92353-0.72105 1.6452-1.2312 4.6114-1.2317 7.1611l-8.4e-5 0.50448h1.8079c0.99435 0 1.8165-0.01746 1.8271-0.0388zm-2.8354-0.91606c-0.25665-0.25665-0.07479-0.70086 0.28693-0.70086 0.21271 0 0.41393 0.20122 0.41393 0.41393s-0.20122 0.41393-0.41393 0.41393c-0.10081 0-0.20688-0.04695-0.28693-0.127zm1.4488 0c-0.25665-0.25665-0.07479-0.70086 0.28693-0.70086 0.21272 0 0.41394 0.20122 0.41394 0.41393s-0.20122 0.41393-0.41394 0.41393c-0.10081 0-0.20688-0.04695-0.28693-0.127zm-0.72438-1.397c-0.25665-0.25665-0.07479-0.70086 0.28693-0.70086 0.21272 0 0.41394 0.20122 0.41394 0.41393s-0.20122 0.41394-0.41394 0.41394c-0.10081 0-0.20687-0.04695-0.28693-0.127zm-0.59268-1.151c-0.26046-0.09403-0.33354-0.46284-0.13171-0.66468 0.25665-0.25665 0.70087-0.07479 0.70087 0.28693 0 0.28506-0.29097 0.47817-0.56916 0.37775zm1.3232-0.08466c-0.17425-0.17425-0.17675-0.40942-0.0062-0.58002 0.35887-0.35887 0.91747 0.13186 0.60792 0.53406-0.05214 0.06775-0.17092 0.1308-0.27963 0.14844-0.15734 0.02553-0.21128 0.0084-0.32214-0.10249zm-0.73054-1.4549c-0.25665-0.25665-0.07479-0.70087 0.28693-0.70087 0.21272 0 0.41394 0.20122 0.41394 0.41394s-0.20122 0.41394-0.41394 0.41394c-0.10081 0-0.20687-0.04695-0.28693-0.127zm5.5646 5.7262c1.4136-1.0965 2.4404-3.1185 2.9716-5.852 0.32423-1.6682 0.40771-2.8105 0.41445-5.6717 0.0066-2.792-3e-3 -2.7241 0.50157-3.5474 0.14723-0.24021 0.39014-0.6543 0.53979-0.9202 0.32432-0.57623 0.44719-0.7163 0.69187-0.78875 0.11191-0.03314 0.60408-0.04802 1.2542-0.03793 1.1727 0.01821 1.2031 0.02596 1.4621 0.37285 0.10667 0.14287 0.10668 0.14406 0.10668 8.1035 0 7.9595-1.4e-5 7.9607-0.10668 8.1035-0.05867 0.07859-0.17097 0.19089-0.24954 0.24957-0.14094 0.10524-0.19423 0.10683-3.955 0.1178l-3.8122 0.01111zm7.1404-8.3415v-7.6578h-1.7514l-0.27298 0.47861c-0.15014 0.26324-0.36961 0.62996-0.48772 0.81493-0.43686 0.68422-0.48323 0.98819-0.42223 2.7682 0.04515 1.3174-0.02168 3.3269-0.14744 4.4339-0.3112 2.7392-1.0258 5.0132-2.0496 6.5225l-0.20183 0.29751h5.3333zm-3.5984 6.9099c-0.08006-0.08006-0.127-0.18612-0.127-0.28693 0-0.10081 0.04695-0.20688 0.127-0.28693 0.08006-0.08006 0.18612-0.127 0.28693-0.127s0.20688 0.04695 0.28693 0.127c0.08006 0.08006 0.127 0.18612 0.127 0.28693 0 0.10081-0.04695 0.20688-0.127 0.28693-0.08006 0.08006-0.18612 0.127-0.28693 0.127s-0.20687-0.04695-0.28693-0.127zm2.0179 0c-0.08006-0.08006-0.127-0.18612-0.127-0.28693 0-0.18476 0.19788-0.41394 0.35741-0.41394 0.18021 0 0.35791 0.1119 0.4215 0.26542 0.16596 0.40066-0.34523 0.74212-0.6519 0.43544zm-0.77613-1.604c-0.08006-0.08006-0.127-0.18612-0.127-0.28693 0-0.10081 0.04695-0.20688 0.127-0.28693 0.08006-0.08006 0.18612-0.127 0.28693-0.127 0.10081 0 0.20687 0.04695 0.28693 0.127 0.08006 0.08006 0.127 0.18612 0.127 0.28693 0 0.10081-0.04695 0.20688-0.127 0.28693-0.08006 0.08006-0.18612 0.127-0.28693 0.127-0.10081 0-0.20688-0.04695-0.28693-0.127zm1.1901-1.2935c-0.08006-0.08006-0.127-0.18612-0.127-0.28693 0-0.1843 0.19775-0.41394 0.35647-0.41394 0.19516 0 0.35205 0.0955 0.41785 0.25436 0.1701 0.41066-0.33486 0.75897-0.64732 0.44651zm-1.6557-1.0348c-0.35217-0.35217 0.12163-0.90924 0.53003-0.62319 0.15254 0.10684 0.1963 0.3439 0.09842 0.53318-0.1317 0.25468-0.42218 0.29628-0.62845 0.09001zm1.4488-0.82787c-0.33217-0.33217 0.07518-0.87322 0.4902-0.6511 0.15757 0.08433 0.23431 0.33739 0.1581 0.52137-0.11708 0.28266-0.4323 0.34574-0.6483 0.12973zm-1.0348-1.4488c-0.08006-0.08006-0.127-0.18612-0.127-0.28693 0-0.1843 0.19775-0.41394 0.35647-0.41394 0.19516 0 0.35205 0.0955 0.41785 0.25436 0.1722 0.41572-0.33101 0.76282-0.64732 0.44651zm1.2418-0.6209c-0.35217-0.35217 0.12163-0.90924 0.53003-0.62319 0.15254 0.10684 0.1963 0.3439 0.09842 0.53318-0.1317 0.25468-0.42218 0.29628-0.62845 0.09001z" fill="#333" stroke-width=".051742"/>
 </g>
</svg>
