<?xml version="1.0" encoding="UTF-8"?>
<!-- Created with Inkscape (http://www.inkscape.org/) -->
<svg version="1.1" viewBox="0 0 26.458 26.42" xmlns="http://www.w3.org/2000/svg">
 <g transform="translate(-100.96 -252.08)" fill="#333" stroke-width=".059219">
  <path d="m109.95 257.84c-0.22276-0.22276-0.22019-0.41107 9e-3 -0.63009 0.15969-0.15287 0.22389-0.17368 0.53037-0.17189 0.43105 3e-3 0.64998 0.16582 0.64998 0.48487 0 0.32148-0.22875 0.4902-0.66461 0.4902-0.30924 0-0.37191-0.0207-0.52432-0.17309z"/>
  <path d="m105.96 261.02c-0.159-0.12508-0.16223-0.13977-0.13363-0.607 0.0761-1.2429 0.80585-2.3966 1.839-2.9072 0.57251-0.28296 0.92332-0.33064 1.093-0.14857 0.32717 0.35117 0.19477 0.63566-0.42788 0.91941-0.87137 0.3971-1.3154 1.013-1.512 2.0973-0.0863 0.47593-0.15814 0.62748-0.33581 0.70843-0.21181 0.0965-0.34 0.0812-0.52259-0.0624z"/>
  <path d="m108.97 278.38c-0.39035-0.15449-0.78228-0.50045-0.98082-0.86578-0.1911-0.35163-0.27002-0.66206-1.1722-4.6105-1.0097-4.4192-0.92353-4.1201-1.5298-5.3089-0.83647-1.6402-1.2273-2.761-1.498-4.2959-0.11178-0.6338-0.13415-0.97784-0.13599-2.091-2e-3 -1.2957 2e-3 -1.3471 0.16345-1.8651 0.35108-1.1289 0.89181-2.0572 1.6259-2.7913 1.3311-1.3311 3.1826-1.9883 5.0794-1.8031 0.52951 0.0517 0.87885 0.13304 1.6926 0.39402 1.7195 0.55152 2.2308 0.55157 3.9495 2.9e-4 1.2454-0.39946 1.9346-0.4926 2.9434-0.39781 1.5067 0.14159 2.843 0.79721 3.9115 1.9191 1.7213 1.8073 2.1482 4.045 1.4079 7.3796-0.30301 1.3649-0.795 2.6398-1.4772 3.828l-0.39196 0.68264-0.73553 3.211c-1.2038 5.2556-1.292 5.5931-1.5496 5.9319-0.25965 0.34157-0.69586 0.65632-1.0369 0.74814-0.3535 0.0952-1.148 0.0451-1.4241-0.0898-0.33305-0.16273-0.84176-0.65127-0.97714-0.93838-0.12276-0.26035-0.35023-1.4571-0.9592-5.0464-0.66458-3.9171-0.66509-3.9192-1.0567-4.2179-0.18356-0.14001-0.26556-0.16104-0.6272-0.1609-0.34878 1.2e-4 -0.44777 0.0237-0.61229 0.14553-0.40894 0.30291-0.41979 0.34837-1.2511 5.2417-0.70362 4.1416-0.68516 4.0713-1.1991 4.568-0.41403 0.40015-0.69919 0.51603-1.3192 0.53609-0.42791 0.0138-0.596-7e-3 -0.83962-0.10324zm1.0638-0.77266c0.28517-0.0792 0.66612-0.41908 0.74627-0.66585 0.0831-0.25594 0.40464-2.0325 0.83541-4.616 0.65437-3.9246 0.76386-4.3387 1.2532-4.7397 0.43747-0.35847 0.77247-0.47742 1.3507-0.47959 0.55916-2e-3 0.81004 0.0913 1.2894 0.48008 0.51331 0.41628 0.55844 0.58724 1.2586 4.7688 0.42901 2.562 0.75016 4.3344 0.82981 4.5798 0.0624 0.19219 0.34895 0.4964 0.579 0.61466 0.16559 0.0851 0.69277 0.0926 0.90242 0.0129 0.31406-0.11948 0.52387-0.36207 0.64094-0.74111 0.12324-0.39901 0.79458-3.2588 1.5244-6.4936l0.46095-2.0431 0.32448-0.56258c1.2423-2.154 1.8547-4.3406 1.8573-6.6326 2e-3 -1.1814-0.28208-2.1417-0.90866-3.0784-0.80794-1.2079-2.0207-2.0206-3.4578-2.3172-1.0195-0.21042-1.7977-0.13904-3.0471 0.27947-1.0709 0.3587-1.5128 0.44479-2.2834 0.44479-0.77111 0-1.2134-0.0863-2.2834-0.44523-0.99585-0.33412-1.5046-0.41591-2.3067-0.37087-2.0016 0.11239-3.8053 1.3453-4.6304 3.1651-0.32812 0.72367-0.47364 1.426-0.47508 2.2928-4e-3 2.3089 0.60275 4.487 1.8554 6.6622l0.32398 0.56258 0.7308 3.2274c1.1576 5.1121 1.2861 5.5921 1.5684 5.8573 0.13211 0.12411 0.54602 0.28901 0.74596 0.29717 0.0488 2e-3 0.19065-0.0246 0.31509-0.0592z"/>
  <path d="m124.98 274.89c-0.08-0.0629-0.17878-0.22949-0.21952-0.37012-0.0891-0.30766-0.3703-0.73581-0.61149-0.93107-0.0967-0.0783-0.33991-0.20793-0.5404-0.28802-0.45016-0.17985-0.57178-0.28329-0.57178-0.48635 0-0.20878 0.19194-0.37931 0.5969-0.5303 0.47378-0.17666 0.78489-0.46758 1.0042-0.939 0.10162-0.21848 0.21683-0.46386 0.25603-0.54529 0.0535-0.1112 0.12523-0.15257 0.2881-0.16623 0.25189-0.0211 0.43759 0.12518 0.491 0.3868 0.11431 0.56002 0.57234 1.0447 1.2218 1.2929 0.46376 0.17721 0.58653 0.32871 0.48964 0.60421-0.0578 0.1643-0.12257 0.20685-0.68523 0.45002-0.45602 0.19708-0.77418 0.54041-0.97492 1.052-0.22441 0.572-0.44107 0.70894-0.74428 0.47044zm0.56895-1.8165 0.29141-0.26811-0.61244-0.61244-0.2952 0.29539-0.29522 0.2954 0.2406 0.28128c0.13233 0.15472 0.27184 0.28024 0.31001 0.27895 0.0382-1e-3 0.20056-0.12301 0.36084-0.27047z"/>
  <path d="m103.02 256.42c-0.0964-0.0239-0.18661-0.11862-0.25861-0.27144-0.36714-0.77921-0.44259-0.89488-0.72281-1.1081-0.16048-0.12213-0.43403-0.2687-0.60788-0.32571-0.36352-0.11921-0.52423-0.31767-0.46106-0.56939 0.0319-0.12733 0.14469-0.20723 0.59584-0.42232 0.64772-0.30879 0.84746-0.51446 1.0731-1.1049 0.17418-0.4558 0.24281-0.52952 0.49981-0.53683 0.2291-7e-3 0.37203 0.1368 0.46498 0.46624 0.16235 0.57538 0.7134 1.1028 1.3243 1.2674 0.23662 0.0638 0.4019 0.24506 0.4019 0.4408 0 0.21249-0.1684 0.37379-0.48907 0.46845-0.17071 0.0504-0.44169 0.19212-0.60217 0.31495-0.27976 0.21413-0.34242 0.31001-0.72281 1.1062-0.12022 0.25163-0.26506 0.33192-0.4955 0.27469zm0.43167-1.8851 0.27916-0.28342-0.59213-0.58323-0.26661 0.26166c-0.14664 0.14392-0.26662 0.28842-0.26662 0.32112 0 0.0627 0.47387 0.5673 0.53273 0.5673 0.0189 0 0.15993-0.12755 0.31347-0.28343z"/>
 </g>
</svg>
