<?xml version="1.0" encoding="UTF-8"?>
<svg version="1.1" viewBox="0 0 45.37 49.841" xmlns="http://www.w3.org/2000/svg" xmlns:cc="http://creativecommons.org/ns#" xmlns:dc="http://purl.org/dc/elements/1.1/" xmlns:rdf="http://www.w3.org/1999/02/22-rdf-syntax-ns#">
 <metadata>
  <rdf:RDF>
   <cc:Work rdf:about="">
    <dc:format>image/svg+xml</dc:format>
    <dc:type rdf:resource="http://purl.org/dc/dcmitype/StillImage"/>
    <dc:title/>
   </cc:Work>
  </rdf:RDF>
 </metadata>
 <g transform="translate(-124.45 -82.419)">
  <path d="m142 131.84c-2.0416-0.5204-4.1508-1.6838-5.8648-3.2349-1.0104-0.91436-1.9297-1.4903-2.7058-1.695-2.6755-0.70591-5.0201-2.7984-6.3716-5.6864-0.43189-0.92295-1.0906-3.147-1.4639-4.9423-0.62768-3.0193-0.66788-3.6216-0.53569-8.0267 0.16326-5.4404 0.67197-8.7294 1.8916-12.23l0.85083-2.442-1.675-0.86605c-0.92125-0.47633-1.6754-0.94696-1.676-1.0459-5.3e-4 -0.09889 0.8367-0.63226 1.8605-1.1853 1.7287-0.93373 1.9386-1.1459 2.9423-2.9747l1.0808-1.9692 0.62812 1.0378c0.34547 0.57081 0.66548 1.1479 0.71113 1.2825 0.0457 0.13458 0.70871-0.2499 1.4735-0.8544 1.6669-1.3176 4.0414-2.4822 6.3839-3.1311 2.1646-0.59959 8.1404-0.6737 10.319-0.12797 8.2337 2.0628 13.259 8.5725 14.553 18.85 0.49529 3.9349 0.21775 12.475-0.49603 15.263-0.69821 2.7273-1.5831 4.6279-2.8363 6.0919-0.53069 0.62-0.92098 1.165-0.86731 1.2111 0.0537 0.0461 0.36549 0.22318 0.69291 0.39353s0.59531 0.39955 0.59531 0.50933-0.82815 0.6469-1.8403 1.1936c-1.7076 0.92231-1.92 1.1383-2.9445 2.9942l-1.1041 2.0002-0.88078-1.6485c-0.48444-0.90668-0.91676-1.6845-0.96073-1.7284-0.044-0.044-0.76176 0.3784-1.5951 0.93859-0.83335 0.56018-2.2014 1.2782-3.0401 1.5956-1.8878 0.71448-5.2147 0.91387-7.1247 0.427zm6.0148-1.6501c1.4076-0.41343 2.6773-1.0622 3.9027-1.9942l0.61357-0.46665-1.3224-0.67013c-0.72734-0.36858-1.3805-0.76405-1.4514-0.87882-0.0709-0.11478 0.72655-0.66684 1.7722-1.2268 1.7849-0.95587 1.9671-1.1395 2.9797-3.0027l1.0785-1.9846 0.60369 0.9768c0.36756 0.59472 0.69892 0.88156 0.84716 0.73332 0.40808-0.40808 1.5531-3.956 1.9555-6.0593 0.42928-2.2436 0.49836-8.3046 0.12463-10.934-0.22619-1.5914-0.32951-1.7879-1.3837-2.6324-1.8599-1.4898-4.1312-3.9317-4.89-5.2571-0.38998-0.68124-0.73574-1.2766-0.76835-1.3229-0.0326-0.04638-0.64954 0.33973-1.371 0.85803-3.3 2.3708-8.3836 3.7685-15.958 4.3873-1.8386 0.15022-3.3384 0.39559-3.4419 0.56312-0.42197 0.68275-0.89338 5.6546-0.87468 9.2249 0.022 4.2007 0.52871 6.9798 1.8411 10.098 1.9337 4.5943 5.3209 8.1049 9.1487 9.4819 1.7639 0.63454 4.6379 0.68094 6.5937 0.10646zm-4.516-5.8336c-1.6152-0.52311-2.6458-0.96089-2.6458-1.1239 0-0.10567 0.1506-0.39808 0.33465-0.6498 0.30945-0.42318 0.42157-0.42699 1.4885-0.0506 1.4959 0.52778 3.1831 0.51702 4.5478-0.029 0.92468-0.36999 1.126-0.38002 1.3279-0.0662 0.45076 0.70078 0.10088 1.1649-1.2176 1.6152-1.2731 0.43476-3.0077 0.57238-3.8355 0.30429zm-0.0571-6.7252c-0.77489-0.77489-0.80337-0.88134-0.65491-2.4474 0.0854-0.9005 0.29036-2.2624 0.45553-3.0263 0.25409-1.1752 0.39197-1.3891 0.89575-1.3891 0.32749 0 0.65619 0.0607 0.73044 0.135 0.0742 0.0742-0.0722 1.2351-0.32538 2.5797-0.54139 2.8748-0.40172 3.3707 0.94934 3.3707 0.8422 0 0.91673 0.0645 0.91673 0.79375 0 0.75215-0.0565 0.79375-1.0787 0.79375-0.85061 0-1.25-0.17129-1.8888-0.81013zm-7.3512-5.992c-2.0757-0.76242-2.1328-0.81058-1.8069-1.5258 0.17082-0.3749 0.43889-0.62613 0.59571-0.55829 0.15683 0.0678 0.896 0.31336 1.6426 0.5456 1.2344 0.38399 1.4622 0.38478 2.5135 9e-3 0.63585-0.2274 1.255-0.44008 1.3758-0.47261 0.12084-0.0325 0.39316 0.19355 0.60516 0.50239 0.36591 0.53307 0.32472 0.59009-0.81214 1.1245-1.1416 0.53662-3.1707 0.72178-4.1138 0.37539zm13.56-0.33449c-1.2214-0.55442-1.2923-0.68955-0.74242-1.415 0.32988-0.43518 0.43791-0.44518 1.1161-0.10327 1.5522 0.78256 2.659 0.74005 4.8709-0.18707 0.28359-0.11886 0.50959 0.0313 0.71045 0.47216 0.27828 0.61077 0.22337 0.6771-0.99411 1.2008-1.6054 0.69063-3.4836 0.70287-4.9609 0.0323zm-16.172-5.1973c-0.23003-0.50487-0.19791-0.66431 0.17232-0.85535 1.8853-0.97283 4.769-1.157 6.9217-0.44193 1.3833 0.45947 1.5156 0.63518 1.0845 1.4407-0.24409 0.45609-0.30886 0.45575-1.6536-9e-3 -1.7859-0.61688-2.6944-0.61832-4.6572-7e-3l-1.585 0.49329-0.28274-0.62054zm14.572 0.0442c-0.27487-0.60326-0.23372-0.70522 0.42123-1.0439 1.8197-0.941 4.5227-0.99279 7.1313-0.13666 0.91766 0.30117 1.0151 0.51507 0.59361 1.3027-0.245 0.4578-0.33859 0.46735-1.1711 0.1195-2.026-0.84652-3.8687-0.77323-6.2546 0.24878-0.28721 0.12303-0.51014-0.0287-0.7205-0.4904zm8.1192 21.936c0.30403-0.5153 0.91035-1.1404 1.3474-1.3891 0.98952-0.56309 0.99365-0.73424 0.0297-1.2327-0.42251-0.21849-1.0371-0.83231-1.3657-1.364l-0.5975-0.96677-0.49766 0.97002c-0.29438 0.57382-0.87127 1.1482-1.4124 1.4062-0.50312 0.23992-0.91477 0.51118-0.91477 0.6028 0 0.0916 0.41802 0.36591 0.92894 0.60955 0.56423 0.26907 1.1029 0.80769 1.3719 1.3719 0.24364 0.51091 0.4687 0.92893 0.50014 0.92893 0.0314 0 0.3059-0.4216 0.60994-0.9369zm-24.314-4.9501c-0.54461-1.055-1.2001-2.4838-1.4567-3.175-0.38103-1.0265-0.5843-1.2568-1.1094-1.2568-0.3536 0-0.87321-0.12325-1.1547-0.27389-0.75009-0.40143-0.66405 0.10727 0.38322 2.2657 0.99845 2.0578 3.1447 4.3001 4.1638 4.3501 0.0902 4e-3 -0.2816-0.85516-0.8262-1.9102zm27.844 0.10919c0.85877-0.95055 2.0075-3.067 2.4506-4.5148 0.16811-0.54939 0.12764-0.60697-0.29915-0.4256-0.27145 0.11535-0.82953 0.26719-1.2402 0.33742-0.49945 0.0854-0.83266 0.35772-1.0065 0.82248-0.14292 0.38213-0.63248 1.5077-1.0879 2.5012-0.69182 1.5092-0.76565 1.8459-0.44873 2.0465 0.57144 0.3616 0.64219 0.32834 1.6319-0.76714zm-30.337-6.8561c-0.096-0.40018-0.24473-2.2456-0.33055-4.101-0.0858-1.8554-0.2328-3.3734-0.32663-3.3734-0.46766 0-1.4441 0.96231-1.7715 1.7459-0.79283 1.8975-0.29536 4.4911 1.1115 5.795 0.97963 0.9079 1.544 0.87947 1.3172-0.0663zm32.615-0.19121c1.7037-1.9404 1.7654-4.9584 0.13463-6.5892-0.38176-0.38176-0.79694-0.69412-0.92262-0.69412s-0.23323 0.98227-0.23901 2.1828c-6e-3 1.2006-0.16199 3.046-0.34714 4.101-0.30958 1.7641-0.3003 1.9182 0.11539 1.9182 0.24861 0 0.81505-0.41346 1.2588-0.91881zm-32.794-11.501c0.16868-1.391 0.37682-2.7969 0.46254-3.1244 0.14626-0.55867 0.0746-0.59531-1.1648-0.59531-1.278 0-1.3263 0.0278-1.4944 0.8599-0.0955 0.47294-0.247 2.1282-0.3366 3.6784l-0.16292 2.8185 2.3896-1.108zm34.159 2.6634c0-2.1688-0.22344-2.6151-1.5325-3.0612-0.66418-0.22631-1.2206-0.41147-1.2364-0.41147-0.0158 0 0.0403 0.72187 0.12461 1.6042 0.14608 1.5278 0.47156 2.0858 1.2228 2.096 0.16408 2e-3 0.44655 0.18265 0.6277 0.40093 0.54286 0.6541 0.79375 0.45548 0.79375-0.62839zm-1.1735-8.3335c-1.7256-6.7834-5.5303-11.385-11.003-13.308-2.6681-0.93747-7.6604-1.1712-10.678-0.49999-2.4128 0.53681-5.2393 1.8978-6.7792 3.2644l-1.12 0.99387 1.8884 1.0351c1.0386 0.56932 1.7902 1.1333 1.6702 1.2532-0.11997 0.11997-0.97332 0.62162-1.8963 1.1148-1.5328 0.81898-1.7744 1.0718-2.7885 2.9181l-1.1103 2.0214-0.63627-1.1994c-0.34995-0.65966-0.71485-1.1994-0.81088-1.1994-0.20138 0-1.2815 3.0869-1.2815 3.6624 0 0.32694 0.64502 0.3618 4.2995 0.23234 9.6868-0.34314 15.954-2.0991 19.14-5.3632l1.3745-1.4078 0.55464 1.3346c1.3364 3.2156 4.7368 6.7615 8.1007 8.4472l1.5875 0.79551 0.0762-0.74164c0.0419-0.4079-0.22281-1.917-0.58825-3.3536zm-31.251-5.4323c0.21849-0.42251 0.8176-1.028 1.3314-1.3455 1.0431-0.64466 1.0278-0.84731-0.0991-1.3141-0.43341-0.17952-0.91894-0.66505-1.0985-1.0985-0.4668-1.127-0.66945-1.1422-1.3141-0.09915-0.31752 0.51376-0.923 1.1129-1.3455 1.3314-0.9868 0.5103-0.9672 0.71993 0.11563 1.2363 0.51691 0.2465 1.0245 0.76113 1.2227 1.2396 0.42178 1.0183 0.68115 1.0292 1.1875 0.04995zm33.745-3.5613c-0.63659-1.128-1.1078-1.5838-2.2971-2.222l-1.4962-0.80286 1.5673-0.7982c1.3507-0.68788 1.6739-1.0054 2.3387-2.2976l0.77139-1.4994 0.86771 1.5309c0.66139 1.1669 1.1499 1.6744 2.0547 2.1342 0.65284 0.33178 1.2565 0.71576 1.3415 0.85328s-0.45655 0.58263-1.2034 0.98913c-1.03 0.56058-1.5483 1.0763-2.146 2.1354-0.43341 0.76796-0.83517 1.3963-0.89279 1.3963-0.0576 0-0.46518-0.6386-0.90567-1.4191zm1.518-3.6561-0.62538-0.62538-1.3164 1.3164 0.6724 0.57837 0.67239 0.57837 0.61118-0.61119 0.61119-0.61119z" fill="#333" stroke-width=".26458"/>
 </g>
</svg>
