<?xml version="1.0" encoding="UTF-8"?>
<svg version="1.1" viewBox="0 0 50.241 55.828" xmlns="http://www.w3.org/2000/svg" xmlns:cc="http://creativecommons.org/ns#" xmlns:dc="http://purl.org/dc/elements/1.1/" xmlns:rdf="http://www.w3.org/1999/02/22-rdf-syntax-ns#">
 <metadata>
  <rdf:RDF>
   <cc:Work rdf:about="">
    <dc:format>image/svg+xml</dc:format>
    <dc:type rdf:resource="http://purl.org/dc/dcmitype/StillImage"/>
    <dc:title/>
   </cc:Work>
  </rdf:RDF>
 </metadata>
 <g transform="translate(-76.509 -45.583)">
  <path d="m123.34 101.02c1.1198-0.78433 1.1764-1.389 1.097-11.709l-0.0756-9.8232-0.64473-0.68599c-0.39404-0.41926-1.3588-0.89865-2.4812-1.2329-1.01-0.3008-1.9845-0.60372-2.1654-0.67316-0.18095-0.0694-0.49695 0.0417-0.70221 0.24695-0.32086 0.32086-0.32147 0.926-4e-3 4.3147 0.57625 6.1572-0.0959 10.155-2.1628 12.865-2.0802 2.7273-6.7218 3.4141-9.1671 1.3565-1.4935-1.2567-1.6898-1.948-1.8679-6.5761-0.18427-4.7897-0.49221-5.8885-1.889-6.7401-2.1465-1.3087-4.3536-0.15165-4.9417 2.5905-0.16484 0.76864-0.30233 2.8502-0.30552 4.6256-7e-3 3.6562-0.36463 4.8512-1.8207 6.0764-2.4733 2.0811-7.1032 1.41-9.1952-1.3328-2.0669-2.7099-2.739-6.708-2.1628-12.865 0.31715-3.3887 0.31655-3.9938-4e-3 -4.3147-0.20526-0.20526-0.52126-0.31639-0.70221-0.24695-0.18096 0.0694-1.1554 0.37236-2.1654 0.67316-1.1224 0.33426-2.0871 0.81365-2.4811 1.2329l-0.64474 0.68599-0.07562 9.8232c-0.05443 7.0703 0.0114 10.033 0.2349 10.573 0.66412 1.6033-0.53807 1.5223 22.595 1.5223 18.143 0 21.26-0.0554 21.733-0.38633zm-42.436-1.3764c-0.25621-0.10339-0.33073-2.3372-0.33073-9.9145v-9.781l0.85989-0.35168c2.0237-0.82766 1.9679-0.85437 1.7562 0.8404-0.32558 2.6064-0.24618 7.7758 0.14799 9.6356 0.78241 3.6915 2.5588 6.2815 5.2208 7.6117 1.3918 0.6955 1.9171 0.81183 3.6658 0.81183 2.5049 0 4.0428-0.51018 5.3325-1.7689 1.7281-1.6866 2.1555-3.1002 2.265-7.4916 0.0526-2.11 0.22452-4.1684 0.38194-4.5742 0.34094-0.87867 1.0932-1.3391 1.8141-1.1103 0.98466 0.31252 1.2462 1.3793 1.361 5.5522 0.12483 4.5345 0.54114 5.9263 2.2804 7.6238 1.2896 1.2587 2.8276 1.7689 5.3325 1.7689 1.7487 0 2.2739-0.11633 3.6658-0.81183 2.662-1.3302 4.4384-3.9202 5.2208-7.6117 0.39417-1.8598 0.47357-7.0291 0.14799-9.6356-0.21169-1.6948-0.26751-1.6681 1.7562-0.8404l0.85989 0.35168v9.7748c0 8.6692-0.0473 9.7929-0.41851 9.9354-0.50033 0.192-40.843 0.17772-41.32-0.0146zm13.692-4.5485c1.6618-1.2167 2.3564-3.4937 2.027-6.6447-0.2116-2.0245 0.23816-4.6529 1.0272-6.0025 1.2738-2.179 4.3133-2.8297 6.6042-1.4138 0.69635 0.43037 1.1941 1.0526 1.6651 2.0812 0.61282 1.3386 0.67537 1.8051 0.71267 5.3151 0.0457 4.3006 0.2968 5.2536 1.694 6.4293 1.8136 1.526 3.9245 1.0862 6.0738-1.2654 1.5847-1.7339 2.3193-3.2562 2.6895-5.5732 0.2436-1.5249 0.22482-1.8454-0.12887-2.1991-0.71353-0.71353-1.303-0.0512-1.5264 1.715-0.26015 2.0568-1.2634 4.0371-2.7303 5.3892-1.0129 0.93369-1.3421 1.0899-2.1511 1.0209-0.68356-0.0583-1.1131-0.29377-1.5106-0.82801-0.48922-0.65751-0.57434-1.2412-0.71383-4.8948-0.2164-5.6678-0.85308-7.2641-3.5036-8.7843-2.7463-1.5751-6.6616-0.78365-8.34 1.6859-1.2139 1.786-1.4175 2.7107-1.5915 7.2285-0.15605 4.0508-0.19894 4.3147-0.80625 4.9609-1.44 1.5323-3.9566 0.1746-5.4915-2.9628-0.86273-1.7634-1.1124-4.8993-0.63505-7.976 0.16639-1.0724 0.37128-3.2124 0.45531-4.7554l0.15277-2.8055-0.83996-1.1906c-0.46198-0.65484-1.2526-1.8157-1.7568-2.5797-0.93207-1.4121-1.3375-1.6401-1.906-1.0716-0.5209 0.52089-0.39043 0.84375 1.2761 3.158l1.5936 2.213-0.15635 1.7198c-0.086 0.94589-0.33128 3.3271-0.54509 5.2917-0.28771 2.6434-0.3209 4.0482-0.12771 5.4045 0.78202 5.4901 5.4733 9.5428 8.4898 7.3343zm22.308-12.043c0.0766-0.19952 0.04-1.2413-0.0812-2.3151-0.61923-5.4844-0.68244-4.9696 0.89458-7.2864 2.979-4.3764 4.1312-7.5283 4.1312-11.302 0-5.7165-2.6299-10.593-6.8275-12.66-1.4682-0.72309-2.1223-0.88176-3.957-0.95994-2.5829-0.11006-4.1664 0.31893-6.5105 1.7638-2.1709 1.3381-3.7203 1.3381-5.8913 0-2.3441-1.4449-3.9276-1.8739-6.5105-1.7638-1.8347 0.07818-2.4888 0.23685-3.957 0.95994-4.4095 2.1717-7.0833 7.5076-6.7578 13.486 0.17631 3.2382 0.65617 4.6977 1.5445 4.6977 0.74776 0 0.76915-0.35804 0.22316-3.7349-0.30164-1.8656-0.29125-2.4315 0.0792-4.3118 0.82931-4.2095 2.8496-7.2762 5.7178-8.6794 1.247-0.61008 1.8385-0.73022 3.6093-0.73302 2.1918-0.0035 2.8706 0.22449 6.0867 2.0438 1.4947 0.84556 4.3261 0.84556 5.8208 0 3.1434-1.7782 3.9012-2.032 6.0854-2.0385 1.7836-0.0053 2.3515 0.10892 3.6093 0.72557 1.6701 0.8188 3.337 2.4769 4.2097 4.1877 2.9017 5.6877 2.2823 10.985-2.0122 17.211-1.9201 2.7838-1.9443 2.9098-1.4396 7.5 0.37237 3.3866 0.43283 3.5719 1.1658 3.5719 0.34546 0 0.69075-0.16324 0.76731-0.36275zm8.4163-10.353c0.69696-1.1642 1.2725-2.3204 1.279-2.5695 8e-3 -0.30849-0.32586-0.54373-1.0474-0.73804l-1.0592-0.28521 1.1994-1.7517c1.2426-1.8148 1.3106-2.1072 0.59467-2.5588-0.57993-0.36581-0.85302-0.10072-2.705 2.6257-1.661 2.4453-1.7336 3.061-0.38328 3.2495 1.0605 0.14801 1.1027 0.44891 0.25621 1.8247-0.90681 1.4738-0.95298 1.6768-0.48717 2.1426 0.59343 0.59343 1.0734 0.1978 2.3528-1.9392zm-43.816-17.603c0.24188-0.39138-0.44887-4.9819-0.82759-5.4998-0.29477-0.40312-0.38478-0.40284-1.2376 0.0038l-0.91966 0.43856-0.16087-0.97289c-0.08848-0.53509-0.16218-1.3501-0.16378-1.8111-0.0041-1.1667-0.24467-1.6753-0.79257-1.6753-0.90511 0-1.0349 0.54543-0.788 3.3112 0.12973 1.4531 0.24011 2.7828 0.2453 2.9549 0.01604 0.53177 1.0238 0.67395 1.653 0.23322 0.86324-0.60464 0.95123-0.54039 1.1544 0.84295 0.26912 1.8325 0.55768 2.4474 1.1486 2.4474 0.28605 0 0.59596-0.12275 0.68869-0.27278zm41.618-2.1736c0.18335-1.5932-2.0246-4.0591-3.4528-3.8564-0.87466 0.12415-0.96778 1.1991-0.13142 1.5171 0.79372 0.30177 2.0454 1.7586 2.0454 2.3807 0 1.13 1.4084 1.0922 1.5388-0.04137zm3.2352 0.18355c0.45714-0.55082-0.23802-2.7962-1.3342-4.3094-1.5343-2.118-4.5152-3.3662-4.7133-1.9735-0.0665 0.46738 0.18218 0.71669 1.2592 1.2625 1.47 0.74492 2.78 2.3066 3.0706 3.6606 0.36995 1.7238 1.001 2.2234 1.7177 1.3598z" fill="#333" stroke-width=".26458"/>
 </g>
</svg>
