<?xml version="1.0" encoding="UTF-8"?>
<svg version="1.1" viewBox="0 0 78.164 62.171" xmlns="http://www.w3.org/2000/svg" xmlns:cc="http://creativecommons.org/ns#" xmlns:dc="http://purl.org/dc/elements/1.1/" xmlns:rdf="http://www.w3.org/1999/02/22-rdf-syntax-ns#">
 <metadata>
  <rdf:RDF>
   <cc:Work rdf:about="">
    <dc:format>image/svg+xml</dc:format>
    <dc:type rdf:resource="http://purl.org/dc/dcmitype/StillImage"/>
    <dc:title/>
   </cc:Work>
  </rdf:RDF>
 </metadata>
 <g transform="translate(-50.905 -12.052)">
  <path d="m78.449 74.034c-3.3006-0.2507-9.6867-1.1086-12.435-1.6705-1.5459-0.31604-1.6291-0.30344-3.175 0.48055-1.4009 0.71045-1.8519 0.8048-3.8365 0.80252-2.6581-3e-3 -4.1343-0.55985-5.7392-2.1647-1.6537-1.6537-2.3-3.2741-2.3016-5.7702-0.0011-1.6462 0.13645-2.4284 0.61839-3.5189 0.58406-1.3216 0.60271-1.527 0.3244-3.5719-1.0011-7.3555-1.0665-16.731-0.16594-23.785l0.4626-3.6232-0.62764-1.4038c-0.92985-2.0798-0.88619-4.86 0.10825-6.8926 0.90392-1.8475 2.6818-3.4622 4.4639-4.0541 1.9674-0.65348 4.9335-0.42407 6.7935 0.52543l1.4232 0.72653 3.0747-0.55096c7.5965-1.3612 12.586-1.7339 20.405-1.5241 7.3538 0.1973 11.459 0.70976 12.344 1.5408 0.86673 0.81425 0.84875 2.3009-0.0379 3.1339l-0.65852 0.61865-3.5087-0.37409c-4.5433-0.4844-17.852-0.50386-21.5-0.03144-1.4552 0.18846-4.6014 0.70218-6.9916 1.1416l-4.3457 0.79895-0.68135-0.54454c-2.6104-2.0862-5.0769-1.9942-6.5866 0.24571-0.8153 1.2096-0.69165 2.9728 0.31516 4.4942l0.70652 1.0676-0.58999 3.7675c-0.514 3.2823-0.59139 4.8239-0.6009 11.97-0.0097 7.3031 0.05695 8.6464 0.60827 12.256 0.54663 3.5788 0.57362 4.1059 0.23034 4.4979-2.476 2.8278-1.0401 6.658 2.4972 6.6608 0.98769 8e-4 1.5265-0.19826 2.7343-1.0102l1.5042-1.0112 3.748 0.73707c6.8484 1.3468 10.264 1.6625 18.035 1.6673 7.743 5e-3 11.213-0.31314 18.279-1.6749l3.727-0.71824 1.1285 0.8663c2.0159 1.5476 4.3241 1.5345 5.7711-0.0328 0.74563-0.80757 0.8599-1.1183 0.8599-2.3386 0-1.1018-0.16836-1.6728-0.77568-2.6304l-0.77567-1.2231 0.3591-2.0698c1.043-6.0116 1.3758-12.993 0.91214-19.135-0.45808-6.0691-0.45832-6.065 0.39168-6.7962 1.6211-1.3944 3.3917-0.40925 3.7 2.0586 0.72621 5.8124 0.62715 15.492-0.22365 21.855-0.39005 2.9168-0.38716 2.9814 0.18945 4.2333 0.84505 1.8348 0.83953 5.5549-0.0106 7.151-0.93205 1.7498-2.0877 2.9-3.7187 3.7009-1.2665 0.62196-1.8381 0.73821-3.6297 0.73821-1.8406 0-2.3464-0.10905-3.763-0.81118l-1.6366-0.81117-3.2484 0.59483c-7.3913 1.3534-17.298 1.9328-24.151 1.4124zm4.1733-6.0772c-7.2226-0.77661-13.923-5.476-17.159-12.035-1.6651-3.3749-2.2672-5.9236-2.2815-9.6573-0.02429-6.3632 2.024-11.312 6.5156-15.743 2.4979-2.464 4.3081-3.7037 6.99-4.7869 3.0432-1.2292 4.7463-1.5434 8.421-1.5535 3.33-9e-3 3.5147 0.0188 4.1672 0.63184 0.88857 0.83477 0.89632 1.9472 0.0197 2.8238-0.63275 0.63275-0.76294 0.65558-2.8443 0.49866-4.192-0.31603-8.753 1.0303-12.154 3.5878-6.9536 5.2285-9.1224 15.017-5.0569 22.823 1.5008 2.8817 4.8537 6.1411 7.7639 7.5477 2.8376 1.3714 5.0467 1.889 8.0837 1.8939 4.6185 8e-3 8.8022-1.6339 12.106-4.7496 2.757-2.6 4.4267-5.3266 5.3554-8.7448 0.56439-2.0773 0.63464-6.3981 0.13659-8.4007-0.44033-1.7705-0.23095-2.5883 0.79905-3.1209 1.7543-0.90718 2.7142 0.0398 3.2848 3.2405 1.8242 10.234-3.8045 20.403-13.423 24.251-3.3639 1.3458-7.1687 1.8756-10.724 1.4934zm1.3829-8.1862c-0.29104-0.12038-0.7999-0.51049-1.1308-0.8669-1.3815-1.4881-1.243-3.7296 0.31918-5.1645 1.1655-1.0706 2.6536-1.2204 4.1968-0.42266 2.3421 1.2108 2.3096 5.075-0.053 6.2968-0.84815 0.4386-2.4673 0.51503-3.3321 0.1573zm-7.6523-11.247c-1.3017-0.47148-2.4619-1.6136-2.7856-2.7423-0.2996-1.0446 0.0881-1.3051 1.3091-0.87947 1.3933 0.4857 3.7829 0.63142 5.4107 0.32995 1.9189-0.35537 2.2056-0.1454 1.5855 1.1613-0.89235 1.8805-3.4667 2.8742-5.5197 2.1306zm14.531-2e-3c-1.3367-0.48355-2.7781-2.013-2.7781-2.9477 0-0.64449 0.0653-0.68536 0.84593-0.52924 2.1751 0.43502 3.6302 0.44891 5.5041 0.0525 2.5581-0.54107 2.4745-0.55555 2.2842 0.39586-0.48192 2.4096-3.398 3.9177-5.8561 3.0285zm3.5484-10.03c-0.7909-0.40238-1.0716-1.2728-0.66076-2.0493 0.18289-0.34567 1.1268-1.9084 2.0976-3.4728 0.97081-1.5644 1.639-2.8443 1.4848-2.8443s-1.1121 0.1892-2.1289 0.42046c-1.6957 0.38567-1.9025 0.38516-2.4996-6e-3 -0.77572-0.50827-0.86012-1.531-0.18158-2.2003 0.28941-0.28546 2.0151-0.8087 4.5-1.3644 3.2905-0.73591 4.1516-0.84626 4.6899-0.60098 1.149 0.52351 0.8777 1.5544-1.3427 5.1026-1.1012 1.7596-1.9644 3.2318-1.9182 3.2715 0.0461 0.0397 0.97038-0.13899 2.0539-0.39701 2.0747-0.49406 2.9834-0.38182 3.2856 0.40585 0.50511 1.3163-0.11439 2.0514-2.0806 2.4688-0.7276 0.15445-2.5365 0.56918-4.0198 0.92162-2.1263 0.50522-2.8202 0.57806-3.2797 0.3443zm11.459-5.0741c-0.32342-0.22654-0.58804-0.68894-0.58804-1.0276s0.95658-2.7884 2.1257-5.444 2.077-4.877 2.0174-4.9366c-0.0596-0.05957-1.3317 0.3791-2.827 0.97481-3.0937 1.2325-3.9266 1.2666-4.4443 0.18166-0.63158-1.3237-0.0873-1.7112 5.4064-3.8483 4.612-1.7941 5.0488-1.916 5.6592-1.5792 0.38536 0.21265 0.69472 0.64783 0.74115 1.0426 0.0481 0.4086-0.76601 2.6022-2.0507 5.5257-1.1717 2.6664-2.0874 4.8911-2.0349 4.9436 0.0525 0.0525 1.3258-0.38397 2.8295-0.96997 3.2293-1.2585 3.7849-1.3057 4.3957-0.37352 0.40533 0.61861 0.41229 0.76517 0.0656 1.3828-0.31263 0.55699-1.3351 1.0612-5.2759 2.6018-2.6885 1.051-5.0105 1.917-5.16 1.9245-0.14952 7e-3 -0.53647-0.17182-0.85989-0.39835zm14.905-7.9628c-3.6996-0.28663-4.8561-0.46578-5.238-0.8114-1.0173-0.92067-0.54415-1.587 3.8969-5.4875l4.2296-3.7149-3.2768-0.26458c-3.0848-0.24909-3.307-0.30526-3.7936-0.95915-0.41796-0.56167-0.45991-0.80097-0.21922-1.2507 0.55355-1.0343 1.0108-1.0818 6.5212-0.67742 4.7578 0.34917 5.319 0.44102 5.7368 0.93886 0.92905 1.1072 0.62774 1.5034-4.4002 5.7849-1.9652 1.6735-3.58 3.119-3.5883 3.2122-8e-3 0.09324 1.3243 0.25325 2.9614 0.35558 3.3899 0.21189 4.1672 0.53179 4.1672 1.715 0 0.86161-0.83026 1.6188-1.7125 1.5617-0.29504-0.0191-2.673-0.20021-5.2844-0.40253z" fill="#333" stroke-width=".26458"/>
 </g>
</svg>
