<?xml version="1.0" encoding="UTF-8" standalone="no"?>
<svg
   viewBox="0 0 26.458299 31.835314"
   version="1.1"
   xmlns="http://www.w3.org/2000/svg">
  <g transform="translate(-102.33421,-70.615823)">
    <path
      style="fill:#333;stroke-width:0.193044"
      d="m 111.52536,102.1347 c -0.25738,-0.18028 -0.9465,-1.36225 -1.60381,-2.750872 -2.69221,-5.687537 -3.23718,-7.386284 -3.62983,-11.314794 -0.11673,-1.167916 -0.25512,-2.40581 -0.30753,-2.750874 l -0.0953,-0.627396 h -1.74208 c -1.69617,0 -1.74044,-0.01145 -1.68038,-0.434347 0.0613,-0.43164 0.0855,-0.434675 3.87431,-0.48669 3.21248,-0.04414 3.81261,-0.09728 3.81261,-0.337826 0,-0.242385 -0.57978,-0.285484 -3.84022,-0.285484 -3.08454,0 -3.86031,-0.05239 -3.94231,-0.266046 -0.1795,-0.467749 0.30068,-0.699176 1.45069,-0.699176 0.61582,0 1.11966,-0.05618 1.11966,-0.124815 0,-0.06866 -0.27695,-0.959064 -0.61544,-1.978701 -0.82155,-2.474751 -0.86226,-4.267605 -0.13234,-5.827981 0.96067,-2.053688 2.90818,-3.428039 5.10783,-3.604607 1.71882,-0.13797 2.46256,0.179573 3.86091,1.648426 1.10458,1.160266 1.2651,1.259962 2.16841,1.346758 1.13324,0.108889 2.00188,-0.318461 2.64109,-1.299362 0.21235,-0.325854 0.72648,-0.829471 1.1425,-1.119147 0.67374,-0.469115 0.92695,-0.526168 2.31653,-0.521946 1.94865,0.0059 3.01929,0.453487 4.348,1.817618 1.88666,1.936968 2.17811,3.9549 1.07508,7.443751 -0.36925,1.167916 -0.6728,2.141055 -0.67455,2.162535 -0.001,0.02145 0.53975,0.06494 1.20333,0.09652 1.08366,0.05166 1.21281,0.101709 1.26821,0.491819 l 0.0617,0.434354 h -3.87431 c -3.31513,0 -3.8743,0.04181 -3.8743,0.289563 0,0.24739 0.54267,0.289569 3.72575,0.289569 3.74778,0 4.28928,0.09332 4.05679,0.699176 -0.0755,0.196872 -0.52458,0.266039 -1.72709,0.266039 -1.5667,0 -1.63175,0.01773 -1.81326,0.495182 -0.10355,0.272344 -0.18861,0.945589 -0.18904,1.49609 -7.3e-4,1.284706 -0.47886,4.26476 -0.97881,6.104038 -0.4842,1.781311 -3.72392,8.867286 -4.26429,9.326906 -0.59743,0.50816 -1.62672,0.43436 -2.22027,-0.15919 -0.55904,-0.55903 -0.55784,-0.86661 0.0153,-3.942995 0.34872,-1.871812 0.39992,-4.77055 0.10312,-5.839261 -0.30074,-1.08293 -0.92043,-1.697142 -1.82416,-1.808051 -1.1448,-0.140487 -1.89808,0.404032 -2.32119,1.677903 -0.41548,1.250888 -0.31418,4.476493 0.21476,6.838111 0.46714,2.085753 0.43623,2.581993 -0.19467,3.124663 -0.60895,0.52379 -1.38811,0.57411 -2.02139,0.13054 z m 1.49817,-0.90796 c 0.16006,-0.19286 0.10795,-0.7219 -0.20439,-2.075221 -0.31378,-1.359579 -0.42255,-2.471775 -0.43249,-4.422466 -0.012,-2.356335 0.0299,-2.693847 0.43764,-3.521704 0.63471,-1.288836 1.3857,-1.773358 2.76033,-1.780932 1.36851,-0.0075 2.00389,0.406388 2.67167,1.740533 0.64987,1.298342 0.76022,3.890102 0.28417,6.67367 -0.18852,1.102251 -0.35019,2.35158 -0.35927,2.77627 -0.0155,0.72444 0.0176,0.77218 0.5347,0.77218 0.52454,0 0.62533,-0.15875 2.08344,-3.281754 2.33353,-4.997986 2.92529,-6.94095 3.15963,-10.374109 0.0598,-0.877033 0.14987,-1.920375 0.2,-2.318526 l 0.0912,-0.723917 h -1.65539 -1.65539 l 0.0605,0.627396 c 0.0333,0.345064 0.16907,0.638253 0.3018,0.651524 0.13271,0.01328 0.32817,0.03502 0.43434,0.04823 0.38121,0.04764 0.18328,0.615992 -0.28957,0.831432 -0.40412,0.184133 -0.48261,0.352755 -0.48261,1.036944 0,1.001994 -0.10508,1.051411 -2.23578,1.051411 -1.3677,0 -1.68624,-0.06114 -2.01118,-0.38609 -0.53275,-0.53275 -1.9121,-0.53275 -2.36826,0 -0.2843,0.332048 -0.56728,0.385674 -2.0216,0.383135 -0.93006,-0.0015 -1.79363,-0.06822 -1.91903,-0.147958 -0.1254,-0.07975 -0.2557,-0.523572 -0.28957,-0.986279 l -0.0616,-0.84129 -1.35131,-0.350937 c -0.74321,-0.19302 -1.42658,-0.35595 -1.51857,-0.362064 -0.39457,-0.02627 0.39085,4.9606 1.11015,7.048692 0.48146,1.397635 3.2821,7.52568 3.63217,7.94749 0.26425,0.31841 0.82363,0.31038 1.09425,-0.0157 z m 0.55999,-17.742496 0.0519,-4.391749 h -1.25135 -1.25137 l -0.0553,4.359908 c -0.0304,2.397953 -0.0155,4.399629 0.0333,4.448178 0.0487,0.04852 0.61338,0.06289 1.25479,0.03181 l 1.16619,-0.0564 z m 6.41509,0.04823 v -4.440013 h -1.25024 -1.25022 l -0.0528,3.330006 c -0.0505,3.183711 -0.0698,3.330014 -0.43891,3.330014 -0.36688,0 -0.38874,-0.146463 -0.43938,-2.943923 l -0.0533,-2.943923 h -0.9602 -0.96019 v 3.667839 3.667833 h 1.42531 c 1.26297,0 1.43682,0.044 1.52628,0.38609 0.087,0.332799 0.26331,0.386083 1.2773,0.386083 h 1.17634 z m -9.84525,1.737396 v -0.579132 h -1.65696 c -1.22254,0 -1.63628,0.06202 -1.57806,0.236687 0.0896,0.268849 1.90276,0.874079 2.70415,0.90265 0.46537,0.01656 0.53087,-0.05253 0.53087,-0.560205 z m 0,-5.115666 v -2.026965 h 2.10097 c 1.93862,0 2.10877,0.02984 2.20193,0.38609 0.0839,0.320849 0.26332,0.386091 1.06174,0.386091 0.80389,0 0.97756,-0.06413 1.0635,-0.392788 0.0965,-0.368974 0.22951,-0.389454 2.19426,-0.337827 l 2.09154,0.05494 0.055,1.978701 0.055,1.978701 h 2.08845 2.08845 l 0.72655,-2.266475 c 0.627,-1.955959 0.71389,-2.443269 0.63421,-3.556873 -0.20619,-2.881844 -2.61707,-4.989144 -5.44006,-4.75504 -1.12386,0.0932 -1.72854,0.46441 -2.49626,1.532456 -0.94378,1.312956 -2.94256,1.877429 -4.43694,1.253032 -0.34775,-0.145297 -1.01821,-0.704373 -1.48989,-1.242387 -1.0687,-1.218982 -1.75016,-1.579943 -2.98109,-1.579055 -1.78049,0.0013 -3.68913,1.231525 -4.56048,2.939523 -0.72702,1.425069 -0.6968,2.53466 0.14292,5.247923 l 0.74972,2.422468 2.07523,0.0022 2.07522,0.0022 z"
    />
  </g>
</svg>
