<svg width="18" height="24" viewBox="0 0 18 24" fill="none" xmlns="http://www.w3.org/2000/svg">
<path fill-rule="evenodd" clip-rule="evenodd" d="M17.4545 8.52174L17.4544 8.5681C17.4543 8.58764 17.4541 8.60717 17.4539 8.6267C17.4543 8.6495 17.4545 8.67247 17.4545 8.69565C17.4545 12.3352 14.619 15.5569 12.7215 17.7127C12.1709 18.3383 11.6993 18.8741 11.3989 19.3043C10.3302 20.8348 9.76624 22.4928 9.61781 23.1304C9.61781 23.6107 9.21911 24 8.72727 24C8.23543 24 7.83674 23.6107 7.83674 23.1304C7.6883 22.4928 7.1243 20.8348 6.05566 19.3043C5.75523 18.8741 5.28363 18.3383 4.73305 17.7127C2.83557 15.5569 0 12.3352 0 8.69565C0 8.67247 0.000217417 8.6495 0.00065225 8.6267C0.000217417 8.59175 0 8.55677 0 8.52174C0 3.8153 3.90732 0 8.72727 0C13.5472 0 17.4545 3.8153 17.4545 8.52174ZM8.72727 11.6522C10.5962 11.6522 12.1113 10.1728 12.1113 8.34783C12.1113 6.52289 10.5962 5.04348 8.72727 5.04348C6.85832 5.04348 5.34323 6.52289 5.34323 8.34783C5.34323 10.1728 6.85832 11.6522 8.72727 11.6522Z" fill="white"/>
<path d="M16.4785 4.60207C15.4098 2.59141 13.5447 1.0492 11.2912 0.373932L6.27893 6.06704C6.89518 5.43656 7.76426 5.04377 8.72728 5.04377C10.5962 5.04377 12.1113 6.52318 12.1113 8.34812C12.1113 9.0926 11.8592 9.77959 11.4337 10.3321L16.4785 4.60207Z" fill="white"/>
<path d="M4.83421 17.8279C4.80079 17.7899 4.76705 17.7516 4.733 17.7129C3.48225 16.2918 1.8239 14.4077 0.838745 12.246L6.0482 6.32892C5.60619 6.8873 5.34318 7.58762 5.34318 8.34798C5.34318 10.1729 6.85827 11.6523 8.72723 11.6523C9.67397 11.6523 10.5299 11.2727 11.1441 10.6609L4.83421 17.8279Z" fill="white"/>
<path d="M2.06496 3.01709C0.776807 4.50206 0 6.42338 0 8.52189C0 8.55692 0.000217417 8.5919 0.00065225 8.62685C0.000217417 8.64965 0 8.67262 0 8.6958C0 9.93629 0.329408 11.1282 0.838793 12.246L6.03946 6.33889L2.06496 3.01709Z" fill="white"/>
<path d="M11.2911 0.373684C10.4804 0.130774 9.61947 0 8.72724 0C6.0564 0 3.6658 1.17149 2.06494 3.01694L6.03945 6.3387L6.0481 6.32889C6.12039 6.23756 6.19746 6.15001 6.27897 6.06662L11.2911 0.373684Z" fill="white"/>
</svg>
