<svg width="375" height="395" viewBox="0 0 375 395" fill="none" xmlns="http://www.w3.org/2000/svg">
<g filter="url(#filter0_d_102:2)">
<circle cx="177.002" cy="177.002" r="167.002" fill="#EBEBEB"/>
<path d="M53.0363 364.136C51.5752 364.869 49.8991 363.635 50.1657 362.022L64.2717 276.674C64.5151 275.2 66.2284 274.504 67.4307 275.389L130.636 321.926C131.838 322.811 131.682 324.654 130.347 325.324L53.0363 364.136Z" fill="#EBEBEB"/>
</g>
<circle cx="177" cy="177" r="150" fill="#00B934"/>
<path d="M72.0124 338.903C70.5513 339.637 68.8753 338.403 69.1418 336.79L81.6924 260.852C81.9358 259.379 83.6491 258.683 84.8514 259.568L141.087 300.973C142.289 301.859 142.133 303.701 140.799 304.371L72.0124 338.903Z" fill="#00B934"/>
<path d="M166.183 191.916C147.479 177.214 129.221 159.776 135.966 151.209C145.641 138.957 154.358 131.077 132.096 109.221C109.834 87.3648 99.0899 107.454 89.7396 119.319C78.9508 133.008 95.9565 177.257 146.398 217.029C196.84 256.801 243.842 262.972 254.645 249.28C263.971 237.39 280.969 222.287 254.557 205.745C228.145 189.202 222.508 199.535 212.86 211.777C206.072 220.342 184.857 206.665 166.183 191.916Z" fill="white"/>
<defs>
<filter id="filter0_d_102:2" x="0" y="0" width="374.003" height="394.352" filterUnits="userSpaceOnUse" color-interpolation-filters="sRGB">
<feFlood flood-opacity="0" result="BackgroundImageFix"/>
<feColorMatrix in="SourceAlpha" type="matrix" values="0 0 0 0 0 0 0 0 0 0 0 0 0 0 0 0 0 0 127 0" result="hardAlpha"/>
<feOffset dx="10" dy="10"/>
<feGaussianBlur stdDeviation="10"/>
<feColorMatrix type="matrix" values="0 0 0 0 0 0 0 0 0 0 0 0 0 0 0 0 0 0 0.5 0"/>
<feBlend mode="normal" in2="BackgroundImageFix" result="effect1_dropShadow_102:2"/>
<feBlend mode="normal" in="SourceGraphic" in2="effect1_dropShadow_102:2" result="shape"/>
</filter>
</defs>
</svg>


