<svg width="24" height="22" viewBox="0 0 24 22" fill="none" xmlns="http://www.w3.org/2000/svg">
<path d="M20.3855 1.81872e-06C20.3042 0.352555 20.1681 1.12478 19.8834 1.36035C19.5574 1.63016 18.9466 1.68529 18.5542 1.83592V1.88423C18.9182 1.93812 19.6763 2.09886 19.9272 2.38079C20.1892 2.6751 20.298 3.34088 20.3855 3.72014H20.4337L20.9402 2.35297L22.2651 1.83592L20.9081 1.29104L20.3855 0V1.81872e-06ZM11.8072 1.81441C11.1134 1.92296 10.4075 2.22693 9.73494 2.42921L5.25301 3.78199C4.58231 3.98369 3.40213 4.08404 3.08028 4.78304C2.90873 5.15559 2.93976 5.6838 2.93976 6.08751C2.93976 6.87869 2.92981 7.66693 2.98363 8.45487C3.26379 12.5563 4.41721 16.3959 7.71084 19.1025C8.62805 19.8562 9.64607 20.4919 10.747 20.9389C11.1037 21.0837 11.6082 21.3348 12 21.2819C13.1897 21.1215 14.4681 20.3219 15.4217 19.6356C18.9717 17.0809 20.5267 13.1849 20.8236 8.93801C20.8964 7.89588 20.9748 6.84183 20.8757 5.79763C20.8368 5.38788 20.9111 5.00369 20.6694 4.63829C20.3721 4.18869 19.7089 4.12839 19.2289 3.97819C17.9804 3.58752 16.72 3.23469 15.4699 2.84931C14.6523 2.59728 13.8285 2.3648 13.012 2.10932C12.6637 2.00032 12.1745 1.75695 11.8072 1.81441H11.8072ZM11.759 3.54264C12.1097 3.48577 12.4893 3.66555 12.8193 3.76725C13.4765 3.96983 14.1366 4.16366 14.7952 4.36175C15.8229 4.67091 16.8496 4.9847 17.8795 5.28666C18.2849 5.40556 18.877 5.47402 19.1273 5.84667C19.3517 6.18075 19.3253 6.71177 19.3253 7.10209C19.3254 7.97734 19.3211 8.84065 19.2371 9.71102C18.9126 13.0725 17.7119 16.0304 14.9398 18.1114C14.1292 18.72 13.0681 19.3858 12.0482 19.5512C11.6776 19.6113 11.2762 19.4116 10.9398 19.2771C9.99566 18.8997 9.10858 18.3463 8.33735 17.6827C5.7414 15.4493 4.88231 12.5142 4.57012 9.22789C4.50169 8.50739 4.53012 7.77809 4.53012 7.05378C4.53012 6.70278 4.48872 6.26719 4.64834 5.94262C4.91967 5.39078 5.92029 5.29642 6.45783 5.13476C7.59827 4.79174 8.74145 4.4563 9.87952 4.10544C10.4868 3.91828 11.1326 3.64424 11.759 3.54264H11.759ZM22.7952 4.58979C22.6243 5.33039 22.3773 5.57799 21.6386 5.74931V5.79762C22.3773 5.96895 22.6243 6.21655 22.7952 6.95715H22.8434C23.0903 6.19645 23.2428 6.04465 24 5.79762V5.74931L23.1664 5.43479L22.7952 4.58979L22.7952 4.58979ZM11.9518 12.8031C12.2067 13.4656 12.3058 14.1233 12.2884 14.8323C12.2757 15.3547 12.064 15.8786 12.579 16.2503C13.4699 16.8931 14.6215 15.6922 15.1364 15.0738C16.5684 13.3541 17.4254 10.7784 16.7987 8.5515C16.7032 8.21239 16.5613 7.88357 16.3745 7.58523C16.2302 7.35487 16.0577 7.14717 15.8554 6.96556C14.6267 5.86227 13.4762 6.6938 12.0964 6.65476C11.4796 6.63726 10.8841 6.37493 10.2651 6.33342C9.184 6.26091 8.12183 6.87932 7.62024 7.8268C6.53426 9.878 7.16 13.1005 8.51344 14.8806C9.0534 15.5907 10.2688 16.8687 11.2769 16.2336C11.8148 15.8948 11.6545 15.3521 11.6188 14.8323C11.5719 14.1502 11.6081 13.4091 11.9518 12.8031ZM9.83133 7.06774C10.5515 6.97373 11.1992 7.31057 11.9036 7.34178C13.2866 7.40299 14.7704 6.44252 15.754 7.92342C16.1668 8.54507 16.241 9.27485 16.241 10.0009C16.241 11.5364 15.8178 12.9492 14.9191 14.2042C14.5638 14.7005 13.8808 15.6433 13.2051 15.6888C12.7355 15.7204 13.005 14.9944 13.0113 14.7356C13.0289 14.0174 12.9519 12.3195 12.0964 12.0618C11.6132 11.9162 11.2773 12.4773 11.1357 12.8514C10.9182 13.4259 10.8668 14.0778 10.8934 14.6873C10.9037 14.9215 11.0695 15.3327 10.9382 15.5433C10.7199 15.8937 10.0834 15.4497 9.87957 15.2906C8.20149 13.9809 7.83195 11.7526 7.85562 9.75934C7.87026 8.52531 8.5014 7.24143 9.83133 7.06774H9.83133ZM10.1572 7.82868C9.84439 8.07808 10.8628 8.31235 10.988 8.33602C11.7151 8.47352 12.4838 8.42864 13.2048 8.2809C13.4138 8.23804 13.7952 8.20021 13.9459 8.03464C14.0991 7.86622 13.8772 7.77993 13.7347 7.80443C12.8691 7.95338 12.1224 8.18741 11.2289 8.04716C11.0054 8.01208 10.3359 7.68625 10.1572 7.82868V7.82868ZM1.83132 13.4312C1.74747 13.7945 1.61331 14.5461 1.3292 14.7983C1.03921 15.0559 0.373585 15.1805 0 15.2671V15.3154L1.36375 15.8232L1.87952 17.1513L2.38602 15.8188L3.71084 15.3154L2.38602 14.7984L1.83132 13.4312V13.4312ZM4.38554 17.4412C4.2045 18.2257 3.9611 18.2968 3.27711 18.6007L4.10393 18.9636L4.43373 19.7603L4.79128 18.9313L5.59036 18.6007L4.75672 18.2423L4.38554 17.4412Z" fill="white"/>
</svg>
