<svg width="108" height="108" viewBox="0 0 108 108" fill="none" xmlns="http://www.w3.org/2000/svg">
<path fill-rule="evenodd" clip-rule="evenodd" d="M54 104.625C80.0955 104.625 101.25 83.4705 101.25 57.375C101.25 31.2795 80.0955 10.125 54 10.125C27.9045 10.125 6.75 31.2795 6.75 57.375C6.75 65.8492 8.98087 73.8024 12.8874 80.6793L6.75 104.625L31.4377 98.9003C38.1421 102.551 45.8288 104.625 54 104.625ZM54 97.3558C76.0808 97.3558 93.9808 79.4558 93.9808 57.375C93.9808 35.2942 76.0808 17.3942 54 17.3942C31.9192 17.3942 14.0192 35.2942 14.0192 57.375C14.0192 65.9005 16.6877 73.8027 21.235 80.292L17.6538 93.7212L31.3198 90.3047C37.7641 94.7516 45.5779 97.3558 54 97.3558Z" fill="#BFC8D0"/>
<path d="M94.5 54C94.5 76.3675 76.3675 94.5 54 94.5C45.4686 94.5 37.5532 91.8621 31.0252 87.3573L17.1818 90.8182L20.8094 77.2146C16.2031 70.641 13.5 62.6362 13.5 54C13.5 31.6325 31.6325 13.5 54 13.5C76.3675 13.5 94.5 31.6325 94.5 54Z" fill="url(#paint0_linear_10:40)"/>
<path fill-rule="evenodd" clip-rule="evenodd" d="M54 101.25C80.0955 101.25 101.25 80.0955 101.25 54C101.25 27.9045 80.0955 6.75 54 6.75C27.9045 6.75 6.75 27.9045 6.75 54C6.75 62.4742 8.98087 70.4274 12.8874 77.3043L6.75 101.25L31.4377 95.5253C38.1421 99.1758 45.8288 101.25 54 101.25ZM54 93.9808C76.0808 93.9808 93.9808 76.0808 93.9808 54C93.9808 31.9192 76.0808 14.0192 54 14.0192C31.9192 14.0192 14.0192 31.9192 14.0192 54C14.0192 62.5255 16.6877 70.4277 21.235 76.917L17.6538 90.3462L31.3198 86.9297C37.7641 91.3766 45.5779 93.9808 54 93.9808Z" fill="white"/>
<path d="M42.1876 32.0625C41.0642 29.8061 39.3408 30.0058 37.5998 30.0058C34.4883 30.0058 29.6367 33.7328 29.6367 40.669C29.6367 46.3536 32.1416 52.5763 40.5824 61.8848C48.7284 70.8683 59.4317 75.5154 68.3174 75.3572C77.2032 75.199 79.0313 67.5525 79.0313 64.9702C79.0313 63.8257 78.3211 63.2546 77.8318 63.0995C74.8038 61.6463 69.219 58.9385 67.9483 58.4298C66.6776 57.921 66.0141 58.6091 65.6016 58.9835C64.4493 60.0816 62.165 63.318 61.3829 64.046C60.6007 64.7739 59.4347 64.4055 58.9494 64.1303C57.1638 63.4138 52.3224 61.2603 48.4632 57.5193C43.6905 52.8927 43.4104 51.3009 42.5112 49.884C41.7918 48.7504 42.3197 48.0549 42.5831 47.751C43.6114 46.5645 45.0313 44.7326 45.668 43.8223C46.3048 42.912 45.7993 41.5298 45.496 40.669C44.1915 36.9668 43.0863 33.8677 42.1876 32.0625Z" fill="white"/>
<defs>
<linearGradient id="paint0_linear_10:40" x1="89.4375" y1="23.625" x2="13.5" y2="94.5" gradientUnits="userSpaceOnUse">
<stop stop-color="#5BD066"/>
<stop offset="1" stop-color="#27B43E"/>
</linearGradient>
</defs>
</svg>
