<svg width="24" height="25" viewBox="0 0 24 25" fill="none" xmlns="http://www.w3.org/2000/svg">
<path d="M14.8403 11.9141C14.8319 11.9098 14.8234 11.9054 14.815 11.9011C14.8023 11.8968 14.7939 11.9011 14.7812 11.9011C14.6673 11.8751 14.5533 11.849 14.4309 11.8273C15.3299 11.0592 15.9081 9.88305 15.9081 8.55939V7.17931C15.9081 4.87483 14.1524 3 11.9957 3C10.278 3 8.81353 4.19347 8.29442 5.84696C8.2902 5.85564 8.28597 5.86432 8.28597 5.873C8.15935 6.28529 8.08761 6.72362 8.08761 7.17931V8.55939C8.08761 9.88305 8.66581 11.0592 9.56476 11.8273C9.44659 11.849 9.33264 11.8751 9.21869 11.9011C9.20603 11.9011 9.19759 11.9011 9.18492 11.9011C9.17648 11.9054 9.16805 11.9098 9.15961 11.9141C2.76141 13.3723 2.99775 19.7389 3.00197 19.791V21.7526C3.00197 21.8915 3.1117 22 3.24253 22C3.37759 22 3.48311 21.8872 3.48311 21.7526V19.778C3.47045 19.5219 3.26786 13.8801 9.06254 12.4392L10.7718 19.8474C10.7971 19.9603 10.8984 20.0384 11.0082 20.0384C11.025 20.0384 11.0461 20.034 11.063 20.0297C11.0841 20.0254 11.1052 20.0123 11.1263 19.9993C11.1643 20.021 11.2107 20.0384 11.2614 20.034C11.3922 20.021 11.4935 19.9038 11.4809 19.765L11.1179 15.1343L12.0042 13.7282L12.8905 15.1039L12.5191 19.7606C12.5064 19.8952 12.6077 20.0167 12.7385 20.0297C12.747 20.0297 12.7512 20.0297 12.7596 20.0297C12.8018 20.0297 12.8398 20.0167 12.8778 19.995C12.8989 20.008 12.9158 20.0167 12.9369 20.0254C12.9538 20.0297 12.9749 20.034 12.9918 20.034C13.1015 20.034 13.1986 19.9559 13.2281 19.8431L14.9374 12.4349C20.7321 13.8757 20.5295 19.5176 20.5168 19.7867V21.7483C20.5168 21.8872 20.6266 21.9957 20.7574 21.9957C20.8924 21.9957 20.998 21.8828 20.998 21.7483V19.7997C21.0022 19.7389 21.2427 13.3767 14.8403 11.9141ZM12 3.49908C13.7768 3.49908 15.2455 4.96163 15.4101 6.82778C14.2115 6.31567 13.8527 5.15692 13.8359 5.10484C13.8021 4.98766 13.6881 4.91388 13.57 4.93124C13.4518 4.9486 13.3632 5.05277 13.3632 5.17428C13.3632 5.18296 13.321 5.99452 11.7425 6.38077C10.1641 6.76702 9.13429 6.12906 8.80087 5.873C9.29888 4.48424 10.5439 3.49908 12 3.49908ZM8.57296 8.56373V7.18364C8.57296 6.90155 8.60673 6.63248 8.66159 6.36775C9.16383 6.70626 10.2696 7.2444 11.8565 6.85815C12.8863 6.60644 13.3843 6.17245 13.6248 5.8079C13.9034 6.31133 14.452 7.01439 15.4312 7.36158V8.56807C15.4312 10.5991 13.8949 12.2526 12.0042 12.2526C10.1134 12.2439 8.57296 10.5948 8.57296 8.56373ZM10.8689 18.1028L9.53522 12.3394C9.72936 12.3004 9.93195 12.2656 10.1388 12.2396C10.4806 12.4392 10.852 12.5825 11.2445 12.6649C11.101 12.743 10.9997 12.8949 10.9997 13.0772C10.9997 13.3333 11.2023 13.5416 11.4513 13.5416H11.5568L10.6663 14.952C10.6368 14.9998 10.6241 15.0518 10.6283 15.1083L10.8689 18.1028ZM13.1395 18.0941L13.3801 15.0736C13.3843 15.0171 13.3716 14.9607 13.3421 14.9173L12.4516 13.5372H12.5528C12.8018 13.5372 13.0044 13.3289 13.0044 13.0729C13.0044 12.8949 12.9031 12.7387 12.7596 12.6606C13.1521 12.5781 13.5236 12.4349 13.8654 12.2353C14.0722 12.2656 14.2748 12.296 14.4689 12.3351L13.1395 18.0941Z" fill="white"/>
<path d="M8.13004 17.1885H4.3775C4.20271 17.1885 4.06616 17.3308 4.06616 17.5005C4.06616 17.6702 4.20818 17.8125 4.3775 17.8125H8.13004C8.30484 17.8125 8.44139 17.6702 8.44139 17.5005C8.44139 17.3308 8.30484 17.1885 8.13004 17.1885Z" fill="white"/>
<rect x="1" y="1" width="22" height="22.9143" rx="2" stroke="white" stroke-width="2"/>
</svg>
