<svg width="137" height="31" viewBox="0 0 137 31" fill="none" xmlns="http://www.w3.org/2000/svg">
<path d="M13.9329 22.0066C12.495 22.4874 12.3195 25.3414 11.8193 26.6709C11.6103 27.2263 11.3194 28.0611 10.6842 28.2427C9.06398 28.706 7.74113 25.6955 8.44441 24.5094C9.63876 22.4951 12.4226 22.0852 14.3854 21.2102V21.0965C12.2161 21.1146 9.22032 23.0792 7.14724 21.9563C5.4935 21.0606 6.54248 19.5156 7.71115 18.8233C10.0761 17.4224 12.9665 16.9978 15.6297 16.555C20.321 15.775 24.9392 15.7644 29.6569 16.2239C31.2492 16.379 32.8255 16.6615 34.408 16.8873C35.082 16.9834 35.7677 17.262 36.4443 17.1147V17.0009C34.9738 16.4461 33.2436 16.2928 31.6931 16.076C28.6498 15.6506 25.6015 15.4082 22.5302 15.4082C18.1759 15.4082 13.663 16.0142 9.40799 16.9527C8.2331 17.2118 5.68988 18.0987 4.86748 16.7684C4.36137 15.9499 5.19576 14.8146 5.78977 14.2948C7.2857 12.9855 9.9081 12.6567 11.7836 12.2096C19.7603 10.3084 28.1317 10.3161 36.1049 12.2376C39.1397 12.9691 42.0979 13.8767 45.0416 14.9141C45.6859 15.1412 47.549 16.2652 47.8696 15.2945C36.7717 10.6539 24.5484 9.15174 12.6885 11.1518C10.2294 11.5666 7.80561 12.3233 5.33558 12.645C4.32064 12.7772 3.07155 12.3517 3.52223 11.0852C4.50311 8.32808 8.80437 7.80534 11.2179 7.25688C19.239 5.43437 28.1324 5.87259 36.1049 7.7728C38.7852 8.4117 41.4467 9.26346 44.0235 10.2406C44.3753 10.374 46.2412 11.3439 46.4271 10.8185C46.6177 10.2802 44.715 9.74741 44.3628 9.60623C42.0167 8.66551 39.5714 7.96074 37.123 7.34539C29.6035 5.4553 21.7325 5.09535 14.046 5.87122C11.5695 6.12116 9.10437 6.6223 6.69305 7.23162C5.78456 7.46108 4.35334 8.13196 3.42641 7.70318C2.50605 7.27758 3.7263 5.91616 4.10141 5.51082C5.31273 4.20207 6.9073 3.30572 8.72925 3.62949C10.4434 3.93404 12.0014 4.81867 13.7066 5.16725C15.1911 5.47088 17.9076 5.17452 19.3628 4.76224C20.9414 4.31481 22.4224 3.46226 24.1139 3.58694C25.4616 3.68637 26.1828 4.71094 27.3622 5.09512C28.5897 5.495 30.1799 5.46076 31.4669 5.62447C30.4465 1.29447 25.5018 -0.685715 21.5121 0.212115C19.5461 0.654546 17.9314 1.86955 15.856 1.87023C13.733 1.87093 12.0982 0.658185 10.0867 0.212001C6.11047 -0.669902 1.22403 1.31882 0.20593 5.62447C-0.289208 7.71865 0.199837 10.0589 0.711927 12.1091C1.85503 16.6863 3.90232 21.4211 6.1926 25.5333C7.13999 27.2342 8.23219 30.2289 10.313 30.8072C11.4155 31.1136 12.1622 30.0643 12.5241 29.1737C13.3759 27.0777 13.9142 24.2691 13.9329 22.0066V22.0066ZM28.2994 7.21717L28.4125 9.83376L31.3537 10.1751L31.58 7.55847L28.2994 7.21717H28.2994ZM28.2994 11.5402L27.5076 14.9532L30.1094 15.1807L31.0144 11.8815L28.2994 11.5402ZM26.942 16.6596C26.4768 19.7829 24.6444 23.3077 23.045 25.9883C22.6822 26.5963 21.5006 28.8429 20.618 28.0052C20.0081 27.4264 19.7153 26.4296 19.4732 25.647C18.9386 23.919 18.5205 22.1596 18.046 20.4139C17.7367 19.2755 17.4577 17.8341 16.1953 17.456C17.7815 20.0968 17.7944 23.3592 18.3899 26.3296C18.6615 27.685 18.8689 29.4232 19.9332 30.41C21.4176 31.786 23.0915 29.624 23.8836 28.4912C25.3993 26.3231 26.4506 23.8361 27.5425 21.4378C28.2062 19.9801 29.1587 18.3617 29.4307 16.7734L26.942 16.6596ZM13.5935 20.5276L14.2723 20.4139C14.4781 19.4135 14.7494 18.2852 15.5166 17.5698C14.2943 17.2483 13.7845 19.6976 13.5935 20.5276ZM55.4903 6.34185C55.043 6.61306 55.1253 7.25731 55.1251 7.70372V11.3442C55.1251 13.2567 54.7971 15.5328 55.3921 17.3737C56.3613 20.3727 59.9681 21.6903 62.7043 20.3001C66.162 18.5433 65.0799 13.1614 65.0799 9.97902C65.0799 9.10667 65.54 5.81182 63.8479 6.27587C62.9969 6.50931 63.3831 9.04581 63.3831 9.75149C63.3831 12.8013 64.465 19.4249 59.65 19.07C58.5455 18.9885 57.4914 18.3526 57.1371 17.26C56.3852 14.9413 56.9351 11.7225 56.9351 9.29643C56.9351 8.60258 57.0994 5.36598 55.4903 6.34185H55.4903ZM66.5655 6.30976C65.6725 6.68518 66.098 9.39756 66.098 10.2065C66.098 13.3476 65.318 17.4793 68.0211 19.7253C68.7747 20.3516 70.6256 21.3607 71.6243 20.7663C72.2911 20.3694 71.8252 19.4988 71.2911 19.2416C70.4056 18.8151 69.5119 19.0329 68.737 18.2467C67.8958 17.3935 67.908 16.2121 67.908 15.0984V9.18266C67.908 8.42807 68.1205 5.65607 66.5656 6.30977L66.5655 6.30976ZM73.0243 6.30944C72.1338 6.72025 72.8381 9.38337 72.61 10.2061C72.3599 11.1087 70.6631 10.6317 70.9032 11.6758C71.1187 12.6131 72.4118 12.1697 72.6231 12.9437C72.9064 13.9811 72.5911 15.2774 72.6693 16.35C72.8022 18.1715 74.1409 19.8719 75.8266 20.5168C76.4095 20.7398 77.5753 21.1471 78.1576 20.7664C78.7868 20.3551 78.3408 19.5863 77.8626 19.2813C77.3815 18.9745 76.6978 19.0774 76.1659 18.8606C74.7946 18.3023 74.458 17.018 74.3661 15.6674C74.3142 14.9048 74.0423 13.0395 74.8208 12.5989C75.4488 12.2433 77.5718 12.9704 77.6747 11.9081C77.8391 10.2123 75.1716 11.3447 74.5373 10.7069C73.8555 10.0211 74.5472 7.92672 74.32 7.02139C74.1842 6.48032 73.5703 6.05757 73.0243 6.30944ZM103.315 6.27361C98.0855 7.02707 95.746 13.399 98.6318 17.7151C100.306 20.2191 103.276 21.1878 106.143 20.7675C110.584 20.1165 112.617 14.95 111.207 11.003C110.034 7.7206 106.733 5.78125 103.315 6.27362V6.27361ZM131.608 6.30992C130.716 6.67692 131.143 9.39431 131.143 10.2067C131.143 13.3787 130.351 17.4503 133.066 19.7258C133.825 20.3612 135.658 21.3688 136.67 20.7664C137.336 20.3701 136.87 19.4869 136.345 19.2145C135.433 18.7409 134.478 19.0277 133.671 18.1492C132.926 17.3381 132.953 16.128 132.953 15.0986V9.18267C132.953 8.41693 133.17 5.66769 131.608 6.30978V6.30992ZM104.22 7.96369C111.113 7.13742 111.832 18.3973 105.238 19.0607C103.852 19.2002 102.325 19.0289 101.166 18.1941C98.7437 16.4496 98.5748 12.1012 100.411 9.86526C101.388 8.67563 102.735 8.14173 104.22 7.96369ZM82.9533 10.5965C79.5776 11.084 78.7677 13.6906 78.7677 16.6911C78.7677 17.5738 78.2929 20.7449 79.8968 20.5106C80.631 20.4033 80.4646 19.3789 80.4646 18.8527C80.4646 17.2897 80.17 15.232 81.0452 13.847C81.6788 12.8446 82.9065 12.2419 84.0845 12.3304C84.6295 12.3714 85.5923 12.8586 86.0716 12.4936C86.6059 12.0866 86.1969 11.3756 85.7792 11.0828C85.0336 10.5604 83.8261 10.4705 82.9533 10.5965ZM95.3967 19.0802C95.6484 19.6228 96.1733 20.2478 96.7542 20.4594C97.2089 20.625 97.7444 20.2762 97.6974 19.7627C97.6186 18.9003 96.4696 18.2627 96.2759 17.3082C95.923 15.5682 96.7378 13.3295 96.1046 11.6859C95.7071 10.6542 94.569 10.7518 94.3786 11.7993C93.7802 11.2877 93.1128 10.9031 92.3424 10.7188C86.0328 9.20963 83.7958 18.6657 89.7406 20.6148C90.5937 20.8945 91.4647 20.9159 92.3424 20.7702C93.6061 20.5603 94.3966 19.7859 95.3967 19.0802ZM116.551 10.5965C113.191 11.0816 112.365 13.6998 112.365 16.6911C112.365 17.5688 111.874 20.7757 113.494 20.4975C114.228 20.3714 114.062 19.391 114.062 18.8527C114.062 17.2471 113.768 15.2729 114.665 13.8471C115.304 12.8303 116.479 12.2261 117.682 12.3317C118.246 12.3812 119.18 12.8802 119.682 12.4963C120.217 12.0872 119.786 11.3743 119.377 11.0771C118.647 10.547 117.413 10.4721 116.551 10.5965V10.5965ZM128.768 19.0802H128.881C129.253 19.6114 130.795 21.3876 131.268 20.0074C131.51 19.2987 130.273 18.4652 130.026 17.8288C129.28 15.9122 130.421 13.5511 129.702 11.6859C129.315 10.6825 128.121 10.7199 127.976 11.7993C127.15 11.0933 126.221 10.713 125.148 10.5804C124.321 10.4783 123.429 10.6282 122.659 10.9407C121.948 11.2294 121.372 11.6684 120.873 12.2543C119.296 14.1069 119.46 17.4306 121.109 19.1745C123.092 21.2713 126.963 21.6347 128.768 19.0802H128.768ZM91.2112 12.2971C95.3405 12.0727 95.4507 18.7528 91.5506 19.0696C90.6722 19.1409 89.6572 19.054 88.9536 18.467C86.5863 16.4915 88.3986 12.4499 91.2112 12.2971ZM124.809 12.2971C129.001 12.068 129.015 18.7763 125.035 19.07C120.487 19.4054 120.481 12.5335 124.809 12.2971ZM60.3948 22.2754C60.0905 22.4903 60.2157 23.1981 60.2157 23.517C60.2157 24.6572 59.8922 26.3876 60.5345 27.3846C60.8114 27.8142 61.9433 28.7277 62.4905 28.1803C62.7615 27.9092 61.2789 27.2135 61.1046 26.9282C60.5501 26.0206 60.8965 24.2117 60.8944 23.1757C60.8941 22.9493 60.9024 21.917 60.3949 22.2754H60.3948ZM92.7949 24.4271C91.8432 24.0366 90.8639 23.7346 89.9718 24.472C88.7726 25.4633 89.1108 27.7763 90.6456 28.2225C93.2653 28.9843 93.4737 26.2363 93.4737 24.4271C93.4737 23.96 93.7034 22.5823 93.2787 22.2754C92.6586 21.8274 92.7949 24.145 92.7949 24.4271H92.7949ZM103.768 24.3134V24.5409C105.194 25.0792 104.243 29.3145 107.048 28.1814C106.803 27.5527 106.159 27.6848 105.716 27.2453C105.279 26.811 104.86 25.2013 105.501 24.7716C105.815 24.5605 106.346 24.6487 106.709 24.5409C106.393 23.9648 105.815 24.1173 105.238 24.0858V23.2893C105.238 23.0695 105.03 21.5992 104.628 22.4161C104.181 23.3232 104.857 23.7678 103.768 24.3134H103.768ZM114.741 28.2951C114.671 27.4107 113.51 27.5719 113.158 26.7023C112.8 25.8174 113.044 24.4618 113.044 23.517C113.044 23.1981 113.169 22.4904 112.865 22.2754C112.3 21.8765 112.365 23.179 112.365 23.4032C112.365 25.4628 111.909 28.2873 114.741 28.2951ZM63.6093 23.517C64.2106 23.439 64.8529 23.4136 64.9668 22.7207C64.4171 22.7773 63.8008 22.953 63.6093 23.517ZM116.89 23.2895C117.948 24.0308 118.788 22.2235 117.348 22.9971C117.189 23.0825 117.04 23.1899 116.89 23.2895ZM70.6229 23.2895L71.3016 23.4033C71.2134 22.8696 70.8389 22.7501 70.6229 23.2895V23.2895ZM125.447 22.9558C125.199 23.1405 125.533 23.4465 125.754 23.2819C126.002 23.0972 125.668 22.7912 125.447 22.9558ZM57.9532 24.0254C54.9772 24.5864 56.3962 29.4122 59.0676 28.1934C59.271 28.1007 59.4983 27.8068 59.2402 27.6254C58.9801 27.4425 58.4821 27.6504 58.1795 27.6129C57.2731 27.5011 56.7431 26.5311 57.0089 25.6787C57.198 25.0724 57.7753 24.667 58.4057 24.6862C58.6502 24.6937 59.0245 24.8719 59.2358 24.6793C59.8415 24.1272 58.2023 23.9784 57.9532 24.0254V24.0254ZM67.1161 24.0323C65.7857 24.3347 65.4212 25.4742 65.4193 26.7024C65.419 27.0035 65.2686 28.109 65.7677 28.109C66.2253 28.109 66.0979 27.207 66.098 26.9299C66.0983 25.9384 66.4462 24.43 67.7949 24.7013C68.9683 24.9373 69.0368 26.1901 69.0392 27.1575C69.0395 27.362 68.9659 28.1552 69.3593 28.0766C69.7866 27.9911 69.6053 26.6766 69.6048 26.3611C69.6024 24.9698 68.6628 23.6809 67.1161 24.0323H67.1161ZM75.8266 24.7684C75.7168 23.3839 73.7142 24.0923 73.1432 24.7733C71.8753 26.2853 73.6755 29.4428 75.5638 28.1611C75.7692 28.0218 75.8498 27.6887 75.5638 27.5871C74.9779 27.379 74.5031 27.7989 73.9157 27.3203C73.0218 26.5921 73.319 25.189 74.3561 24.7696C74.8242 24.5803 75.3418 24.7475 75.8266 24.7682V24.7684ZM80.4646 27.6123C80.5752 27.8241 81.2769 28.4676 81.2993 27.8419C81.3125 27.4746 80.867 27.0698 80.771 26.7022C80.5921 26.0158 80.9569 24.979 80.6226 24.3675C80.4655 24.0801 79.8409 24.2739 79.5494 24.183C79.0564 24.0293 78.6036 23.9271 78.089 24.0496C75.5534 24.653 76.311 28.4929 78.8809 28.2843C79.4863 28.235 79.9492 27.8994 80.4646 27.6123L80.4646 27.6123ZM86.3469 24.0235C83.4987 24.4136 84.1503 28.6396 87.0257 28.2738C89.6235 27.9433 88.9513 23.6668 86.3469 24.0235ZM95.9623 24.0266C93.171 24.4884 93.9112 28.7169 96.7542 28.2705C99.3191 27.8677 98.5828 23.5931 95.9623 24.0266V24.0266ZM100.827 24.0249C99.5021 24.2746 99.1302 25.3878 99.1298 26.5881C99.1297 26.9049 98.9524 28.1084 99.4691 28.1084C99.9372 28.1084 99.8085 27.2152 99.8085 26.9294C99.8086 25.8764 100.143 24.2657 101.618 24.7517C102.665 25.0965 102.635 26.1261 102.637 27.0432C102.637 27.3121 102.549 28.1084 102.985 28.1084C103.508 28.1084 103.319 26.6881 103.315 26.3606C103.298 24.9627 102.33 23.7415 100.827 24.0249ZM109.085 24.0262C106.381 24.4532 106.904 28.6696 109.65 28.3065C112.348 27.9498 111.816 23.595 109.085 24.0262ZM116.777 24.0266C113.944 24.4931 114.717 28.775 117.569 28.2574C120.122 27.7938 119.37 23.5996 116.777 24.0266V24.0266ZM123.451 27.8399C123.437 28.4383 123.304 28.9741 122.768 29.318C122.524 29.4738 121.941 29.5076 121.839 29.8165C121.69 30.2716 122.431 30.2213 122.659 30.1563C123.253 29.9874 123.73 29.5485 123.962 28.9776C124.35 28.0255 124.354 25.9034 123.856 24.9963C123.243 23.8779 121.586 23.6649 120.644 24.4876C118.55 26.3164 121.193 29.3854 123.451 27.8399ZM128.994 24.0252C126.026 24.5751 127.452 29.4052 130.108 28.1933C130.312 28.1007 130.539 27.8065 130.281 27.6253C130.015 27.4386 129.528 27.6706 129.22 27.6287C128.319 27.5053 127.783 26.5287 128.05 25.679C128.223 25.1275 128.759 24.7186 129.333 24.6867C129.606 24.6716 130.047 24.8883 130.277 24.6793C130.883 24.1266 129.242 23.9794 128.994 24.0253V24.0252ZM134.99 27.4988C135.151 27.8021 136.118 28.4889 135.88 27.7196C135.754 27.3148 135.445 27.0252 135.366 26.5887C135.248 25.9286 135.472 25.1925 135.293 24.5481C135.152 24.0424 134.759 24.3093 134.392 24.244C133.395 24.0668 132.431 23.7429 131.64 24.6666C129.698 26.9358 132.928 29.4598 134.99 27.4988V27.4988ZM70.9623 24.2198C70.548 24.2854 70.6235 24.9293 70.6229 25.2236C70.6215 25.8252 70.6619 28.688 71.9292 28.2144C72.1994 28.1134 72.0643 27.825 71.9513 27.6605C71.3018 26.7153 71.3223 26.003 71.301 24.8828C71.2969 24.664 71.3129 24.1643 70.9622 24.2198H70.9623ZM126.732 28.2953C126.683 27.6767 126.191 27.3854 126.014 26.8164C125.796 26.12 126.254 24.9516 125.824 24.3564C125.623 24.0778 125.366 24.2986 125.297 24.5482C124.959 25.769 125.162 28.1763 126.732 28.2953V28.2953ZM63.3831 24.1998C63.3507 25.1393 63.1478 26.5149 63.5434 27.3852C63.6574 27.6359 64.3901 28.7036 64.7206 28.1124C64.9136 27.7672 64.263 27.2188 64.1266 26.9301C63.7595 26.1531 63.9487 25.0395 63.9487 24.1998H63.3831H63.3831ZM78.3153 24.694C80.2071 24.3481 80.7057 27.321 78.8808 27.6384C77.0281 27.9607 76.5175 25.0226 78.3153 24.694ZM86.3469 24.6926C88.1506 24.3896 88.7053 27.3212 86.9125 27.6151C84.962 27.9346 84.4352 25.0138 86.3469 24.6926ZM90.985 24.6999C92.871 24.2867 93.5077 27.2745 91.6637 27.6439C89.7925 28.0189 89.1498 25.102 90.985 24.6999ZM95.9623 24.6999C97.7854 24.3011 98.4151 27.157 96.6411 27.6146C94.7375 28.1056 94.1044 25.1064 95.9623 24.6999ZM109.085 24.6938C110.934 24.3581 111.466 27.2829 109.65 27.6439C107.785 28.0148 107.27 25.0232 109.085 24.6938ZM116.777 24.6941C118.663 24.3283 119.154 27.323 117.342 27.6381C115.482 27.9619 114.978 25.0429 116.777 24.6941ZM121.754 24.6941C123.641 24.3283 124.132 27.323 122.32 27.6381C120.459 27.9619 119.955 25.0429 121.754 24.6941ZM132.953 24.6938C134.824 24.3531 135.334 27.2916 133.519 27.6281C131.645 27.9755 131.134 25.0253 132.953 24.6938V24.6938Z" fill="#D4AF37"/>
</svg>
