<svg viewBox="0 0 358 81" fill="none" xmlns="http://www.w3.org/2000/svg">
<path d="M36.4086 57.5011C32.6511 58.7573 32.1927 66.2146 30.8855 69.6886C30.3392 71.1398 29.5792 73.3211 27.9194 73.7955C23.6854 75.0059 20.2286 67.1399 22.0664 64.0407C25.1874 58.7775 32.462 57.7065 37.591 55.4203V55.123C31.9225 55.1704 24.094 60.3036 18.6767 57.3697C14.3553 55.0294 17.0964 50.9924 20.1503 49.1836C26.3302 45.5232 33.8832 44.4135 40.8426 43.2566C53.1017 41.2186 65.1697 41.1909 77.4976 42.3916C81.6585 42.7967 85.7775 43.5348 89.913 44.1249C91.6742 44.3761 93.4659 45.104 95.2339 44.7191V44.4218C91.3913 42.9721 86.87 42.5714 82.8185 42.0051C74.8658 40.8934 66.9002 40.2602 58.8745 40.2602C47.4961 40.2602 35.7032 41.8434 24.5844 44.2958C21.5142 44.9726 14.8684 47.29 12.7194 43.8142C11.3969 41.6755 13.5772 38.7092 15.1295 37.351C19.0385 33.9299 25.8912 33.0708 30.7921 31.9026C51.6363 26.9349 73.512 26.9551 94.3471 31.9757C102.278 33.887 110.008 36.2585 117.7 38.9692C119.384 39.5625 124.252 42.4994 125.09 39.963C96.0897 27.8376 64.1484 23.9126 33.1569 29.1387C26.7308 30.2225 20.3971 32.1995 13.9426 33.0402C11.2904 33.3856 8.02638 32.2738 9.20406 28.9645C11.7673 21.7605 23.007 20.3946 29.3141 18.9615C50.2742 14.1995 73.5137 15.3445 94.3471 20.3096C101.351 21.979 108.306 24.2045 115.039 26.7577C115.959 27.1063 120.835 29.6404 121.32 28.2677C121.819 26.8611 116.846 25.469 115.926 25.1001C109.795 22.6421 103.406 20.8006 97.0075 19.1928C77.3581 14.2542 56.7899 13.3137 36.7042 15.3409C30.2328 15.994 23.791 17.3034 17.4899 18.8955C15.1159 19.4951 11.3759 21.248 8.95369 20.1277C6.54865 19.0156 9.73734 15.4584 10.7176 14.3992C13.8829 10.9796 18.0497 8.63752 22.8107 9.4835C27.2901 10.2793 31.3614 12.5907 35.8174 13.5015C39.6966 14.2949 46.7949 13.5205 50.5976 12.4433C54.7228 11.2742 58.5928 9.04654 63.013 9.37233C66.5348 9.63214 68.4193 12.3092 71.5013 13.3131C74.7089 14.3579 78.8642 14.2684 82.2273 14.6962C79.5609 3.38233 66.6398 -1.79171 56.2141 0.554236C51.0768 1.71027 46.8573 4.88496 41.4338 4.88674C35.8862 4.88855 31.6141 1.71977 26.358 0.553937C15.9675 -1.75039 3.19856 3.44595 0.538123 14.6962C-0.75574 20.1681 0.522203 26.2829 1.86036 31.6398C4.84745 43.5996 10.1973 55.9714 16.1821 66.716C18.6578 71.1603 21.5119 78.9852 26.9492 80.4962C29.8302 81.2967 31.7815 78.5551 32.7271 76.2282C34.953 70.7515 36.3598 63.4129 36.4086 57.501V57.5011ZM73.9504 18.8578L74.2459 25.6947L81.9316 26.5864L82.5229 19.7495L73.9503 18.8578H73.9504ZM73.9503 30.1535L71.8811 39.0712L78.68 39.6657L81.0448 31.0453L73.9503 30.1535V30.1535ZM70.4031 43.53C69.1876 51.6909 64.3994 60.9008 60.2198 67.905C59.2718 69.4935 56.1839 75.3638 53.8776 73.1748C52.284 71.6626 51.5187 69.0581 50.8861 67.0133C49.4891 62.4979 48.3965 57.9009 47.1567 53.3395C46.3486 50.3651 45.6193 46.5989 42.3207 45.6108C46.4656 52.511 46.4993 61.0354 48.0554 68.7968C48.7651 72.3383 49.307 76.8801 52.0883 79.4585C55.9672 83.0538 60.3413 77.4047 62.4111 74.4447C66.3719 68.7798 69.119 62.2815 71.9725 56.0148C73.7068 52.206 76.1958 47.9773 76.9064 43.8273L70.4031 43.53ZM35.5218 53.6367L37.2954 53.3395C37.8334 50.7257 38.5422 47.7775 40.547 45.9081C37.353 45.068 36.0207 51.468 35.5218 53.6367ZM145.004 16.5706C143.835 17.2793 144.05 18.9627 144.05 20.1291V29.6413C144.05 34.6385 143.192 40.5857 144.747 45.3959C147.28 53.2318 156.705 56.6746 163.855 53.0422C172.891 48.4519 170.063 34.3894 170.063 26.0742C170.063 23.7949 171.265 15.1857 166.843 16.3982C164.62 17.0082 165.629 23.6358 165.629 25.4797C165.629 33.4485 168.456 50.7554 155.874 49.8279C152.987 49.6151 150.233 47.9534 149.307 45.0986C147.342 39.0402 148.779 30.6297 148.779 24.2907C148.779 22.4777 149.209 14.0208 145.004 16.5706H145.004ZM173.945 16.4868C171.611 17.4677 172.723 24.5549 172.723 26.6687C172.723 34.8759 170.685 45.6717 177.749 51.5404C179.718 53.1768 184.555 55.8135 187.164 54.2603C188.907 53.2232 187.689 50.9486 186.294 50.2765C183.98 49.1621 181.644 49.731 179.619 47.677C177.421 45.4476 177.453 42.3605 177.453 39.4507V23.9934C177.453 22.0217 178.008 14.7788 173.945 16.4868L173.945 16.4868ZM190.823 16.486C188.496 17.5594 190.336 24.5178 189.74 26.6676C189.086 29.026 184.652 27.7796 185.28 30.5078C185.843 32.9569 189.222 31.7982 189.774 33.8208C190.515 36.5311 189.691 39.9184 189.895 42.7209C190.242 47.4803 193.741 51.9234 198.145 53.6085C199.669 54.1911 202.715 55.2553 204.237 54.2607C205.881 53.1858 204.715 51.1772 203.466 50.3803C202.209 49.5786 200.422 49.8473 199.032 49.281C195.449 47.8221 194.569 44.4664 194.329 40.9373C194.193 38.9449 193.483 34.071 195.517 32.9198C197.158 31.9905 202.706 33.8903 202.975 31.1148C203.404 26.6836 196.434 29.6425 194.776 27.9761C192.995 26.1842 194.802 20.7118 194.208 18.3462C193.854 16.9324 192.249 15.8278 190.823 16.486V16.486ZM269.977 16.3923C256.311 18.3611 250.198 35.0104 257.739 46.288C262.113 52.8306 269.876 55.3617 277.367 54.2633C288.971 52.5625 294.284 39.0629 290.599 28.7499C287.533 20.1732 278.908 15.1058 269.977 16.3924V16.3923ZM343.911 16.4872C341.578 17.4461 342.696 24.5464 342.696 26.6691C342.696 34.9572 340.626 45.596 347.721 51.5417C349.702 53.2019 354.493 55.8347 357.137 54.2607C358.877 53.2251 357.661 50.9175 356.289 50.2055C353.905 48.9681 351.409 49.7174 349.3 47.422C347.353 45.3029 347.426 42.141 347.426 39.4511V23.9934C347.426 21.9926 347.991 14.8091 343.911 16.4868V16.4872ZM272.342 20.8083C290.354 18.6494 292.233 48.0703 275.002 49.8039C271.38 50.1683 267.389 49.7206 264.361 47.5394C258.031 42.9813 257.59 31.6192 262.389 25.777C264.942 22.6686 268.462 21.2736 272.342 20.8083V20.8083ZM216.768 27.6877C207.947 28.9615 205.831 35.7722 205.831 43.6123C205.831 45.9188 204.59 54.2045 208.781 53.5921C210.7 53.3118 210.265 50.6353 210.265 49.2602C210.265 45.1762 209.495 39.7997 211.782 36.1809C213.438 33.5618 216.646 31.987 219.724 32.2182C221.149 32.3252 223.665 33.5984 224.917 32.6445C226.313 31.5812 225.245 29.7234 224.153 28.9582C222.205 27.5932 219.049 27.3584 216.768 27.6877ZM249.285 49.8547C249.943 51.2726 251.314 52.9054 252.832 53.4583C254.02 53.8911 255.42 52.9797 255.297 51.6379C255.091 49.3847 252.088 47.7186 251.582 45.2246C250.66 40.6781 252.789 34.8287 251.135 30.5342C250.096 27.8384 247.122 28.0935 246.624 30.8303C245.061 29.4935 243.317 28.4888 241.304 28.0073C224.816 24.0639 218.97 48.7718 234.505 53.8644C236.734 54.5953 239.01 54.6512 241.304 54.2704C244.606 53.722 246.671 51.6986 249.285 49.8547V49.8547ZM304.563 27.6877C295.784 28.9552 293.626 35.7963 293.626 43.6123C293.626 45.9056 292.342 54.285 296.576 53.5579C298.493 53.2286 298.06 50.6668 298.06 49.2602C298.06 45.065 297.293 39.9067 299.635 36.1812C301.305 33.5243 304.376 31.9456 307.519 32.2215C308.992 32.3508 311.433 33.6548 312.746 32.6516C314.145 31.5827 313.016 29.7201 311.947 28.9433C310.041 27.5584 306.816 27.3625 304.563 27.6877V27.6877ZM336.488 49.8547H336.784C337.756 51.2426 341.786 55.8836 343.02 52.2773C343.655 50.4257 340.422 48.2477 339.775 46.5849C337.825 41.577 340.807 35.4078 338.929 30.5342C337.919 27.9124 334.797 28.0099 334.419 30.8303C332.261 28.9858 329.834 27.9921 327.029 27.6455C324.869 27.3789 322.536 27.7704 320.526 28.5869C318.668 29.3414 317.161 30.4885 315.858 32.0193C311.738 36.8598 312.166 45.5445 316.476 50.1011C321.657 55.5798 331.773 56.5293 336.488 49.8547H336.488ZM238.348 32.1311C249.138 31.5449 249.426 48.9992 239.234 49.827C236.939 50.0134 234.287 49.7864 232.448 48.2525C226.262 43.0906 230.998 32.5303 238.348 32.1311ZM326.142 32.1311C337.098 31.5324 337.133 49.0607 326.733 49.8279C314.849 50.7045 314.834 32.7488 326.142 32.1311ZM157.82 58.2034C157.025 58.7649 157.352 60.6145 157.352 61.4477C157.352 64.4268 156.507 68.9483 158.185 71.5532C158.909 72.6759 161.866 75.0626 163.296 73.6325C164.004 72.9241 160.13 71.1061 159.675 70.3609C158.226 67.9894 159.131 63.2627 159.126 60.5559C159.125 59.9644 159.146 57.2671 157.82 58.2034H157.82ZM242.486 63.8257C239.999 62.8052 237.44 62.0163 235.109 63.9428C231.975 66.5331 232.859 72.5767 236.87 73.7428C243.715 75.7332 244.26 68.553 244.26 63.8257C244.26 62.6052 244.86 59.0054 243.75 58.2034C242.13 57.0328 242.486 63.0885 242.486 63.8257H242.486ZM271.16 63.5285V64.123C274.886 65.5296 272.402 76.5958 279.732 73.6352C279.091 71.9925 277.408 72.3376 276.251 71.1893C275.109 70.0544 274.015 65.8485 275.688 64.7258C276.51 64.1741 277.897 64.4048 278.845 64.123C278.02 62.6177 276.509 63.0163 275.002 62.934V60.8526C275.002 60.2783 274.458 56.4365 273.407 58.5711C272.24 60.9412 274.005 62.1028 271.16 63.5285H271.16ZM299.833 73.9324C299.651 71.6216 296.617 72.0428 295.697 69.7705C294.762 67.4585 295.399 63.9164 295.399 61.4477C295.399 60.6145 295.726 58.7652 294.931 58.2034C293.455 57.1612 293.626 60.5645 293.626 61.1504C293.625 66.5319 292.435 73.9119 299.833 73.9324V73.9324ZM166.22 61.4477C167.791 61.2438 169.47 61.1775 169.767 59.3669C168.331 59.5149 166.72 59.9739 166.22 61.4477ZM305.45 60.8532C308.215 62.7901 310.409 58.0679 306.645 60.0892C306.23 60.3125 305.842 60.5931 305.45 60.8532ZM184.547 60.8532L186.321 61.1504C186.091 59.756 185.112 59.4439 184.547 60.8532V60.8532ZM327.81 59.9813C327.163 60.4638 328.035 61.2634 328.612 60.8333C329.26 60.3508 328.388 59.5512 327.81 59.9813ZM151.44 62.7761C143.663 64.2419 147.371 76.8512 154.352 73.6667C154.883 73.4244 155.477 72.6566 154.803 72.1825C154.123 71.7045 152.822 72.2478 152.031 72.1498C149.663 71.8576 148.278 69.3232 148.972 67.0959C149.466 65.5118 150.975 64.4524 152.622 64.5026C153.261 64.5223 154.239 64.9878 154.791 64.4847C156.374 63.0421 152.091 62.6533 151.44 62.7761V62.7761ZM175.384 62.7942C171.907 63.5843 170.955 66.5616 170.95 69.7708C170.949 70.5576 170.556 73.4461 171.86 73.4461C173.056 73.4461 172.723 71.0891 172.723 70.3653C172.724 67.7744 173.633 63.8331 177.157 64.5421C180.224 65.1589 180.403 68.4322 180.409 70.9598C180.41 71.4943 180.217 73.5667 181.246 73.3613C182.362 73.1381 181.888 69.7033 181.887 68.879C181.881 65.2436 179.426 61.876 175.384 62.7942H175.384ZM198.145 64.7174C197.859 61.0998 192.625 62.9508 191.133 64.7303C187.82 68.6808 192.524 76.9312 197.459 73.5823C197.995 73.2181 198.206 72.3478 197.459 72.0824C195.928 71.5386 194.687 72.6359 193.152 71.3853C190.816 69.4825 191.593 65.8165 194.303 64.7205C195.526 64.2259 196.879 64.6629 198.145 64.7169V64.7174ZM210.265 72.1483C210.554 72.7018 212.388 74.383 212.446 72.7481C212.481 71.7886 211.317 70.7306 211.066 69.7702C210.598 67.9769 211.552 65.2677 210.678 63.6699C210.267 62.919 208.635 63.4253 207.874 63.1878C206.585 62.7862 205.402 62.5192 204.057 62.8394C197.431 64.416 199.411 74.4493 206.127 73.9041C207.709 73.7754 208.918 72.8985 210.265 72.1482L210.265 72.1483ZM225.637 62.771C218.194 63.7903 219.896 74.8325 227.41 73.8768C234.199 73.0133 232.442 61.8391 225.637 62.771ZM250.763 62.7792C243.469 63.9857 245.403 75.0344 252.832 73.868C259.535 72.8157 257.611 61.6466 250.763 62.7792V62.7792ZM263.474 62.7746C260.013 63.4271 259.041 66.3358 259.04 69.4721C259.04 70.3 258.576 73.4446 259.927 73.4446C261.15 73.4446 260.813 71.1106 260.813 70.3639C260.814 67.6125 261.688 63.4039 265.543 64.6738C268.278 65.5748 268.2 68.2649 268.204 70.6611C268.204 71.3639 267.974 73.4446 269.114 73.4446C270.481 73.4446 269.986 69.7334 269.976 68.8776C269.931 65.2252 267.403 62.0342 263.474 62.7746V62.7746ZM285.053 62.7783C277.987 63.8939 279.356 74.9108 286.531 73.9622C293.58 73.03 292.191 61.6514 285.053 62.7783ZM305.154 62.7791C297.753 63.9981 299.77 75.1863 307.223 73.8337C313.896 72.6224 311.929 61.6635 305.154 62.7791V62.7791ZM322.595 72.7431C322.558 74.3066 322.21 75.7064 320.809 76.605C320.173 77.0123 318.648 77.1006 318.383 77.9076C317.992 79.0966 319.929 78.9652 320.526 78.7955C322.078 78.3541 323.323 77.2073 323.93 75.7156C324.943 73.2279 324.953 67.6832 323.654 65.3129C322.052 62.3905 317.721 61.8341 315.259 63.9838C309.787 68.7622 316.695 76.7813 322.595 72.7431V72.7431ZM337.079 62.7755C329.324 64.2124 333.05 76.833 339.991 73.6663C340.522 73.4244 341.118 72.6557 340.443 72.1821C339.746 71.6944 338.475 72.3007 337.671 72.191C335.315 71.8688 333.915 69.3168 334.612 67.0966C335.065 65.6558 336.466 64.5872 337.966 64.504C338.677 64.4644 339.832 65.0307 340.431 64.4846C342.016 63.0404 337.728 62.6558 337.079 62.7759V62.7755ZM352.747 71.8517C353.169 72.6442 355.694 74.4387 355.072 72.4287C354.745 71.371 353.935 70.6142 353.731 69.4737C353.421 67.749 354.008 65.8254 353.539 64.1418C353.172 62.8205 352.145 63.5178 351.184 63.3472C348.578 62.8841 346.061 62.0378 343.995 64.4515C338.918 70.3806 347.36 76.9755 352.747 71.8517V71.8517ZM185.434 63.284C184.352 63.4555 184.549 65.1379 184.547 65.9069C184.544 67.4788 184.649 74.959 187.961 73.7215C188.667 73.4575 188.314 72.704 188.019 72.2742C186.322 69.8046 186.375 67.9434 186.319 65.0164C186.309 64.4447 186.351 63.1389 185.434 63.284H185.434ZM331.167 73.9329C331.041 72.3167 329.755 71.5554 329.291 70.0685C328.723 68.249 329.919 65.1962 328.796 63.641C328.269 62.913 327.599 63.4899 327.418 64.1421C326.536 67.332 327.065 73.6219 331.167 73.9328V73.9329ZM165.629 63.2316C165.544 65.6867 165.014 69.2808 166.048 71.5548C166.346 72.2099 168.26 74.9997 169.124 73.4549C169.628 72.553 167.928 71.1202 167.572 70.3658C166.613 68.3355 167.107 65.4257 167.107 63.2316H165.629H165.629ZM204.649 64.5229C209.592 63.6193 210.895 71.3872 206.127 72.2165C201.285 73.0586 199.951 65.3817 204.649 64.5229ZM225.637 64.5193C230.35 63.7277 231.799 71.3877 227.115 72.1555C222.017 72.9905 220.641 65.3588 225.637 64.5193ZM237.756 64.5385C242.685 63.4589 244.349 71.2657 239.53 72.2309C234.64 73.2107 232.961 65.5891 237.756 64.5385ZM250.763 64.5385C255.527 63.4964 257.172 70.9587 252.537 72.1542C247.562 73.4372 245.908 65.6006 250.763 64.5385ZM285.053 64.5224C289.886 63.6452 291.276 71.2877 286.531 72.2309C281.656 73.1999 280.31 65.3833 285.053 64.5224ZM305.154 64.5233C310.083 63.5676 311.366 71.3923 306.632 72.2157C301.769 73.0617 300.454 65.4346 305.154 64.5233ZM318.161 64.5233C323.09 63.5676 324.373 71.3923 319.639 72.2157C314.776 73.0617 313.46 65.4346 318.161 64.5233ZM347.426 64.5224C352.314 63.6322 353.647 71.3103 348.904 72.1896C344.008 73.0974 342.67 65.3887 347.426 64.5225V64.5224Z" fill="#D4AF37"/>
</svg>
