<?xml version="1.0" encoding="UTF-8" standalone="no"?>
<!-- Created with Inkscape (http://www.inkscape.org/) -->

<svg
   width="200"
   height="45"
   viewBox="0 0 52.916665 11.90625"
   version="1.1"
   id="svg19"
   inkscape:version="1.1 (c4e8f9e, 2021-05-24)"
   sodipodi:docname="logo_branca_horizontal_200x45.svg"
   inkscape:export-filename="/Users/victor/Documents/Ultra Oral/Logo/logo_branca_horizontal_200x45.png"
   inkscape:export-xdpi="96"
   inkscape:export-ydpi="96"
   xmlns:inkscape="http://www.inkscape.org/namespaces/inkscape"
   xmlns:sodipodi="http://sodipodi.sourceforge.net/DTD/sodipodi-0.dtd"
   xmlns:xlink="http://www.w3.org/1999/xlink"
   xmlns="http://www.w3.org/2000/svg"
   xmlns:svg="http://www.w3.org/2000/svg">
  <sodipodi:namedview
     id="namedview21"
     pagecolor="#ffffff"
     bordercolor="#666666"
     borderopacity="1.0"
     inkscape:pageshadow="2"
     inkscape:pageopacity="0.0"
     inkscape:pagecheckerboard="true"
     inkscape:document-units="mm"
     showgrid="false"
     units="px"
     inkscape:zoom="1.6174665"
     inkscape:cx="-49.15094"
     inkscape:cy="47.296188"
     inkscape:window-width="1440"
     inkscape:window-height="773"
     inkscape:window-x="0"
     inkscape:window-y="25"
     inkscape:window-maximized="0"
     inkscape:current-layer="layer1" />
  <defs
     id="defs16">
    <color-profile
       name="ACES-CG-Linear--Academy-Color-Encoding-System-AP1-"
       xlink:href="file:///System/Library/ColorSync/Profiles/ACESCG%20Linear.icc"
       id="color-profile198" />
  </defs>
  <g
     inkscape:label="Camada 1"
     inkscape:groupmode="layer"
     id="layer1"
     style="display:inline">
    <path
       style="display:inline;fill:#ffffff;fill-opacity:1;stroke:none;stroke-width:0.0436939"
       d="M 5.3816193,8.4521263 C 4.8262252,8.6367776 4.7584576,9.7329279 4.5652428,10.243577 4.4844964,10.456891 4.3721597,10.777517 4.1268175,10.847251 3.5009901,11.025174 2.9900337,9.8689444 3.2616787,9.4133925 3.7229994,8.6397491 4.798263,8.4823194 5.5563937,8.1462716 V 8.1025773 C 4.7185217,8.1095307 3.5613751,8.8640743 2.7606416,8.4328138 2.1218808,8.0888129 2.5270537,7.4954069 2.9784549,7.2295306 3.8919201,6.6914826 5.0083426,6.5283746 6.0370281,6.3583173 7.8490559,6.0587525 9.6328596,6.0546881 11.455069,6.2311684 c 0.615036,0.059554 1.223867,0.1680458 1.835143,0.2547789 0.260329,0.036922 0.525156,0.1439273 0.786489,0.087343 V 6.5295977 C 13.508725,6.3165029 12.840427,6.257603 12.24156,6.1743665 11.066062,6.0109513 9.8886436,5.9178831 8.7023542,5.9178831 c -1.681865,0 -3.4249896,0.2327131 -5.0684904,0.593188 C 3.1800589,6.6105622 2.1977332,6.9511994 1.8800791,6.4402867 1.6845923,6.1259099 2.0068784,5.6898885 2.2363142,5.4902508 2.8141224,4.9873777 3.8270334,4.8611024 4.5514345,4.6893857 7.6324658,3.9591733 10.865945,3.9621448 13.94562,4.7001281 c 1.172219,0.2809518 2.314814,0.6295421 3.451816,1.0279863 0.248881,0.087213 0.968519,0.5189084 1.092347,0.1460691 C 14.203196,4.0918662 9.4818966,3.5149328 4.9009874,4.2831147 3.9511244,4.442423 3.0149393,4.7330308 2.060883,4.8565966 1.6688616,4.9073693 1.186395,4.7439541 1.3604702,4.2575096 1.7393401,3.1985884 3.4007134,2.9978154 4.3329657,2.7871668 7.4311251,2.0871914 10.866206,2.2555005 13.94562,2.9853193 14.980902,3.2307039 16.008931,3.55784 17.004191,3.933127 17.140078,3.9843795 17.86081,4.3568705 17.932599,4.155091 18.006225,3.9483326 17.271293,3.7437133 17.135274,3.6894894 16.229062,3.3281849 15.284575,3.057501 14.338864,2.821161 11.434445,2.095231 8.3942247,1.9569834 5.4253136,2.2549753 4.468767,2.3509712 3.5165893,2.5434427 2.5852091,2.7774667 2.2343054,2.8655971 1.6814893,3.1232612 1.323462,2.958579 0.96796882,2.7951199 1.4392954,2.272235 1.5841838,2.1165536 2.0520577,1.6138985 2.6679669,1.2696356 3.3716995,1.3939872 4.0337945,1.510956 4.6355897,1.8507198 5.294232,1.9845986 5.8676262,2.1012164 6.9168474,1.9873906 7.4789248,1.8290475 8.0886745,1.6571992 8.660714,1.3297573 9.3140688,1.3776462 9.8346364,1.4158351 10.113186,1.8093415 10.568738,1.9568956 11.04286,2.1104804 11.657066,2.0973276 12.15417,2.1602041 11.760053,0.4971715 9.8501491,-0.26336429 8.3091096,0.08146756 7.5497531,0.25139333 6.9260676,0.71804401 6.1244141,0.71830592 5.3044121,0.71857183 4.6729475,0.25279064 3.8960269,0.08142368 2.3601871,-0.2572911 0.47278556,0.50652194 0.079541,2.1602041 -0.1117074,2.9645205 0.07718778,3.8633478 0.27498401,4.6507556 0.71651098,6.4087348 1.5072824,8.2272732 2.3919092,9.8066331 c 0.3659351,0.6532679 0.7878,1.8034649 1.591505,2.0255599 0.4258414,0.11767 0.7142649,-0.28532 0.8540413,-0.627356 C 5.1664703,10.39982 5.3744093,9.321106 5.3816193,8.452121 m 5.5491227,-5.6802024 0.04369,1.0049593 1.136041,0.1310815 0.08739,-1.0049593 -1.267123,-0.1310815 m 0,1.6603669 L 10.624883,5.743102 11.629843,5.83049 11.979392,4.5633669 10.93074,4.4322854 M 10.406415,6.3985109 C 10.226747,7.5980822 9.5189925,8.9518498 8.9012047,9.9814076 8.7610785,10.214908 8.3046531,11.077774 7.963754,10.756014 7.7281984,10.533744 7.6150758,10.150896 7.5215715,9.8503274 7.3150736,9.186617 7.1535809,8.5108905 6.9703283,7.8404076 6.8508706,7.4032082 6.7430767,6.8496064 6.2554969,6.7043682 6.8681728,7.718634 6.8731531,8.9716435 7.1031594,10.112491 c 0.1049075,0.520567 0.1849997,1.188166 0.5961141,1.567167 0.5733518,0.528478 1.2198888,-0.30188 1.525834,-0.736983 C 9.8105616,10.109999 10.216609,9.1548071 10.638386,8.2336521 10.894739,7.673803 11.262641,7.0522154 11.36768,6.4422039 L 10.406415,6.3985109 M 5.2505377,7.8841019 5.5126995,7.8404076 C 5.5922239,7.4562077 5.6970011,7.0228519 5.9933338,6.7480612 5.5212216,6.6245831 5.3242935,7.5653125 5.2505377,7.8841019 M 21.433311,2.4357313 c -0.172788,0.1041643 -0.140997,0.351603 -0.141062,0.5230577 v 1.3982051 c 0,0.7345386 -0.126713,1.6087207 0.103099,2.3157758 0.374383,1.1518153 1.767524,1.6578779 2.824391,1.1239381 1.335547,-0.6747214 0.917572,-2.7417913 0.917572,-3.96404 0,-0.3350454 0.177704,-1.600507 -0.475871,-1.4222798 -0.328692,0.089659 -0.179537,1.0638577 -0.179537,1.3348913 0,1.1713471 0.417887,3.7152904 -1.441899,3.5789666 -0.42664,-0.031285 -0.833785,-0.275534 -0.970638,-0.6951705 -0.290429,-0.8905245 -0.07802,-2.1267995 -0.07802,-3.0585719 0,-0.266488 0.06347,-1.5095794 -0.55804,-1.1347724 m 4.277832,-0.012325 c -0.34492,0.1441877 -0.180587,1.1859371 -0.180587,1.4966445 0,1.206389 -0.30127,2.7932632 0.742796,3.6559106 0.291089,0.2405346 1.006008,0.6281007 1.391737,0.3998003 0.257576,-0.1524494 0.0776,-0.486794 -0.128678,-0.5855859 C 27.194375,7.226369 26.849193,7.3099978 26.549889,7.0080731 26.224939,6.6803693 26.229658,6.2266082 26.229658,5.7988894 V 3.5268093 c 0,-0.2898207 0.0821,-1.3544668 -0.518515,-1.1033999 m 2.494702,-1.25e-4 c -0.343959,0.157778 -0.07192,1.1806098 -0.160006,1.4966033 -0.09661,0.346668 -0.752017,0.1634591 -0.659254,0.5644812 0.08324,0.359995 0.582701,0.1896756 0.664322,0.4869683 0.109409,0.3984017 -0.01237,0.8962932 0.01783,1.3082386 0.05134,0.6995832 0.568415,1.3526761 1.219497,1.6003754 0.225154,0.085642 0.675464,0.2420649 0.900357,0.095865 C 30.431655,7.8178193 30.25937,7.5225794 30.074676,7.4054364 29.888846,7.2875928 29.624759,7.3270939 29.419311,7.2438547 28.889653,7.0294064 28.759621,6.5361456 28.724142,6.0174114 28.704086,5.7245327 28.599047,5.0081274 28.899747,4.8389009 29.142336,4.7023138 29.962338,4.9815611 30.002101,4.5735922 30.065588,3.9222476 29.035242,4.3571763 28.79025,4.112229 28.526908,3.8488415 28.794092,3.0444359 28.706316,2.6967217 28.653881,2.4889129 28.416756,2.3265467 28.205845,2.4232844 M 39.905844,2.4095215 C 37.885833,2.6989061 36.982199,5.1462008 38.096829,6.803902 38.743455,7.7656043 39.890813,8.1376592 40.998191,7.976209 42.71335,7.7261937 43.498706,5.7418802 42.953929,4.2259645 42.500868,2.9652691 41.225923,2.2204188 39.905844,2.4095268 m 10.928234,0.013939 c -0.344746,0.1409557 -0.17954,1.1846289 -0.17954,1.4966458 0,1.2182721 -0.305987,2.7820781 0.742798,3.6560422 0.292791,0.2440298 1.000896,0.631027 1.391736,0.3996687 0.257183,-0.15223 0.07747,-0.4914247 -0.12527,-0.596073 C 52.311412,7.1978524 51.942373,7.3080035 51.63066,6.9705996 51.342937,6.6591065 51.353641,6.1943344 51.353641,5.7989493 v -2.272136 c 0,-0.2941018 0.0835,-1.3500091 -0.519563,-1.1033999 M 40.255395,3.0586337 c 2.662356,-0.3173483 2.940162,4.0072544 0.393245,4.2620772 -0.535424,0.053568 -1.125292,-0.012245 -1.57298,-0.332861 -0.935616,-0.6700015 -1.000852,-2.3401137 -0.291481,-3.1988722 0.377383,-0.4569067 0.89769,-0.6619621 1.471216,-0.730344 m -8.21445,1.0112079 c -1.30387,0.1872293 -1.616675,1.1883436 -1.616675,2.3407691 0,0.3390206 -0.183383,1.5569431 0.436109,1.466934 0.283574,-0.041204 0.2193,-0.4346227 0.2193,-0.6367506 0,-0.6003087 -0.11378,-1.3906016 0.224281,-1.9225311 0.244729,-0.3849856 0.718938,-0.616477 1.173924,-0.5824828 0.210517,0.015731 0.582395,0.202871 0.767526,0.062657 C 33.451777,4.6421438 33.29382,4.3690576 33.132461,4.2565891 32.844475,4.0559469 32.378086,4.0214289 32.040945,4.0698416 m 4.806326,3.2583371 c 0.09722,0.208419 0.29996,0.4484298 0.524327,0.5297 0.17565,0.063619 0.382454,-0.070346 0.364321,-0.2675808 C 37.705463,7.2590988 37.261666,7.0141942 37.186861,6.6476022 37.050535,5.979305 37.365262,5.1194949 37.120708,4.4882498 36.967168,4.0919912 36.527564,4.1294794 36.454026,4.5317686 36.222886,4.3352779 35.965092,4.1875935 35.667536,4.1168092 33.230423,3.5371649 32.366377,7.1690007 34.662577,7.9175657 c 0.329496,0.1074428 0.665939,0.1156565 1.004959,0.059685 0.488106,-0.080614 0.793437,-0.3780377 1.179735,-0.6490712 M 45.018028,4.069838 c -1.29762,0.1863119 -1.616673,1.1918828 -1.616673,2.3407692 0,0.3370968 -0.189675,1.568785 0.436108,1.4619098 0.28331,-0.048413 0.219299,-0.4249667 0.219299,-0.6317265 0,-0.616651 -0.11334,-1.3748708 0.232846,-1.9224872 0.246913,-0.390535 0.70085,-0.622594 1.165359,-0.5820454 0.217771,0.019007 0.578595,0.2106899 0.772596,0.063225 C 46.434364,4.6423597 46.267542,4.3685728 46.109544,4.2544012 45.827805,4.0508323 45.351019,4.0220365 45.018028,4.0698376 m 4.71894,3.2583411 h 0.04369 c 0.143709,0.2040078 0.739344,0.8861996 0.921853,0.3561048 C 50.796239,7.4121146 50.318489,7.091969 50.222801,6.8475456 49.934597,6.1114355 50.375335,5.2046126 50.097793,4.4882498 49.94849,4.1028706 49.487039,4.1172027 49.431112,4.5317686 49.112188,4.2606486 48.753375,4.1145809 48.338763,4.0636328 c -0.319269,-0.039193 -0.664059,0.018353 -0.961265,0.1383792 -0.274617,0.1108957 -0.497324,0.2795105 -0.689927,0.5045324 -0.609049,0.7115115 -0.545649,1.9880719 0.09132,2.6578555 0.765866,0.8053229 2.261115,0.94488 2.958076,-0.036221 M 35.230599,4.7229744 C 36.825556,4.636809 36.868114,7.2024272 35.36168,7.3241145 35.022396,7.3515103 34.630377,7.3181345 34.3586,7.0926683 33.444217,6.3339234 34.144236,4.7816549 35.230599,4.7229744 m 12.977083,0 c 1.619425,-0.088 1.624624,2.4884974 0.08739,2.6012717 -1.756713,0.1288532 -1.758899,-2.5104756 -0.08739,-2.6012717 M 23.327688,8.5553652 c -0.117538,0.082537 -0.06921,0.3544004 -0.06921,0.4768747 0,0.4379 -0.124947,1.1025271 0.12316,1.4854171 0.106941,0.165031 0.544132,0.51585 0.755506,0.305638 0.104661,-0.104122 -0.467995,-0.371354 -0.535319,-0.480894 -0.214163,-0.3485891 -0.08037,-1.0433661 -0.08118,-1.4412426 -1.24e-4,-0.086951 0.0031,-0.4834305 -0.19295,-0.3457932 M 35.84232,9.3817901 C 35.474723,9.2317897 35.096466,9.115826 34.751896,9.399006 c -0.463199,0.3807485 -0.332598,1.26909 0.260242,1.440499 1.011862,0.292574 1.092347,-0.76285 1.092347,-1.4577148 0,-0.1794052 0.08874,-0.7085387 -0.07529,-0.8264249 -0.239528,-0.1720676 -0.186878,0.7180646 -0.186878,0.8264249 m 4.238308,-0.043695 v 0.087388 c 0.550761,0.2067584 0.183645,1.8333948 1.267123,1.3982048 -0.09477,-0.241453 -0.343565,-0.190724 -0.514498,-0.359514 -0.16892,-0.166823 -0.330631,-0.7850486 -0.08332,-0.9500791 0.121512,-0.081096 0.326568,-0.04719 0.466738,-0.088611 C 41.094623,9.2042183 40.87126,9.2628124 40.64864,9.2507099 V 8.9447649 C 40.648595,8.8603479 40.5682,8.2956471 40.412825,8.609415 40.240277,8.9577848 40.501265,9.1285414 40.08062,9.3380958 m 4.238306,1.5292882 c -0.02691,-0.339678 -0.475388,-0.277763 -0.61132,-0.61176 -0.138292,-0.3398503 -0.04409,-0.8605056 -0.04409,-1.2233841 0,-0.1224743 0.04833,-0.3942936 -0.06921,-0.4768747 -0.218206,-0.1531926 -0.192951,0.3470601 -0.192951,0.4331804 -4.5e-5,0.7910346 -0.175999,1.8758214 0.917571,1.8788384 M 24.569291,9.0322399 c 0.232233,-0.029974 0.480327,-0.039718 0.524326,-0.3058561 -0.212308,0.021759 -0.450354,0.089222 -0.524326,0.3058561 m 20.579818,-0.087388 c 0.408756,0.2847088 0.733096,-0.4094101 0.176743,-0.112293 -0.06143,0.032814 -0.11876,0.074062 -0.176743,0.112293 m -17.870798,0 0.262163,0.043695 C 27.506394,8.7835766 27.361723,8.7377007 27.278311,8.9448513 M 48.454245,8.8166986 c -0.09569,0.070914 0.03325,0.1884512 0.118586,0.1252264 0.09569,-0.070915 -0.03325,-0.1884525 -0.118586,-0.1252264 m -26.06965,0.4108088 c -1.149489,0.2154547 -0.601406,2.0689056 0.430433,1.6008126 0.07858,-0.03561 0.166353,-0.148473 0.06669,-0.218162 -0.10049,-0.07026 -0.292815,0.0096 -0.40973,-0.0048 -0.350085,-0.04295 -0.554787,-0.415488 -0.45211,-0.7428842 0.07301,-0.2328448 0.295991,-0.38857 0.539497,-0.3811847 0.09446,0.00289 0.239028,0.071309 0.320627,-0.00263 0.233972,-0.2120484 -0.399206,-0.2691999 -0.495407,-0.2511558 m 3.539205,0.00266 c -0.513884,0.1161406 -0.654665,0.5537774 -0.655407,1.0254977 -1.24e-4,0.115656 -0.0582,0.540229 0.134576,0.540229 0.176743,0 0.127543,-0.346446 0.127587,-0.452842 1.23e-4,-0.3808375 0.134489,-0.9601733 0.655409,-0.8559625 0.453236,0.090663 0.479715,0.5718195 0.480631,0.9433505 1.24e-4,0.07856 -0.02831,0.383195 0.123656,0.353002 0.165031,-0.03281 0.09499,-0.537695 0.09482,-0.65886 -9.3e-4,-0.5343759 -0.36384,-1.0293837 -0.961266,-0.8944147 m 3.36443,0.2827013 c -0.04238,-0.5317553 -0.815896,-0.2596728 -1.036462,0.00189 -0.489721,0.5806934 0.205622,1.7934174 0.934961,1.3011614 0.07935,-0.05353 0.110459,-0.181461 0,-0.220478 -0.226291,-0.07992 -0.409674,0.08136 -0.636576,-0.102464 -0.345269,-0.279684 -0.230485,-0.8185614 0.1701,-0.9796606 0.180806,-0.072706 0.380748,-0.00847 0.567977,-5.318e-4 m 1.791449,1.0923464 c 0.04273,0.08136 0.313766,0.328489 0.322417,0.08817 0.0051,-0.141042 -0.166997,-0.296549 -0.204051,-0.437723 -0.06912,-0.2636071 0.07179,-0.6618333 -0.05733,-0.8966882 -0.06069,-0.1103692 -0.301925,-0.035958 -0.414523,-0.07087 -0.190419,-0.059033 -0.365324,-0.098268 -0.564089,-0.051212 -0.979398,0.2317532 -0.686737,1.7065522 0.305858,1.6264182 0.233849,-0.01892 0.412644,-0.147816 0.611714,-0.258099 m 2.272081,-1.3783676 c -1.100123,0.1498263 -0.848448,1.7729236 0.262165,1.6324476 1.00343,-0.126932 0.7438,-1.7694281 -0.262165,-1.6324476 m 3.713981,0.0012 c -1.078146,0.1773516 -0.792258,1.8014096 0.305856,1.6299546 0.990716,-0.154676 0.706313,-1.7964297 -0.305857,-1.6299567 m 1.878837,-6.648e-4 c -0.511612,0.095909 -0.655233,0.5234539 -0.655408,0.9844675 -4.3e-5,0.121688 -0.06851,0.583925 0.131082,0.583925 0.180805,0 0.13108,-0.343083 0.13108,-0.452844 4.5e-5,-0.4044292 0.129337,-1.023048 0.699061,-0.8363877 0.404342,0.1324363 0.392719,0.5278647 0.393287,0.8800827 1.25e-4,0.103293 -0.03399,0.409149 0.134577,0.409149 0.202041,0 0.128941,-0.545518 0.127412,-0.671314 -0.0066,-0.5368656 -0.380399,-1.0059187 -0.961091,-0.8970785 m 3.189653,5.319e-4 c -1.044371,0.163984 -0.842067,1.7833676 0.218471,1.6439376 1.041967,-0.137023 0.836607,-1.8095811 -0.218471,-1.6439376 m 2.971185,1.236e-4 c -1.094051,0.1791881 -0.795797,1.82374 0.305855,1.624931 0.986348,-0.178052 0.695608,-1.7889141 -0.305856,-1.6249312 m 2.577939,1.4646122 c -0.0054,0.229831 -0.05689,0.435586 -0.264041,0.567671 -0.09394,0.05986 -0.319316,0.07284 -0.358509,0.191468 -0.05781,0.174776 0.228519,0.155462 0.316693,0.130512 0.229523,-0.06488 0.413475,-0.233455 0.503222,-0.452712 C 48.030416,10.763824 48.031946,9.9488 47.83991,9.6003851 47.603087,9.1708304 46.963016,9.0890351 46.599091,9.40503 c -0.808816,0.70238 0.212222,1.881109 1.084263,1.287527 m 2.141001,-1.4651427 c -1.146396,0.2112162 -0.595593,2.0663267 0.430428,1.6008567 0.07847,-0.03557 0.166472,-0.148559 0.06668,-0.218164 -0.102899,-0.0717 -0.290784,0.01743 -0.409717,0.0013 -0.348154,-0.04736 -0.555175,-0.422476 -0.452101,-0.7488263 0.0669,-0.211784 0.274004,-0.3688627 0.495795,-0.3810969 0.105083,-0.00581 0.275751,0.077426 0.364318,-0.00285 C 50.554,9.2663609 49.920175,9.2098209 49.824356,9.2274728 m 2.315775,1.3340622 c 0.06244,0.116488 0.435715,0.380268 0.343784,0.08481 -0.04841,-0.155463 -0.168047,-0.266708 -0.198325,-0.43436 C 52.23984,9.9584732 52.32653,9.6757294 52.25732,9.4282468 52.20301,9.2340282 52.051215,9.3365344 51.909166,9.3114535 51.524048,9.2433789 51.151995,9.1189819 50.846531,9.4737758 50.096132,10.345293 51.343898,11.314687 52.140132,10.561536 M 27.409393,9.3021553 c -0.160009,0.02521 -0.130863,0.2725172 -0.131082,0.3855547 -5.32e-4,0.2310525 0.01507,1.330564 0.504578,1.148667 0.104339,-0.0388 0.05217,-0.149564 0.0085,-0.212744 -0.250847,-0.36301 -0.242939,-0.6365764 -0.251152,-1.0668305 -0.0016,-0.084024 0.0046,-0.2759699 -0.130864,-0.2546472 m 21.541083,1.5652897 c -0.0187,-0.237565 -0.208812,-0.349465 -0.277324,-0.56802 -0.08389,-0.267453 0.09289,-0.7161878 -0.07323,-0.9447941 -0.07778,-0.1070055 -0.176918,-0.022198 -0.203571,0.073666 -0.130381,0.4688803 -0.05226,1.3934411 0.554125,1.4391471 M 24.481905,9.294464 c -0.01251,0.3608684 -0.09087,0.889169 0.06191,1.223428 0.04404,0.0963 0.327048,0.50637 0.454722,0.279292 0.07454,-0.132568 -0.176742,-0.343172 -0.229437,-0.454067 -0.141787,-0.298429 -0.06873,-0.7261476 -0.06873,-1.048653 h -0.218469 m 5.767634,0.1898059 c 0.730694,-0.1328285 0.923297,1.0089811 0.218427,1.1308871 -0.715617,0.123785 -0.912852,-1.0046556 -0.218427,-1.1308871 m 3.102225,-5.318e-4 c 0.696657,-0.1163559 0.910932,1.0095909 0.218471,1.1224539 -0.753414,0.122736 -0.956897,-0.9990609 -0.218471,-1.1224539 m 1.79145,0.00283 C 35.871718,9.3278714 36.117628,10.475405 35.405375,10.61728 34.682634,10.761294 34.434366,9.6409838 35.14321,9.4865681 m 1.922531,0 c 0.704172,-0.15319 0.947372,0.9437019 0.262165,1.1194379 -0.735281,0.188584 -0.979793,-0.9633191 -0.262165,-1.1194379 m 5.068535,-0.00237 c 0.714395,-0.1289396 0.9198,0.9944299 0.218426,1.1330709 -0.720556,0.142443 -0.919494,-1.0065322 -0.218426,-1.1330709 m 2.97114,1.237e-4 c 0.728596,-0.1404758 0.918227,1.0096792 0.218471,1.1307112 -0.718765,0.124353 -0.913246,-0.996746 -0.218471,-1.1307112 m 1.92253,0 c 0.728596,-0.1404758 0.918229,1.0096792 0.218471,1.1307112 -0.718764,0.124353 -0.913246,-0.996746 -0.218471,-1.1307112 m 4.325696,-1.237e-4 c 0.722609,-0.1308581 0.919581,0.9977539 0.21847,1.1270029 -0.723703,0.13344 -0.921374,-0.9996732 -0.21847,-1.1269976 z"
       id="path381"
       sodipodi:nodetypes="cccsccccccccccscccccsccsccccccccccccccccccscccccccccccccccccccccccccccccccccccsccscsccsccscsscssccccccccccccsccccccsccscsscssccsccccssscsscccssccccccccscscscccccccsccscscccccccccsscccccccsccccccccccccccscccccccscccccccccscccccccscccccccccccscccccsccccccccccsscccsccccccccccccccccccccscsccccsccccccccccccccccscccccccccccccsccccccccccccc" />
  </g>
</svg>
