<?xml version="1.0" encoding="UTF-8" standalone="no"?>
<!-- Created with Inkscape (http://www.inkscape.org/) -->

<svg
   width="900"
   height="670"
   viewBox="0 0 238.12499 177.27084"
   version="1.1"
   id="svg8231"
   inkscape:version="1.1 (c4e8f9e, 2021-05-24)"
   sodipodi:docname="logo_azul.svg"
   xmlns:inkscape="http://www.inkscape.org/namespaces/inkscape"
   xmlns:sodipodi="http://sodipodi.sourceforge.net/DTD/sodipodi-0.dtd"
   xmlns="http://www.w3.org/2000/svg"
   xmlns:svg="http://www.w3.org/2000/svg">
  <sodipodi:namedview
     id="namedview8233"
     pagecolor="#ffffff"
     bordercolor="#666666"
     borderopacity="1.0"
     inkscape:pageshadow="2"
     inkscape:pageopacity="0.0"
     inkscape:pagecheckerboard="true"
     inkscape:document-units="mm"
     showgrid="false"
     inkscape:zoom="0.49085999"
     inkscape:cx="404.3923"
     inkscape:cy="331.05163"
     inkscape:window-width="1440"
     inkscape:window-height="773"
     inkscape:window-x="0"
     inkscape:window-y="25"
     inkscape:window-maximized="0"
     inkscape:current-layer="layer1"
     units="px" />
  <defs
     id="defs8228" />
  <g
     inkscape:label="Camada 1"
     inkscape:groupmode="layer"
     id="layer1">
    <path
       style="display:inline;fill:#00739f;fill-opacity:1;stroke:none;stroke-width:0.328647"
       d="m 107.0724,63.573302 c -4.17744,1.38887 -4.68716,9.63365 -6.14044,13.47454 -0.60734,1.60445 -1.45229,4.01607 -3.297645,4.54058 -4.707215,1.33826 -8.55041,-7.35841 -6.507212,-10.78488 3.469858,-5.81902 11.557537,-7.00314 17.259877,-9.530757 v -0.32865 c -6.30212,0.0523 -15.005689,5.727667 -21.028469,2.483907 -4.804492,-2.58743 -1.756947,-7.050784 1.638299,-9.050598 6.870702,-4.046961 15.26796,-5.273799 23.0053,-6.552895 13.62931,-2.253203 27.04633,-2.283767 40.75222,-0.956362 4.62604,0.447946 9.20541,1.263976 13.80318,1.91634 1.95808,0.277708 3.95,1.082563 5.91564,0.656966 v -0.328648 c -4.27208,-1.60281 -9.29874,-2.045827 -13.80317,-2.671899 -8.84159,-1.22914 -17.69764,-1.929157 -26.62041,-1.929157 -12.65028,0 -25.76133,1.750372 -38.123052,4.461711 -3.413328,0.748328 -10.80197,3.310457 -13.19123,-0.532408 -1.470368,-2.364616 0.953733,-5.644184 2.679453,-7.145772 4.346034,-3.782399 11.964725,-4.732189 17.413359,-6.023771 23.17422,-5.492348 47.49509,-5.470001 70.65911,0.08084 8.81694,2.113201 17.41106,4.735146 25.96311,7.732078 1.87198,0.65598 7.28479,3.903013 8.21618,1.098667 C 173.42459,30.777301 137.91296,26.437846 103.45729,32.21579 c -7.144465,1.198246 -14.186059,3.384077 -21.362064,4.313491 -2.948619,0.381887 -6.577538,-0.847251 -5.268214,-4.506079 2.849702,-7.964759 15.345848,-9.474893 22.357863,-11.0593 23.303045,-5.264924 49.140275,-3.998976 72.302335,1.490414 7.78696,1.845682 15.51936,4.306261 23.00529,7.129011 1.02208,0.385502 6.44312,3.187217 6.98309,1.669526 0.55378,-1.555158 -4.97407,-3.094211 -5.99715,-3.502062 -6.81614,-2.717581 -13.92017,-4.75355 -21.03341,-6.531202 -21.84582,-5.460141 -44.71308,-6.49998 -67.04398,-4.258608 -7.19474,0.722038 -14.356615,2.169728 -21.362063,3.929961 -2.639357,0.66288 -6.797404,2.600913 -9.490337,1.362242 -2.673872,-1.229468 0.871249,-5.162387 1.961042,-6.333356 3.519148,-3.780755 8.15176,-6.3701647 13.444941,-5.434836 4.979996,0.879789 9.506447,3.435347 14.460477,4.442322 4.31283,0.877159 12.20463,0.02104 16.43234,-1.169983 4.58628,-1.292569 8.88892,-3.75545 13.80318,-3.395252 3.91549,0.287237 6.01062,3.247032 9.43709,4.356872 3.56615,1.155194 8.18595,1.056272 11.92496,1.529195 C 155.04829,3.7395133 140.6828,-1.9809167 129.09175,0.61276535 123.38019,1.8908733 118.68909,5.4008233 112.65939,5.4027953 106.49168,5.4047953 101.74207,1.9013903 95.898403,0.61243735 84.34646,-1.9352347 70.150222,3.8098433 67.192399,16.248146 c -1.43849,6.049734 -0.0177,12.810331 1.470043,18.732879 3.320979,13.222783 9.26883,26.901071 15.922619,38.780347 2.752415,4.9136 5.925502,13.5649 11.970631,15.23541 3.203001,0.88506 5.372398,-2.14606 6.423738,-4.71871 2.47471,-6.055 4.03874,-14.16863 4.09297,-20.70477 m 41.73817,-42.724098 0.32864,7.55888 8.54483,0.985942 0.65729,-7.558881 -9.53076,-0.985941 m 0,12.488586 -2.30053,9.85941 7.55888,0.657294 2.62917,-9.530763 -7.88752,-0.985941 m -3.94377,14.789115 c -1.35139,9.022676 -6.67482,19.205147 -11.32156,26.949047 -1.05397,1.75629 -4.48701,8.24641 -7.05111,5.82626 -1.77175,-1.67182 -2.62261,-4.55144 -3.32591,-6.81219 -1.55319,-4.99215 -2.76787,-10.07468 -4.14622,-15.117776 -0.89851,-3.288432 -1.70929,-7.452389 -5.37666,-8.544812 4.60829,7.62888 4.64575,17.053498 6.37576,25.634468 0.78907,3.91549 1.39149,8.93689 4.48372,11.78758 4.31251,3.97498 9.17549,-2.27062 11.47668,-5.54328 4.40354,-6.26304 7.45766,-13.44759 10.63009,-20.376126 1.92817,-4.210953 4.69538,-8.88628 5.48544,-13.474524 l -7.23023,-0.328647 m -38.78034,11.173991 1.97187,-0.32865 c 0.59815,-2.889783 1.38624,-6.149304 3.61513,-8.216165 -3.55103,-0.928757 -5.03224,6.147017 -5.587,8.544815 M 1.3231318,108.27884 c -1.29963504,0.78348 -1.06051304,2.64461 -1.06100704,3.93422 v 10.51671 c 0,5.52489 -0.95308,12.10012 0.77547204,17.41829 2.81595,8.66347 13.2945622,12.46986 21.2438782,8.45379 10.045419,-5.07497 6.901584,-20.6226 6.901584,-29.81584 0,-2.52007 1.336609,-12.03834 -3.579292,-10.69779 -2.472284,0.67438 -1.350407,8.00189 -1.350407,10.04049 0,8.81038 3.143173,27.94485 -10.845355,26.91948 -3.20901,-0.23531 -6.2713762,-2.07245 -7.3007272,-5.22878 -2.184485,-6.69815 -0.586805,-15.99689 -0.586805,-23.00529 0,-2.00441 0.477398,-11.35442 -4.197341,-8.53528 m 32.1760472,-0.0927 c -2.594332,1.08452 -1.358298,8.92012 -1.358298,11.25713 0,9.07395 -2.266018,21.00975 5.586998,27.49822 2.18945,1.8092 7.566773,4.72431 10.468067,3.00713 1.937378,-1.14666 0.583674,-3.66146 -0.967865,-4.40453 -2.572645,-1.23209 -5.168962,-0.60307 -7.420196,-2.87402 -2.44414,-2.46485 -2.408646,-5.87785 -2.408646,-9.09497 v -17.08963 c 0,-2.17991 0.617528,-10.18773 -3.90006,-8.29931 m 18.764104,-9.4e-4 c -2.587112,1.18674 -0.540951,8.88005 -1.203503,11.25682 -0.726637,2.60749 -5.656346,1.22947 -4.958626,4.24579 0.626072,2.70773 4.382833,1.42666 4.996747,3.66277 0.822927,2.99661 -0.09297,6.74154 0.134085,9.84002 0.386166,5.26197 4.275372,10.17426 9.17254,12.03735 1.693515,0.64416 5.080552,1.82071 6.772102,0.72106 1.82826,-1.18839 0.532408,-3.40906 -0.856781,-4.29016 -1.397742,-0.88637 -3.384086,-0.58926 -4.929383,-1.21535 -3.983857,-1.61299 -4.961913,-5.32309 -5.22877,-9.22479 -0.150854,-2.20291 -0.940913,-7.59141 1.320829,-8.86426 1.824646,-1.02735 7.992364,1.07303 8.291435,-1.99554 0.477527,-4.89914 -7.272295,-1.62779 -9.115024,-3.47018 -1.980753,-1.98109 0.02888,-8.03149 -0.631325,-10.64685 -0.394383,-1.56305 -2.177946,-2.7843 -3.764326,-2.05668 m 88.002467,-0.10352 c -15.19368,2.17663 -21.99043,20.58415 -13.60665,33.05268 4.86365,7.23352 13.49359,10.03196 21.82282,8.8176 12.90071,-1.88051 18.80782,-16.80568 14.71024,-28.20776 -3.40774,-9.48242 -12.99733,-15.08487 -22.92641,-13.66248 m 82.19757,0.10484 c -2.59303,1.06021 -1.35042,8.91028 -1.35042,11.25714 0,9.16333 -2.30151,20.92562 5.58701,27.49921 2.20225,1.83549 7.52832,4.74632 10.46806,3.00614 1.93441,-1.14501 0.58269,-3.69629 -0.94223,-4.48341 -2.65054,-1.36815 -5.42629,-0.53964 -7.77086,-3.07745 -2.16413,-2.34292 -2.08362,-5.83874 -2.08362,-8.81266 V 116.4855 c 0,-2.21211 0.62804,-10.1542 -3.90794,-8.29931 m -79.5684,4.77786 c 20.02512,-2.38696 22.11466,30.14088 2.95783,32.05755 -4.02724,0.40292 -8.46398,-0.0921 -11.8313,-2.50364 -7.03731,-5.03947 -7.52799,-17.60135 -2.1924,-24.06057 2.83852,-3.43666 6.75205,-4.979 11.06587,-5.49334 m -61.785632,7.60588 c -9.807154,1.40826 -12.159942,8.93822 -12.159942,17.60628 0,2.54997 -1.379333,11.71067 3.280231,11.03366 2.132911,-0.30992 1.649477,-3.26905 1.649477,-4.78937 0,-4.51527 -0.855803,-10.45952 1.686947,-14.46047 1.840744,-2.8957 5.407553,-4.63688 8.829759,-4.38119 1.583418,0.11832 4.380531,1.52591 5.773009,0.47128 1.5522,-1.17557 0.364143,-3.22961 -0.849552,-4.07555 -2.166114,-1.50915 -5.674092,-1.76878 -8.209929,-1.40464 m 36.151162,24.50784 c 0.73124,1.56764 2.25617,3.3729 3.94377,3.98418 1.32116,0.47851 2.87665,-0.52912 2.74026,-2.01263 -0.22907,-2.49114 -3.56713,-4.33321 -4.12978,-7.09056 -1.02538,-5.02665 1.34186,-11.49378 -0.49757,-16.24174 -1.15487,-2.98049 -4.46138,-2.69852 -5.0145,0.32733 -1.73854,-1.47792 -3.67756,-2.58874 -5.91565,-3.12115 -18.330934,-4.35984 -24.829928,22.9573 -7.55888,28.58769 2.47833,0.80814 5.00891,0.86992 7.55888,0.44892 3.67132,-0.60635 5.9679,-2.84344 8.87347,-4.88204 m 61.45699,-24.50787 c -9.76015,1.40136 -12.15993,8.96484 -12.15993,17.60628 0,2.5355 -1.42666,11.79974 3.28022,10.99587 2.13094,-0.36414 1.64948,-3.19642 1.64948,-4.75158 0,-4.63819 -0.8525,-10.3412 1.75136,-14.46014 1.85718,-2.93744 5.2715,-4.68289 8.76534,-4.3779 1.63799,0.14296 4.35195,1.58472 5.81114,0.47555 1.55548,-1.18181 0.30071,-3.24112 -0.88768,-4.09987 -2.11912,-1.53116 -5.70531,-1.74775 -8.20993,-1.38821 m 35.49388,24.50787 h 0.32865 c 1.08092,1.53446 5.56103,6.66562 6.93379,2.67847 0.70495,-2.04714 -2.88848,-4.45514 -3.60821,-6.29359 -2.16775,-5.53671 1.1473,-12.35745 -0.94026,-17.74563 -1.12299,-2.89866 -4.59383,-2.79086 -5.01449,0.32733 -2.39881,-2.03925 -5.09765,-3.13791 -8.21618,-3.52112 -2.40142,-0.29479 -4.99478,0.13804 -7.23024,1.04083 -2.06555,0.83411 -3.74066,2.10236 -5.18934,3.79488 -4.58101,5.35169 -4.10414,14.95344 0.68688,19.99127 5.76052,6.0573 17.00715,7.10699 22.2494,-0.27244 m -109.1108,-19.59525 c 11.9966,-0.6481 12.3167,18.6494 0.98594,19.56468 -2.55195,0.20606 -5.50056,-0.045 -7.54475,-1.74084 -6.877596,-5.70696 -1.612344,-17.38247 6.55881,-17.82384 m 97.60816,0 c 12.18063,-0.6619 12.21974,18.71743 0.6573,19.56567 -13.21326,0.96918 -13.2297,-18.88274 -0.6573,-19.56567 M 15.571846,154.30815 c -0.884086,0.62081 -0.520605,2.66565 -0.520605,3.58685 0,3.2937 -0.939796,8.29274 0.926353,11.17268 0.80437,1.2413 4.092742,3.88001 5.682607,2.29888 0.787209,-0.78316 -3.52007,-2.79317 -4.026449,-3.61708 -1.610835,-2.62194 -0.604487,-7.84776 -0.610625,-10.84042 -9.32e-4,-0.65401 0.02329,-3.63616 -1.451281,-2.60091 m 94.129724,6.21602 c -2.76491,-1.12824 -5.61,-2.00047 -8.20171,0.12949 -3.483991,2.86383 -2.501658,9.54556 1.95743,10.83483 7.6108,2.20062 8.21617,-5.73784 8.21617,-10.96432 0,-1.34941 0.66748,-5.32933 -0.56627,-6.21602 -1.80163,-1.29422 -1.40562,5.40098 -1.40562,6.21602 m 31.87877,-0.32865 v 0.6573 c 4.14259,1.55515 1.3813,13.79002 9.53076,10.51671 -0.71284,-1.81611 -2.58415,-1.43455 -3.86983,-2.70412 -1.27055,-1.25477 -2.48687,-5.9048 -0.62672,-7.14609 0.91396,-0.60997 2.45631,-0.35494 3.51061,-0.6665 -0.91792,-1.66427 -2.59796,-1.22355 -4.27241,-1.31458 v -2.30119 c -3.4e-4,-0.63495 -0.60505,-4.88239 -1.77371,-2.52236 -1.29783,2.62029 0.66518,3.90465 -2.4987,5.48083 m 31.87875,11.50266 c -0.20244,-2.55491 -3.57567,-2.08922 -4.59809,-4.6014 -1.04018,-2.55621 -0.33161,-6.47236 -0.33161,-9.20178 0,-0.9212 0.36349,-2.96571 -0.52058,-3.58685 -1.64126,-1.15225 -1.4513,2.61044 -1.4513,3.2582 -3.4e-4,5.94983 -1.32379,14.10914 6.90158,14.13183 M 24.910648,157.895 c 1.746765,-0.22545 3.612821,-0.29874 3.943762,-2.30052 -1.59689,0.16366 -3.387365,0.67109 -3.943762,2.30052 m 154.792732,-0.6573 c 3.07449,2.14146 5.51404,-3.07941 1.32938,-0.84462 -0.46207,0.24681 -0.89326,0.55706 -1.32938,0.84462 m -134.416619,0 1.971885,0.32865 c -0.256347,-1.54169 -1.344491,-1.88675 -1.971885,-0.32865 m 159.276459,-0.96391 c -0.71973,0.53339 0.25011,1.41745 0.89195,0.9419 0.71975,-0.5334 -0.25009,-1.41746 -0.89195,-0.9419 M 8.4782968,159.36372 c -8.64597304,1.62056 -4.523523,15.56144 3.2375352,12.04064 0.591006,-0.26785 1.251229,-1.11675 0.501582,-1.64093 -0.755852,-0.52846 -2.202428,0.072 -3.0818192,-0.0361 -2.633189,-0.32307 -4.172869,-3.12512 -3.400575,-5.58766 0.549168,-1.75136 2.226315,-2.92266 4.057864,-2.86711 0.7104732,0.0217 1.7978722,0.53635 2.4116182,-0.0198 1.759872,-1.59492 -3.0026242,-2.02479 -3.7262052,-1.88907 m 26.6204082,0.02 c -3.865218,0.87356 -4.924119,4.16528 -4.929699,7.71336 -9.31e-4,0.86992 -0.437758,4.06338 1.012228,4.06338 1.32938,0 0.959321,-2.60583 0.959647,-3.40609 9.32e-4,-2.8645 1.011576,-7.22202 4.929709,-6.43819 3.409052,0.68193 3.608218,4.30099 3.615112,7.09548 9.32e-4,0.5909 -0.212963,2.88224 0.93008,2.65514 1.241298,-0.24682 0.71447,-4.04432 0.713156,-4.95567 -0.0065,-4.01935 -2.736643,-7.74259 -7.230233,-6.72741 m 25.305821,2.12636 c -0.318783,-3.99964 -6.136826,-1.95315 -7.795835,0.0142 -3.683472,4.36773 1.546611,13.48933 7.032391,9.78679 0.596819,-0.40259 0.830817,-1.36487 0,-1.65835 -1.702067,-0.60109 -3.0814,0.61194 -4.78806,-0.77068 -2.596968,-2.10367 -1.733609,-6.15688 1.27942,-7.3686 1.359947,-0.54687 2.863834,-0.0637 4.272084,-0.004 m 13.474528,8.21617 c 0.321411,0.61194 2.360008,2.47076 2.42508,0.6632 0.0381,-1.06086 -1.256083,-2.23052 -1.53478,-3.29237 -0.519915,-1.98274 0.539973,-4.97803 -0.43118,-6.74451 -0.456493,-0.83015 -2.270956,-0.27046 -3.117872,-0.53305 -1.432248,-0.44402 -2.747822,-0.73913 -4.242841,-0.38519 -7.366619,1.74315 -5.165337,12.83597 2.300534,12.23323 1.758922,-0.1423 3.103739,-1.11181 4.601059,-1.94131 m 17.089641,-10.3675 c -8.274676,1.12693 -6.381669,13.33518 1.971886,12.27858 7.547379,-0.95473 5.594552,-13.30889 -1.971886,-12.27858 m 27.934995,0.009 c -8.10936,1.33398 -5.95903,13.54946 2.30053,12.25985 7.45174,-1.16341 5.31258,-13.51199 -2.30053,-12.25985 m 14.13182,-0.005 c -3.84813,0.72139 -4.92839,3.9372 -4.9297,7.40475 -3.3e-4,0.91529 -0.51532,4.39204 0.98594,4.39204 1.35994,0 0.98593,-2.58053 0.98593,-3.4061 3.4e-4,-3.04195 0.97281,-7.69494 5.25804,-6.29096 3.04129,0.99613 2.95387,3.97038 2.95814,6.61961 9.4e-4,0.77693 -0.25568,3.07745 1.01223,3.07745 1.51967,0 0.96984,-4.10316 0.95834,-5.04934 -0.0497,-4.03808 -2.8612,-7.5661 -7.22892,-6.74745 m 23.99123,0.004 c -7.85532,1.23342 -6.33368,13.41374 1.64324,12.36501 7.83724,-1.03063 6.29261,-13.61091 -1.64324,-12.36501 m 22.348,9.3e-4 c -8.22899,1.34778 -5.98565,13.7174 2.30052,12.22205 7.41889,-1.33923 5.23207,-13.45546 -2.30052,-12.22205 m 19.39017,11.0162 c -0.0407,1.72869 -0.4279,3.27629 -1.98601,4.26978 -0.70659,0.45025 -2.40176,0.54785 -2.69655,1.44014 -0.43481,1.31459 1.71882,1.16932 2.38203,0.98166 1.72638,-0.48803 3.10999,-1.75596 3.78502,-3.40511 1.12595,-2.75044 1.13746,-8.8807 -0.30694,-11.50133 -1.78128,-3.23093 -6.59563,-3.84616 -9.33292,-1.46938 -6.08358,5.28301 1.59624,14.14891 8.15537,9.68424 m 16.10371,-11.02019 c -8.62271,1.58868 -4.4798,15.54204 3.23749,12.04097 0.59025,-0.26752 1.25214,-1.1174 0.50152,-1.64094 -0.77396,-0.53931 -2.18715,0.13113 -3.08172,0.01 -2.61866,-0.35625 -4.17579,-3.17768 -3.40051,-5.63235 0.50315,-1.59295 2.06094,-2.77443 3.72916,-2.86645 0.79039,-0.0437 2.07408,0.58236 2.74025,-0.0214 1.76188,-1.59689 -3.00548,-2.02216 -3.72619,-1.88939 m 17.41828,10.03425 c 0.46964,0.87618 3.27727,2.86022 2.5858,0.6379 -0.36414,-1.16932 -1.26398,-2.00606 -1.49172,-3.26707 -0.3441,-1.90681 0.30794,-4.03349 -0.21264,-5.89495 -0.40851,-1.46083 -1.55023,-0.68982 -2.61866,-0.87847 -2.8967,-0.51203 -5.69513,-1.44769 -7.9927,1.22092 -5.64419,6.55519 3.74099,13.84656 9.72992,8.18167 M 46.272708,159.92519 c -1.203513,0.18962 -0.984297,2.04976 -0.985947,2.89998 -0.0037,1.73788 0.113385,10.00794 3.795218,8.63979 0.784806,-0.29184 0.392408,-1.12496 0.0641,-1.60017 -1.886766,-2.73041 -1.827274,-4.78806 -1.889057,-8.02425 -0.01183,-0.632 0.03484,-2.07573 -0.984299,-1.91535 m 162.022957,11.77345 c -0.14067,-1.78686 -1.5706,-2.62853 -2.08592,-4.27241 -0.631,-2.01166 0.6987,-5.38686 -0.55081,-7.10634 -0.58499,-0.80485 -1.3307,-0.16696 -1.53117,0.55409 -0.98067,3.52672 -0.39307,10.48088 4.1679,10.82466 M 24.253371,159.86734 c -0.09409,2.7143 -0.683494,6.68796 0.465687,9.20211 0.331276,0.72435 2.459921,3.8087 3.420231,2.10072 0.560673,-0.99712 -1.329381,-2.5812 -1.725729,-3.4153 -1.066456,-2.24466 -0.516962,-5.46178 -0.516962,-7.88753 h -1.643227 m 43.381726,1.42764 c 5.49597,-0.99908 6.944642,7.58913 1.64291,8.50605 -5.382577,0.93106 -6.86609,-7.55659 -1.64291,-8.50605 m 23.33361,-0.004 c 5.239949,-0.87518 6.851631,7.59372 1.643236,8.44262 -5.666864,0.92317 -7.197367,-7.51451 -1.643236,-8.44262 m 13.474523,0.0213 c 5.47953,-1.19365 7.32916,7.43762 1.97189,8.50474 -5.43615,1.08321 -7.303522,-7.34329 -1.97189,-8.50474 m 14.46047,0 c 5.29648,-1.15223 7.12573,7.09813 1.97189,8.41994 -5.53048,1.41845 -7.36959,-7.24568 -1.97189,-8.41994 m 38.12338,-0.0178 c 5.37338,-0.96983 6.91835,7.47968 1.64291,8.52248 -5.41972,1.07139 -6.91605,-7.57071 -1.64291,-8.52248 m 22.34767,9.3e-4 c 5.48019,-1.0566 6.90651,7.59438 1.64324,8.50473 -5.40625,0.93533 -6.86905,-7.4971 -1.64324,-8.50473 m 14.46046,0 c 5.48019,-1.0566 6.90653,7.59438 1.64324,8.50473 -5.40624,0.93533 -6.86905,-7.4971 -1.64324,-8.50473 m 32.53606,-9.3e-4 c 5.43516,-0.9843 6.9167,7.50465 1.64324,8.4768 -5.44339,1.00368 -6.93019,-7.51912 -1.64324,-8.4768 z"
       id="path381" />
  </g>
</svg>
